<?xml version="1.0" encoding="UTF-8" standalone="no"?>
<!-- 1. Created with Inkscape (http://www.inkscape.org/) -->

<svg
   xmlns:dc="http://purl.org/dc/elements/1.1/"
   xmlns:cc="http://creativecommons.org/ns#"
   xmlns:rdf="http://www.w3.org/1999/02/22-rdf-syntax-ns#"
   xmlns:svg="http://www.w3.org/2000/svg"
   xmlns="http://www.w3.org/2000/svg"
   xmlns:sodipodi="http://sodipodi.sourceforge.net/DTD/sodipodi-0.dtd"
   xmlns:inkscape="http://www.inkscape.org/namespaces/inkscape"
   width="1000"
   height="396.70999"
   viewBox="0 0 1000 396.71"
   id="svg5486"
   version="1.1"
   inkscape:version="0.91 r13725"
   sodipodi:docname="scene-1.svg">
  <defs
     id="defs5488">
    <linearGradient
       x1="0"
       y1="0"
       x2="1"
       y2="0"
       gradientUnits="userSpaceOnUse"
       gradientTransform="matrix(0,317.36752,317.36752,0,400,0)"
       spreadMethod="pad"
       id="linearGradient3402">
      <stop
         style="stop-opacity:1;stop-color:#e0f2f1"
         offset="0"
         id="stop3404" />
      <stop
         style="stop-opacity:1;stop-color:#e0f2f1"
         offset="0.44137199"
         id="stop3406" />
      <stop
         style="stop-opacity:1;stop-color:#80cbc4"
         offset="1"
         id="stop3408" />
    </linearGradient>
    <clipPath
       clipPathUnits="userSpaceOnUse"
       id="clipPath3756">
      <path
         d="M 0,0 800,0 800,800 0,800 0,0 Z"
         id="path3758"
         inkscape:connector-curvature="0" />
    </clipPath>
  </defs>
  <sodipodi:namedview
     id="base"
     pagecolor="#ffffff"
     bordercolor="#666666"
     borderopacity="1.0"
     inkscape:pageopacity="0.0"
     inkscape:pageshadow="2"
     inkscape:zoom="0.98994949"
     inkscape:cx="590.64073"
     inkscape:cy="167.85434"
     inkscape:document-units="px"
     inkscape:current-layer="layer2"
     showgrid="false"
     inkscape:showpageshadow="false"
     units="px"
     inkscape:window-width="1366"
     inkscape:window-height="745"
     inkscape:window-x="-8"
     inkscape:window-y="-8"
     inkscape:window-maximized="1"
     showguides="true"
     inkscape:guide-bbox="true">
    <sodipodi:guide
       position="-33.335034,-8.0812205"
       orientation="0,1"
       id="guide6429" />
  </sodipodi:namedview>
  <metadata
     id="metadata5491">
    <rdf:RDF>
      <cc:Work
         rdf:about="">
        <dc:format>image/svg+xml</dc:format>
        <dc:type
           rdf:resource="http://purl.org/dc/dcmitype/StillImage" />
        <dc:title />
      </cc:Work>
    </rdf:RDF>
  </metadata>
    <!--
  <g
     inkscape:groupmode="layer" data-dir="right"
     id="layer2"
     inkscape:label="background"
     style="display:inline"
     transform="translate(0,-655.65218)"
     sodipodi:insensitive="true">
    <g
       style="display:inline"
       transform="matrix(1.25,0,0,-1.25,-45.456865,1049.3317)"
       id="g3390">
      <g
         id="g3392"
         transform="translate(36.365492,-2.4243661)">
        <g
           id="g3398">
          <g
             id="g3400">
            <path
               d="m 0,0 800,0 0,317.368 -800,0 L 0,0 Z"
               style="fill:url(#linearGradient3402);stroke:none"
               id="path3410"
               inkscape:connector-curvature="0" />
          </g>
        </g>
      </g>
    </g>
  </g>
    -->
  <g
     inkscape:groupmode="layer" data-dir="left"
     id="layer7"
     inkscape:label="trees"
     transform="translate(0,-655.65218)"
     style="display:inline">
    <path
       d="m 518.75902,1014.1418 -7.065,0 0,-56.41874 7.065,0 0,56.41874 z"
       style="display:inline;fill:#8d6e63;fill-opacity:1;fill-rule:nonzero;stroke:none"
       id="path4374"
       inkscape:connector-curvature="0" />
    <path
       d="m 515.22652,957.72306 -3.5325,0 0,56.41874 3.5325,0 0,-56.41874 z"
       style="display:inline;opacity:0.38999903;fill:#ffffff;fill-opacity:1;fill-rule:nonzero;stroke:none"
       id="path4388"
       inkscape:connector-curvature="0" />
    <path
       d="m 541.94179,912.84581 c 0.2462,-1.45375 0.3812,-2.945 0.3812,-4.47 0,-14.675 -11.8962,-26.5725 -26.57247,-26.5725 -14.675,0 -26.5725,11.8975 -26.5725,26.5725 0,1.53125 0.1375,3.03 0.38625,4.49125 -12.1675,1.7825 -21.50875,12.25875 -21.50875,24.92125 0,13.91375 11.27875,25.1925 25.1925,25.1925 2.8975,0 5.67875,-0.49625 8.27125,-1.39625 2.69,5.11375 8.05125,8.60375 14.23125,8.60375 6.19997,0 11.57497,-3.51125 14.25747,-8.6525 2.6313,0.9325 5.4625,1.445 8.4138,1.445 13.9125,0 25.1925,-11.27875 25.1925,-25.1925 0,-12.71875 -9.4263,-23.22875 -21.6725,-24.9425"
       style="display:inline;fill:#91b426;fill-opacity:1;fill-rule:nonzero;stroke:none"
       id="path4392"
       inkscape:connector-curvature="0" />
    <path
       d="m 515.83439,881.80581 c -0.0275,0 -0.055,-0.003 -0.0838,-0.003 -14.675,0 -26.5725,11.8975 -26.5725,26.5725 0,1.53125 0.1375,3.03 0.38625,4.49125 -12.1675,1.7825 -21.51,12.25875 -21.51,24.92125 0,13.91375 11.28,25.1925 25.19375,25.1925 2.8975,0 5.67875,-0.49625 8.27125,-1.39625 2.69,5.11375 8.05125,8.60375 14.23125,8.60375 0.0288,0 0.0562,-0.002 0.0838,-0.002 l 0,-88.38 z"
       style="display:inline;opacity:0.19000202;fill:#ffffff;fill-opacity:1;fill-rule:nonzero;stroke:none"
       id="path4408"
       inkscape:connector-curvature="0" />
    <path
       d="m 239.23105,1011.6799 -10.94,0 0,-59.30998 10.94,0 0,59.30998 z"
       style="display:inline;fill:#8d6e63;fill-opacity:1;fill-rule:nonzero;stroke:none"
       id="path4446"
       inkscape:connector-curvature="0" />
    <path
       d="m 233.76105,952.36867 -5.47,0 0,59.31003 5.47,0 0,-59.31003 z"
       style="display:inline;opacity:0.38999903;fill:#ffffff;fill-opacity:1;fill-rule:nonzero;stroke:none"
       id="path4460"
       inkscape:connector-curvature="0" />
    <path
       d="m 258.94805,905.45767 c 1.96,-3.84625 3.07375,-8.1975 3.07375,-12.81125 0,-15.6075 -12.65375,-28.26 -28.26125,-28.26 -15.6075,0 -28.26,12.6525 -28.26,28.26 0,4.61375 1.1125,8.965 3.0725,12.81125 -12.43875,8.1975 -20.65125,22.28875 -20.65125,38.30125 0,25.315 20.5225,45.83875 45.83875,45.83875 25.31625,0 45.83875,-20.52375 45.83875,-45.83875 0,-16.0125 -8.21125,-30.10375 -20.65125,-38.30125"
       style="display:inline;fill:#7cb342;fill-opacity:1;fill-rule:nonzero;stroke:none"
       id="path4464"
       inkscape:connector-curvature="0" />
    <path
       d="m 233.7608,864.38592 c -15.6075,0 -28.26,12.6525 -28.26,28.26 0,4.61375 1.1125,8.965 3.0725,12.81125 -12.44,8.1975 -20.65125,22.28875 -20.65125,38.30125 0,25.31625 20.5225,45.83875 45.83875,45.83875 l 0,-125.21125 z"
       style="display:inline;opacity:0.24000501;fill:#ffffff;fill-opacity:1;fill-rule:nonzero;stroke:none"
       id="path4480"
       inkscape:connector-curvature="0" />
  </g>
  <g
     inkscape:groupmode="layer" data-dir="right"
     id="layer8"
     inkscape:label="cloud-s1"
     style="display:inline"
     transform="translate(0,-655.65218)"
     sodipodi:insensitive="true">
    <path
       d="m 652.77803,770.82336 c 0,-18.7538 -15.2025,-33.9563 -33.95625,-33.9563 -2.2575,0 -4.46125,0.225 -6.59625,0.6463 -3.48875,-9.4275 -12.5575,-16.1475 -23.19625,-16.1475 -10.36625,0 -19.23625,6.38 -22.9125,15.4262 -1.99125,-0.9537 -4.22125,-1.4875 -6.57625,-1.4875 -8.42625,0 -15.255,6.83 -15.255,15.255 0,0.3725 0.0175,0.74 0.0437,1.1063 -11.25625,0.96 -20.095,10.395 -20.095,21.9 l 128.42375,0 c 0.0725,-0.905 0.12,-1.8188 0.12,-2.7425"
       style="opacity:0.55999798;fill:#ffffff;fill-opacity:1;fill-rule:nonzero;stroke:none"
       id="path4022"
       inkscape:connector-curvature="0" />
    <path
       d="m 320.8544,779.07006 c 0,-15.3037 -12.40625,-27.7112 -27.71125,-27.7112 -1.84125,0 -3.64125,0.185 -5.3825,0.5275 -2.8475,-7.6925 -10.2475,-13.1763 -18.93,-13.1763 -8.45875,0 -15.6975,5.2063 -18.69875,12.5875 -1.625,-0.7775 -3.445,-1.2137 -5.36625,-1.2137 -6.87625,0 -12.45,5.5737 -12.45,12.4487 0,0.305 0.015,0.605 0.0363,0.9038 -9.185,0.7837 -16.39875,8.4825 -16.39875,17.8712 l 104.80375,0 c 0.0588,-0.7387 0.0975,-1.4837 0.0975,-2.2375"
       style="opacity:0.55999798;fill:#ffffff;fill-opacity:1;fill-rule:nonzero;stroke:none"
       id="path4054"
       inkscape:connector-curvature="0" />
  </g>
  <g
     inkscape:groupmode="layer" data-dir="left"
     id="layer9"
     inkscape:label="cloud-s2"
     style="display:inline"
     transform="translate(0,-655.65218)"
     sodipodi:insensitive="true">
    <path
       d="m 968.03309,839.62252 c 0,-13.28375 -10.7688,-24.05125 -24.0513,-24.05125 -1.5987,0 -3.1612,0.16 -4.6725,0.4575 -2.4712,-6.6775 -8.8937,-11.4375 -16.43,-11.4375 -7.3425,0 -13.625,4.52 -16.23,10.92625 -1.41,-0.675 -2.99,-1.05375 -4.6575,-1.05375 -5.9675,0 -10.805,4.8375 -10.805,10.805 0,0.265 0.013,0.525 0.031,0.785 -7.97372,0.67875 -14.23372,7.3625 -14.23372,15.51125 l 90.96372,0 c 0.051,-0.64125 0.085,-1.2875 0.085,-1.9425"
       style="opacity:0.55999798;fill:#ffffff;fill-opacity:1;fill-rule:nonzero;stroke:none"
       id="path4070"
       inkscape:connector-curvature="0" />
    <path
       d="m 451.09278,807.80336 c 0,-12.20375 9.89375,-22.0975 22.0975,-22.0975 1.46875,0 2.90375,0.14625 4.2925,0.42 2.27125,-6.13375 8.1725,-10.5075 15.09625,-10.5075 6.745,0 12.5175,4.1525 14.91,10.03875 1.29625,-0.62125 2.7475,-0.96875 4.28,-0.96875 5.4825,0 9.9275,4.445 9.9275,9.9275 0,0.2425 -0.0113,0.4825 -0.0288,0.72125 7.325,0.62375 13.0775,6.76375 13.0775,14.25125 l -83.575,0 c -0.0462,-0.59 -0.0775,-1.18375 -0.0775,-1.785"
       style="opacity:0.55999798;fill:#ffffff;fill-opacity:1;fill-rule:nonzero;stroke:none"
       id="path4086"
       inkscape:connector-curvature="0" />
  </g>
  <g
     inkscape:groupmode="layer" data-dir="right"
     id="layer11"
     inkscape:label="apartments 3"
     style="display:inline"
     transform="translate(0,-655.65218)"
     sodipodi:insensitive="true">
    <path
       d="m 905.88779,1010.3906 -95.57375,0 0,-127.70617 95.57375,0 0,127.70617 z"
       style="display:inline;fill:#ffa726;fill-opacity:1;fill-rule:nonzero;stroke:none"
       id="path4812"
       inkscape:connector-curvature="0" />
    <path
       d="m 844.66879,905.42731 -8.8413,0 0,-12.3 c 0,-2.44125 1.9788,-4.42125 4.42,-4.42125 2.4425,0 4.4213,1.98 4.4213,4.42125 l 0,12.3 z"
       style="display:inline;fill:#ffffff;fill-opacity:1;fill-rule:nonzero;stroke:none"
       id="path4816"
       inkscape:connector-curvature="0" />
    <path
       d="m 856.57089,905.42731 -8.8412,0 0,-12.3 c 0,-2.44125 1.9787,-4.42125 4.42,-4.42125 2.4425,0 4.4212,1.98 4.4212,4.42125 l 0,12.3 z"
       style="display:inline;fill:#ffffff;fill-opacity:1;fill-rule:nonzero;stroke:none"
       id="path4820"
       inkscape:connector-curvature="0" />
    <path
       d="m 868.47299,905.42731 -8.8412,0 0,-12.3 c 0,-2.44125 1.9787,-4.42125 4.42,-4.42125 2.4425,0 4.4212,1.98 4.4212,4.42125 l 0,12.3 z"
       style="display:inline;fill:#ffffff;fill-opacity:1;fill-rule:nonzero;stroke:none"
       id="path4824"
       inkscape:connector-curvature="0" />
    <path
       d="m 880.37519,905.42731 -8.8413,0 0,-12.3 c 0,-2.44125 1.9788,-4.42125 4.42,-4.42125 2.4425,0 4.4213,1.98 4.4213,4.42125 l 0,12.3 z"
       style="display:inline;fill:#ffffff;fill-opacity:1;fill-rule:nonzero;stroke:none"
       id="path4828"
       inkscape:connector-curvature="0" />
    <path
       d="m 892.27779,914.83318 -68.3525,0 0,-4.235 68.3525,0 0,4.235 z"
       style="display:inline;fill:#ffffff;fill-opacity:1;fill-rule:nonzero;stroke:none"
       id="path4830"
       inkscape:connector-curvature="0" />
    <path
       d="m 892.27779,936.01068 -68.3525,0 0,-4.235 68.3525,0 0,4.235 z"
       style="display:inline;fill:#ffffff;fill-opacity:1;fill-rule:nonzero;stroke:none"
       id="path4832"
       inkscape:connector-curvature="0" />
    <path
       d="m 837.17279,961.01568 -13.2475,0 0,-18.63875 13.2475,0 0,18.63875 z"
       style="display:inline;fill:#ffffff;fill-opacity:1;fill-rule:nonzero;stroke:none"
       id="path4834"
       inkscape:connector-curvature="0" />
    <path
       d="m 855.54029,961.01568 -13.2475,0 0,-18.63875 13.2475,0 0,18.63875 z"
       style="display:inline;fill:#ffffff;fill-opacity:1;fill-rule:nonzero;stroke:none"
       id="path4836"
       inkscape:connector-curvature="0" />
    <path
       d="m 873.90899,961.01568 -13.2475,0 0,-18.63875 13.2475,0 0,18.63875 z"
       style="display:inline;fill:#ffffff;fill-opacity:1;fill-rule:nonzero;stroke:none"
       id="path4838"
       inkscape:connector-curvature="0" />
    <path
       d="m 892.27779,961.01568 -13.2475,0 0,-18.63875 13.2475,0 0,18.63875 z"
       style="display:inline;fill:#ffffff;fill-opacity:1;fill-rule:nonzero;stroke:none"
       id="path4840"
       inkscape:connector-curvature="0" />
    <path
       d="m 837.17279,985.70568 -13.2475,0 0,-18.63875 13.2475,0 0,18.63875 z"
       style="display:inline;fill:#ffffff;fill-opacity:1;fill-rule:nonzero;stroke:none"
       id="path4842"
       inkscape:connector-curvature="0" />
    <path
       d="m 855.54029,985.70568 -13.2475,0 0,-18.63875 13.2475,0 0,18.63875 z"
       style="display:inline;fill:#ffffff;fill-opacity:1;fill-rule:nonzero;stroke:none"
       id="path4844"
       inkscape:connector-curvature="0" />
    <path
       d="m 873.90899,985.70568 -13.2475,0 0,-18.63875 13.2475,0 0,18.63875 z"
       style="display:inline;fill:#ffffff;fill-opacity:1;fill-rule:nonzero;stroke:none"
       id="path4846"
       inkscape:connector-curvature="0" />
    <path
       d="m 892.27779,985.70568 -13.2475,0 0,-18.63875 13.2475,0 0,18.63875 z"
       style="display:inline;fill:#ffffff;fill-opacity:1;fill-rule:nonzero;stroke:none"
       id="path4848"
       inkscape:connector-curvature="0" />
    <path
       d="m 873.90899,961.01568 -13.2475,0 0,-2.495 13.2475,0 0,2.495 z"
       style="display:inline;fill:#6d4c41;fill-opacity:1;fill-rule:nonzero;stroke:none"
       id="path4854"
       inkscape:connector-curvature="0" />
    <path
       d="m 892.27779,961.01568 -13.2475,0 0,-2.495 13.2475,0 0,2.495 z"
       style="display:inline;fill:#6d4c41;fill-opacity:1;fill-rule:nonzero;stroke:none"
       id="path4856"
       inkscape:connector-curvature="0" />
    <path
       d="m 837.17279,985.70568 -13.2475,0 0,-2.495 13.2475,0 0,2.495 z"
       style="display:inline;fill:#6d4c41;fill-opacity:1;fill-rule:nonzero;stroke:none"
       id="path4858"
       inkscape:connector-curvature="0" />
    <path
       d="m 855.54029,985.70568 -13.2475,0 0,-2.495 13.2475,0 0,2.495 z"
       style="display:inline;fill:#6d4c41;fill-opacity:1;fill-rule:nonzero;stroke:none"
       id="path4860"
       inkscape:connector-curvature="0" />
    <path
       d="m 873.90899,985.70568 -13.2475,0 0,-2.495 13.2475,0 0,2.495 z"
       style="display:inline;fill:#6d4c41;fill-opacity:1;fill-rule:nonzero;stroke:none"
       id="path4862"
       inkscape:connector-curvature="0" />
    <path
       d="m 892.27779,985.70568 -13.2475,0 0,-2.495 13.2475,0 0,2.495 z"
       style="display:inline;fill:#6d4c41;fill-opacity:1;fill-rule:nonzero;stroke:none"
       id="path4864"
       inkscape:connector-curvature="0" />
    <path
       d="m 840.24789,1010.3911 -15.5125,0 0,-11.58867 c 0,-4.28375 3.4725,-7.75625 7.7563,-7.75625 4.2837,0 7.7562,3.4725 7.7562,7.75625 l 0,11.58867 z"
       style="display:inline;fill:#6d4c41;fill-opacity:1;fill-rule:nonzero;stroke:none"
       id="path4868"
       inkscape:connector-curvature="0" />
    <path
       d="m 905.88779,882.68443 -95.57375,0 0,-10.58125 95.57375,0 0,10.58125 z"
       style="display:inline;fill:#6d4c41;fill-opacity:1;fill-rule:nonzero;stroke:none"
       id="path4870"
       inkscape:connector-curvature="0" />
    <path
       d="m 839.05779,928.67943 -14.3225,0 0,-10.75 14.3225,0 0,10.75 z"
       style="display:inline;fill:#6d4c41;fill-opacity:1;fill-rule:nonzero;stroke:none"
       id="path4872"
       inkscape:connector-curvature="0" />
    <path
       d="m 856.61529,928.67943 -14.3225,0 0,-10.75 14.3225,0 0,10.75 z"
       style="display:inline;fill:#6d4c41;fill-opacity:1;fill-rule:nonzero;stroke:none"
       id="path4874"
       inkscape:connector-curvature="0" />
    <path
       d="m 874.17399,928.67943 -14.3225,0 0,-10.75 14.3225,0 0,10.75 z"
       style="display:inline;fill:#6d4c41;fill-opacity:1;fill-rule:nonzero;stroke:none"
       id="path4876"
       inkscape:connector-curvature="0" />
    <path
       d="m 891.73149,928.67943 -14.3225,0 0,-10.75 14.3225,0 0,10.75 z"
       style="display:inline;fill:#6d4c41;fill-opacity:1;fill-rule:nonzero;stroke:none"
       id="path4878"
       inkscape:connector-curvature="0" />
  </g>
  <g
     inkscape:groupmode="layer" data-dir="right"
     id="layer12"
     inkscape:label="apartments 2"
     style="display:inline"
     transform="translate(0,-655.65218)"
     sodipodi:insensitive="true">
    <path
       d="m 777.7061,871.38961 -61.3525,0 0,-42.7275 61.3525,0 0,42.7275 z"
       style="display:inline;fill:#fafafa;fill-opacity:1;fill-rule:nonzero;stroke:none"
       id="path5016"
       inkscape:connector-curvature="0" />
    <path
       d="m 716.3536,828.66161 30.67625,-16.0525 30.67625,16.0525 -61.3525,0 z"
       style="display:inline;fill:#6d4c41;fill-opacity:1;fill-rule:nonzero;stroke:none"
       id="path5020"
       inkscape:connector-curvature="0" />
    <path
       d="m 744.5486,853.46586 -8.27,0 0,-16.38125 8.27,0 0,16.38125 z"
       style="display:inline;fill:#6d4c41;fill-opacity:1;fill-rule:nonzero;stroke:none"
       id="path5022"
       inkscape:connector-curvature="0" />
    <path
       d="m 757.77985,853.46586 -8.27,0 0,-16.38125 8.27,0 0,16.38125 z"
       style="display:inline;fill:#6d4c41;fill-opacity:1;fill-rule:nonzero;stroke:none"
       id="path5024"
       inkscape:connector-curvature="0" />
    <path
       d="m 796.51485,1013.8683 -98.97125,0 0,-166.54494 98.97125,0 0,166.54494 z"
       style="display:inline;fill:#90a4ae;fill-opacity:1;fill-rule:nonzero;stroke:none"
       id="path5026"
       inkscape:connector-curvature="0" />
    <path
       d="m 723.13985,887.59461 -12.96875,0 0,-12.96875 12.96875,0 0,12.96875 z"
       style="display:inline;fill:#fafafa;fill-opacity:1;fill-rule:nonzero;stroke:none"
       id="path5028"
       inkscape:connector-curvature="0" />
    <path
       d="m 743.9586,887.59461 -12.96875,0 0,-12.96875 12.96875,0 0,12.96875 z"
       style="display:inline;fill:#fafafa;fill-opacity:1;fill-rule:nonzero;stroke:none"
       id="path5030"
       inkscape:connector-curvature="0" />
    <path
       d="m 764.7761,887.59461 -12.96875,0 0,-12.96875 12.96875,0 0,12.96875 z"
       style="display:inline;fill:#fafafa;fill-opacity:1;fill-rule:nonzero;stroke:none"
       id="path5032"
       inkscape:connector-curvature="0" />
    <path
       d="m 785.59485,887.59461 -12.96875,0 0,-12.96875 12.96875,0 0,12.96875 z"
       style="display:inline;fill:#fafafa;fill-opacity:1;fill-rule:nonzero;stroke:none"
       id="path5034"
       inkscape:connector-curvature="0" />
    <path
       d="m 723.13985,909.09461 -12.96875,0 0,-12.96875 12.96875,0 0,12.96875 z"
       style="display:inline;fill:#fafafa;fill-opacity:1;fill-rule:nonzero;stroke:none"
       id="path5036"
       inkscape:connector-curvature="0" />
    <path
       d="m 743.9586,909.09461 -12.96875,0 0,-12.96875 12.96875,0 0,12.96875 z"
       style="display:inline;fill:#fafafa;fill-opacity:1;fill-rule:nonzero;stroke:none"
       id="path5038"
       inkscape:connector-curvature="0" />
    <path
       d="m 764.7761,909.09461 -12.96875,0 0,-12.96875 12.96875,0 0,12.96875 z"
       style="display:inline;fill:#fafafa;fill-opacity:1;fill-rule:nonzero;stroke:none"
       id="path5040"
       inkscape:connector-curvature="0" />
    <path
       d="m 785.59485,909.09461 -12.96875,0 0,-12.96875 12.96875,0 0,12.96875 z"
       style="display:inline;fill:#fafafa;fill-opacity:1;fill-rule:nonzero;stroke:none"
       id="path5042"
       inkscape:connector-curvature="0" />
    <path
       d="m 796.51485,926.21461 -98.97125,0 0,-6.82125 98.97125,0 0,6.82125 z"
       style="display:inline;fill:#6d4c41;fill-opacity:1;fill-rule:nonzero;stroke:none"
       id="path5044"
       inkscape:connector-curvature="0" />
    <path
       d="m 730.98985,961.99336 -20.8175,0 0,-27.985 20.8175,0 0,27.985 z"
       style="display:inline;fill:#fafafa;fill-opacity:1;fill-rule:nonzero;stroke:none"
       id="path5046"
       inkscape:connector-curvature="0" />
    <path
       d="m 759.91985,961.99336 -20.8175,0 0,-27.985 20.8175,0 0,27.985 z"
       style="display:inline;fill:#fafafa;fill-opacity:1;fill-rule:nonzero;stroke:none"
       id="path5048"
       inkscape:connector-curvature="0" />
    <path
       d="m 788.84985,961.99336 -20.8175,0 0,-27.985 20.8175,0 0,27.985 z"
       style="display:inline;fill:#fafafa;fill-opacity:1;fill-rule:nonzero;stroke:none"
       id="path5050"
       inkscape:connector-curvature="0" />
    <path
       d="m 730.98985,961.99336 -20.8175,0 0,-5.11875 20.8175,0 0,5.11875 z"
       style="display:inline;fill:#046d8b;fill-opacity:1;fill-rule:nonzero;stroke:none"
       id="path5052"
       inkscape:connector-curvature="0" />
    <path
       d="m 759.91985,961.99336 -20.8175,0 0,-5.11875 20.8175,0 0,5.11875 z"
       style="display:inline;fill:#046d8b;fill-opacity:1;fill-rule:nonzero;stroke:none"
       id="path5054"
       inkscape:connector-curvature="0" />
    <path
       d="m 788.84985,961.99336 -20.8175,0 0,-5.11875 20.8175,0 0,5.11875 z"
       style="display:inline;fill:#046d8b;fill-opacity:1;fill-rule:nonzero;stroke:none"
       id="path5056"
       inkscape:connector-curvature="0" />
    <path
       d="m 760.68085,1024.1935 -32.7625,0 0,-26.70626 c 0,-9.0475 7.33375,-16.3825 16.38125,-16.3825 9.0475,0 16.38125,7.335 16.38125,16.3825 l 0,26.70626 z"
       style="display:inline;fill:#e0e0e0;fill-opacity:1;fill-rule:nonzero;stroke:none"
       id="path5060"
       inkscape:connector-curvature="0" />
  </g>
  <g
     inkscape:groupmode="layer" data-dir="left"
     id="layer10"
     inkscape:label="apartments 1"
     style="display:inline"
     transform="translate(0,-655.65218)"
     sodipodi:insensitive="true">
    <path
       d="m 570.28982,1011.9373 113.0625,0 0,-116.63495 -113.0625,0 0,116.63495 z"
       style="fill:#ffffff;fill-opacity:1;fill-rule:nonzero;stroke:none"
       id="path4950"
       inkscape:connector-curvature="0" />
    <path
       d="m 583.41432,857.73985 86.8125,0 12.935,38.145 -112.6825,0 12.935,-38.145 z"
       style="fill:#6d4c41;fill-opacity:1;fill-rule:nonzero;stroke:none"
       id="path4954"
       inkscape:connector-curvature="0" />
    <path
       d="m 661.50232,923.44485 10.4525,0 0,-17.88375 -10.4525,0 0,17.88375 z"
       style="fill:#f9a825;fill-opacity:1;fill-rule:nonzero;stroke:none"
       id="path4958"
       inkscape:connector-curvature="0" />
    <path
       d="m 644.96852,923.44485 10.4525,0 0,-17.88375 -10.4525,0 0,17.88375 z"
       style="fill:#f9a825;fill-opacity:1;fill-rule:nonzero;stroke:none"
       id="path4960"
       inkscape:connector-curvature="0" />
    <path
       d="m 628.43482,923.44485 10.4525,0 0,-17.88375 -10.4525,0 0,17.88375 z"
       style="fill:#f9a825;fill-opacity:1;fill-rule:nonzero;stroke:none"
       id="path4962"
       inkscape:connector-curvature="0" />
    <path
       d="m 661.50232,949.65985 10.4525,0 0,-17.88375 -10.4525,0 0,17.88375 z"
       style="fill:#f9a825;fill-opacity:1;fill-rule:nonzero;stroke:none"
       id="path4964"
       inkscape:connector-curvature="0" />
    <path
       d="m 644.96852,949.65985 10.4525,0 0,-17.88375 -10.4525,0 0,17.88375 z"
       style="fill:#f9a825;fill-opacity:1;fill-rule:nonzero;stroke:none"
       id="path4966"
       inkscape:connector-curvature="0" />
    <path
       d="m 628.43482,949.65985 10.4525,0 0,-17.88375 -10.4525,0 0,17.88375 z"
       style="fill:#f9a825;fill-opacity:1;fill-rule:nonzero;stroke:none"
       id="path4968"
       inkscape:connector-curvature="0" />
    <path
       d="m 661.50232,974.6261 10.4525,0 0,-17.88375 -10.4525,0 0,17.88375 z"
       style="fill:#f9a825;fill-opacity:1;fill-rule:nonzero;stroke:none"
       id="path4970"
       inkscape:connector-curvature="0" />
    <path
       d="m 644.96852,974.6261 10.4525,0 0,-17.88375 -10.4525,0 0,17.88375 z"
       style="fill:#f9a825;fill-opacity:1;fill-rule:nonzero;stroke:none"
       id="path4972"
       inkscape:connector-curvature="0" />
    <path
       d="m 628.43482,974.6261 10.4525,0 0,-17.88375 -10.4525,0 0,17.88375 z"
       style="fill:#f9a825;fill-opacity:1;fill-rule:nonzero;stroke:none"
       id="path4974"
       inkscape:connector-curvature="0" />
    <path
       d="m 597.09732,916.25235 11.5762,0 0,-9.72 -11.5762,0 0,9.72 z"
       style="fill:#ffffff;fill-opacity:1;fill-rule:nonzero;stroke:none"
       id="path4976"
       inkscape:connector-curvature="0" />
    <path
       d="m 578.88857,916.25235 11.57625,0 0,-9.72 -11.57625,0 0,9.72 z"
       style="fill:#ffffff;fill-opacity:1;fill-rule:nonzero;stroke:none"
       id="path4978"
       inkscape:connector-curvature="0" />
    <path
       d="m 597.09732,930.0536 11.5762,0 0,-9.72 -11.5762,0 0,9.72 z"
       style="fill:#6d4c41;fill-opacity:1;fill-rule:nonzero;stroke:none"
       id="path4980"
       inkscape:connector-curvature="0" />
    <path
       d="m 578.88857,930.0536 11.57625,0 0,-9.72 -11.57625,0 0,9.72 z"
       style="fill:#ffffff;fill-opacity:1;fill-rule:nonzero;stroke:none"
       id="path4982"
       inkscape:connector-curvature="0" />
    <path
       d="m 597.09732,943.85485 11.5762,0 0,-9.72 -11.5762,0 0,9.72 z"
       style="fill:#6d4c41;fill-opacity:1;fill-rule:nonzero;stroke:none"
       id="path4984"
       inkscape:connector-curvature="0" />
    <path
       d="m 578.88857,943.85485 11.57625,0 0,-9.72 -11.57625,0 0,9.72 z"
       style="fill:#6d4c41;fill-opacity:1;fill-rule:nonzero;stroke:none"
       id="path4986"
       inkscape:connector-curvature="0" />
    <path
       d="m 597.09732,957.65735 11.5762,0 0,-9.72 -11.5762,0 0,9.72 z"
       style="fill:#ffffff;fill-opacity:1;fill-rule:nonzero;stroke:none"
       id="path4988"
       inkscape:connector-curvature="0" />
    <path
       d="m 578.88857,957.65735 11.57625,0 0,-9.72 -11.57625,0 0,9.72 z"
       style="fill:#ffffff;fill-opacity:1;fill-rule:nonzero;stroke:none"
       id="path4990"
       inkscape:connector-curvature="0" />
    <path
       d="m 597.09732,971.4586 11.5762,0 0,-9.72 -11.5762,0 0,9.72 z"
       style="fill:#ffffff;fill-opacity:1;fill-rule:nonzero;stroke:none"
       id="path4992"
       inkscape:connector-curvature="0" />
    <path
       d="m 578.88857,971.4586 11.57625,0 0,-9.72 -11.57625,0 0,9.72 z"
       style="fill:#ffffff;fill-opacity:1;fill-rule:nonzero;stroke:none"
       id="path4994"
       inkscape:connector-curvature="0" />
    <path
       d="m 640.87732,984.98985 18.2087,0 0,26.94745 -18.2087,0 0,-26.94745 z"
       style="fill:#6d4c41;fill-opacity:1;fill-rule:nonzero;stroke:none"
       id="path4996"
       inkscape:connector-curvature="0" />
    <path
       d="m 623.22732,926.80985 53.98,0 0,-4.2675 -53.98,0 0,4.2675 z"
       style="fill:#6d4c41;fill-opacity:1;fill-rule:nonzero;stroke:none"
       id="path4998"
       inkscape:connector-curvature="0" />
    <path
       d="m 623.22732,952.9286 53.98,0 0,-4.2675 -53.98,0 0,4.2675 z"
       style="fill:#6d4c41;fill-opacity:1;fill-rule:nonzero;stroke:none"
       id="path5000"
       inkscape:connector-curvature="0" />
    <path
       d="m 623.22722,973.52973 0,4.2675 53.98,0 0,-4.2675"
       style="fill:#6d4c41;fill-opacity:1;fill-rule:nonzero;stroke:none"
       id="path5004"
       inkscape:connector-curvature="0" />
    <path
       d="m 660.69482,890.7611 9.8712,0 0,-8.28875 -9.8712,0 0,8.28875 z"
       style="fill:#ffffff;fill-opacity:1;fill-rule:nonzero;stroke:none"
       id="path5006"
       inkscape:connector-curvature="0" />
    <path
       d="m 645.66982,890.7611 9.8712,0 0,-8.28875 -9.8712,0 0,8.28875 z"
       style="fill:#ffffff;fill-opacity:1;fill-rule:nonzero;stroke:none"
       id="path5008"
       inkscape:connector-curvature="0" />
    <path
       d="m 630.64482,890.7611 9.8712,0 0,-8.28875 -9.8712,0 0,8.28875 z"
       style="fill:#ffffff;fill-opacity:1;fill-rule:nonzero;stroke:none"
       id="path5010"
       inkscape:connector-curvature="0" />
    <path
       d="m 608.82232,864.8711 -8.385,0 0,-16.88375 8.385,0 0,16.88375 z"
       style="fill:#26a69a;fill-opacity:1;fill-rule:nonzero;stroke:none"
       id="path5012"
       inkscape:connector-curvature="0" />
    <path
       d="m 610.51352,850.3786 -11.7662,0 0,-3.29 11.7662,0 0,3.29 z"
       style="fill:#26a69a;fill-opacity:1;fill-rule:nonzero;stroke:none"
       id="path5014"
       inkscape:connector-curvature="0" />
  </g>
  <g
     inkscape:groupmode="layer" data-dir="left"
     id="layer3"
     inkscape:label="supermarket"
     style="display:inline"
     transform="translate(0,-655.65218)"
     sodipodi:insensitive="true">
    <path
       d="m 462.70086,1012.4093 -181.38375,0 0,-105.86374 181.38375,0 0,105.86374 z"
       style="display:inline;fill:#8d6e63;fill-opacity:1;fill-rule:nonzero;stroke:none"
       id="path3556"
       inkscape:connector-curvature="0" />
    <g
       style="display:inline"
       id="g3558"
       transform="matrix(1.25,0,0,-1.25,462.07224,909.26056)">
      <path
         d="m 0,0 -144.102,0 -7.967,11.401 160.037,0 L 0,0 Z"
         style="fill:#6d4c41;fill-opacity:1;fill-rule:nonzero;stroke:none"
         id="path3560"
         inkscape:connector-curvature="0" />
    </g>
    <path
       d="m 479.64086,897.72431 -215.265,0 0,-28.185 215.265,0 0,28.185 z"
       style="display:inline;fill:#8d6e63;fill-opacity:1;fill-rule:nonzero;stroke:none"
       id="path3562"
       inkscape:connector-curvature="0" />
    <path
       d="m 395.83211,1008.7568 -47.6475,0 0,-37.75999 47.6475,0 0,37.75999 z"
       style="display:inline;fill:#ffa726;fill-opacity:1;fill-rule:nonzero;stroke:none"
       id="path3564"
       inkscape:connector-curvature="0" />
    <path
       d="m 401.57461,974.74306 -59.13125,0 0,-11.735 59.13125,0 0,11.735 z"
       style="display:inline;fill:#ffffff;fill-opacity:1;fill-rule:nonzero;stroke:none"
       id="path3566"
       inkscape:connector-curvature="0" />
    <path
       d="m 349.01336,974.74306 -6.57,0 0,-11.735 6.57,0 0,11.735 z"
       style="display:inline;fill:#e53935;fill-opacity:1;fill-rule:nonzero;stroke:none"
       id="path3568"
       inkscape:connector-curvature="0" />
    <path
       d="m 362.15336,974.74306 -6.57,0 0,-11.735 6.57,0 0,11.735 z"
       style="display:inline;fill:#e53935;fill-opacity:1;fill-rule:nonzero;stroke:none"
       id="path3570"
       inkscape:connector-curvature="0" />
    <path
       d="m 375.29336,974.74306 -6.57,0 0,-11.735 6.57,0 0,11.735 z"
       style="display:inline;fill:#e53935;fill-opacity:1;fill-rule:nonzero;stroke:none"
       id="path3572"
       inkscape:connector-curvature="0" />
    <path
       d="m 388.43336,974.74306 -6.57,0 0,-11.735 6.57,0 0,11.735 z"
       style="display:inline;fill:#e53935;fill-opacity:1;fill-rule:nonzero;stroke:none"
       id="path3574"
       inkscape:connector-curvature="0" />
    <path
       d="m 401.57461,974.74306 -6.57,0 0,-11.735 6.57,0 0,11.735 z"
       style="display:inline;fill:#e53935;fill-opacity:1;fill-rule:nonzero;stroke:none"
       id="path3576"
       inkscape:connector-curvature="0" />
    <text
       y="890.97614"
       x="303.02713"
       style="font-variant:normal;font-weight:bold;font-stretch:normal;font-size:18.59087372px;font-family:'Open Sans';-inkscape-font-specification:OpenSans-Bold;writing-mode:lr-tb;display:inline;fill:#6d4c41;fill-opacity:1;fill-rule:nonzero;stroke:none"
       id="text3578">
      <tspan
         x="303.02713 313.27066 327.32541 339.00046 349.41135 361.6813 379.21249 392.04019 404.31021 416.65451 427.0654"
         y="890.97614"
         sodipodi:role="line"
         id="tspan3580">SUPERMARKET</tspan>
    </text>
    <path
       d="m 364.29211,924.71056 -71.07375,0 0,-7.15875 71.07375,0 0,7.15875 z"
       style="display:inline;fill:#ffffff;fill-opacity:1;fill-rule:nonzero;stroke:none"
       id="path3582"
       inkscape:connector-curvature="0" />
    <path
       d="m 364.29211,938.12306 -71.07375,0 0,-7.15875 71.07375,0 0,7.15875 z"
       style="display:inline;fill:#ffffff;fill-opacity:1;fill-rule:nonzero;stroke:none"
       id="path3584"
       inkscape:connector-curvature="0" />
    <path
       d="m 364.29211,951.53681 -71.07375,0 0,-7.15875 71.07375,0 0,7.15875 z"
       style="display:inline;fill:#ffffff;fill-opacity:1;fill-rule:nonzero;stroke:none"
       id="path3586"
       inkscape:connector-curvature="0" />
    <path
       d="m 450.79836,924.71056 -71.07375,0 0,-7.15875 71.07375,0 0,7.15875 z"
       style="display:inline;fill:#ffffff;fill-opacity:1;fill-rule:nonzero;stroke:none"
       id="path3588"
       inkscape:connector-curvature="0" />
    <path
       d="m 450.79836,938.12306 -71.07375,0 0,-7.15875 71.07375,0 0,7.15875 z"
       style="display:inline;fill:#ffffff;fill-opacity:1;fill-rule:nonzero;stroke:none"
       id="path3590"
       inkscape:connector-curvature="0" />
    <path
       d="m 450.79836,951.53681 -71.07375,0 0,-7.15875 71.07375,0 0,7.15875 z"
       style="display:inline;fill:#ffffff;fill-opacity:1;fill-rule:nonzero;stroke:none"
       id="path3592"
       inkscape:connector-curvature="0" />
    <path
       d="m 304.30086,989.87685 -11.0825,0 0,-32.51629 11.0825,0 0,32.51629 z"
       style="display:inline;fill:#ffffff;fill-opacity:1;fill-rule:nonzero;stroke:none"
       id="path3594"
       inkscape:connector-curvature="0" />
    <path
       d="m 321.93211,989.87685 -11.0825,0 0,-32.51629 11.0825,0 0,32.51629 z"
       style="display:inline;fill:#ffffff;fill-opacity:1;fill-rule:nonzero;stroke:none"
       id="path3596"
       inkscape:connector-curvature="0" />
    <path
       d="m 433.16711,989.87685 -11.0825,0 0,-32.51629 11.0825,0 0,32.51629 z"
       style="display:inline;fill:#ffffff;fill-opacity:1;fill-rule:nonzero;stroke:none"
       id="path3598"
       inkscape:connector-curvature="0" />
    <path
       d="m 450.79836,989.87685 -11.0825,0 0,-32.51629 11.0825,0 0,32.51629 z"
       style="display:inline;fill:#ffffff;fill-opacity:1;fill-rule:nonzero;stroke:none"
       id="path3600"
       inkscape:connector-curvature="0" />
  </g>
  <g
     inkscape:groupmode="layer" data-dir="right"
     id="layer4"
     inkscape:label="hotel"
     style="display:inline"
     transform="translate(0,-655.65218)"
     sodipodi:insensitive="true">
    <path
       d="m 174.64035,809.42193 -68.08875,0 0,-35.325 68.08875,0 0,35.325 z"
       style="display:inline;fill:#26a69a;fill-opacity:1;fill-rule:nonzero;stroke:none"
       id="path3686"
       inkscape:connector-curvature="0" />
    <g
       style="display:inline"
       id="g3688"
       transform="matrix(1.25,0,0,-1.25,169.55097,805.31968)">
      <path
         d="m 0,0 15.19,0 0,-164.434 -15.19,0 -46.328,0 -15.191,0 0,164.434 15.191,0"
         style="fill:#90a4ae;fill-opacity:1;fill-rule:nonzero;stroke:none"
         id="path3690"
         inkscape:connector-curvature="0" />
    </g>
    <path
       d="m 168.4166,890.32568 3.6725,0 0,-33.22625 -3.6725,0 0,33.22625 z"
       style="display:inline;fill:#ffffff;fill-opacity:1;fill-rule:nonzero;stroke:none"
       id="path3692"
       inkscape:connector-curvature="0" />
    <path
       d="m 160.3641,890.32568 3.6725,0 0,-33.22625 -3.6725,0 0,33.22625 z"
       style="display:inline;fill:#ffffff;fill-opacity:1;fill-rule:nonzero;stroke:none"
       id="path3694"
       inkscape:connector-curvature="0" />
    <path
       d="m 152.31286,890.32568 3.6725,0 0,-33.22625 -3.6725,0 0,33.22625 z"
       style="display:inline;fill:#ffffff;fill-opacity:1;fill-rule:nonzero;stroke:none"
       id="path3696"
       inkscape:connector-curvature="0" />
    <path
       d="m 144.26035,890.32568 3.67251,0 0,-33.22625 -3.67251,0 0,33.22625 z"
       style="display:inline;fill:#ffffff;fill-opacity:1;fill-rule:nonzero;stroke:none"
       id="path3698"
       inkscape:connector-curvature="0" />
    <path
       d="m 136.2091,890.32568 3.6725,0 0,-33.22625 -3.6725,0 0,33.22625 z"
       style="display:inline;fill:#ffffff;fill-opacity:1;fill-rule:nonzero;stroke:none"
       id="path3700"
       inkscape:connector-curvature="0" />
    <path
       d="m 128.1566,890.32568 3.6725,0 0,-33.22625 -3.6725,0 0,33.22625 z"
       style="display:inline;fill:#ffffff;fill-opacity:1;fill-rule:nonzero;stroke:none"
       id="path3702"
       inkscape:connector-curvature="0" />
    <path
       d="m 120.1041,890.32568 3.6725,0 0,-33.22625 -3.6725,0 0,33.22625 z"
       style="display:inline;fill:#ffffff;fill-opacity:1;fill-rule:nonzero;stroke:none"
       id="path3704"
       inkscape:connector-curvature="0" />
    <path
       d="m 112.05285,890.32568 3.6725,0 0,-33.22625 -3.6725,0 0,33.22625 z"
       style="display:inline;fill:#ffffff;fill-opacity:1;fill-rule:nonzero;stroke:none"
       id="path3706"
       inkscape:connector-curvature="0" />
    <path
       d="m 104.00035,890.32568 3.6725,0 0,-33.22625 -3.6725,0 0,33.22625 z"
       style="display:inline;fill:#ffffff;fill-opacity:1;fill-rule:nonzero;stroke:none"
       id="path3708"
       inkscape:connector-curvature="0" />
    <path
       d="m 108.38785,933.11318 64.41625,0 0,-8.16375 -64.41625,0 0,8.16375 z"
       style="display:inline;fill:#ffffff;fill-opacity:1;fill-rule:nonzero;stroke:none"
       id="path3710"
       inkscape:connector-curvature="0" />
    <path
       d="m 108.38785,948.34068 64.41625,0 0,-8.16375 -64.41625,0 0,8.16375 z"
       style="display:inline;fill:#ffffff;fill-opacity:1;fill-rule:nonzero;stroke:none"
       id="path3712"
       inkscape:connector-curvature="0" />
    <path
       d="m 108.38785,963.56818 64.41625,0 0,-8.16375 -64.41625,0 0,8.16375 z"
       style="display:inline;fill:#ffffff;fill-opacity:1;fill-rule:nonzero;stroke:none"
       id="path3714"
       inkscape:connector-curvature="0" />
    <path
       d="m 163.0966,907.98443 8.9925,0 0,-9.88875 -8.9925,0 0,9.88875 z"
       style="display:inline;fill:#ffffff;fill-opacity:1;fill-rule:nonzero;stroke:none"
       id="path3716"
       inkscape:connector-curvature="0" />
    <path
       d="m 151.27786,907.98443 8.99249,0 0,-9.88875 -8.99249,0 0,9.88875 z"
       style="display:inline;fill:#ffffff;fill-opacity:1;fill-rule:nonzero;stroke:none"
       id="path3718"
       inkscape:connector-curvature="0" />
    <path
       d="m 139.45785,907.98443 8.99251,0 0,-9.88875 -8.99251,0 0,9.88875 z"
       style="display:inline;fill:#f9a825;fill-opacity:1;fill-rule:nonzero;stroke:none"
       id="path3720"
       inkscape:connector-curvature="0" />
    <path
       d="m 127.6391,907.98443 8.9925,0 0,-9.88875 -8.9925,0 0,9.88875 z"
       style="display:inline;fill:#ffffff;fill-opacity:1;fill-rule:nonzero;stroke:none"
       id="path3722"
       inkscape:connector-curvature="0" />
    <path
       d="m 115.82035,907.98443 8.9925,0 0,-9.88875 -8.9925,0 0,9.88875 z"
       style="display:inline;fill:#f9a825;fill-opacity:1;fill-rule:nonzero;stroke:none"
       id="path3724"
       inkscape:connector-curvature="0" />
    <path
       d="m 104.00035,907.98443 8.9925,0 0,-9.88875 -8.9925,0 0,9.88875 z"
       style="display:inline;fill:#ffffff;fill-opacity:1;fill-rule:nonzero;stroke:none"
       id="path3726"
       inkscape:connector-curvature="0" />
    <path
       d="m 163.0966,847.66318 8.9925,0 0,-9.88875 -8.9925,0 0,9.88875 z"
       style="display:inline;fill:#ffffff;fill-opacity:1;fill-rule:nonzero;stroke:none"
       id="path3728"
       inkscape:connector-curvature="0" />
    <path
       d="m 151.27786,847.66318 8.99249,0 0,-9.88875 -8.99249,0 0,9.88875 z"
       style="display:inline;fill:#f9a825;fill-opacity:1;fill-rule:nonzero;stroke:none"
       id="path3730"
       inkscape:connector-curvature="0" />
    <path
       d="m 139.45785,847.66318 8.99251,0 0,-9.88875 -8.99251,0 0,9.88875 z"
       style="display:inline;fill:#ffffff;fill-opacity:1;fill-rule:nonzero;stroke:none"
       id="path3732"
       inkscape:connector-curvature="0" />
    <path
       d="m 127.6391,847.66318 8.9925,0 0,-9.88875 -8.9925,0 0,9.88875 z"
       style="display:inline;fill:#ffffff;fill-opacity:1;fill-rule:nonzero;stroke:none"
       id="path3734"
       inkscape:connector-curvature="0" />
    <path
       d="m 115.82035,847.66318 8.9925,0 0,-9.88875 -8.9925,0 0,9.88875 z"
       style="display:inline;fill:#f9a825;fill-opacity:1;fill-rule:nonzero;stroke:none"
       id="path3736"
       inkscape:connector-curvature="0" />
    <path
       d="m 104.00035,847.66318 8.9925,0 0,-9.88875 -8.9925,0 0,9.88875 z"
       style="display:inline;fill:#ffffff;fill-opacity:1;fill-rule:nonzero;stroke:none"
       id="path3738"
       inkscape:connector-curvature="0" />
    <path
       d="m 163.0966,832.32443 8.9925,0 0,-9.88875 -8.9925,0 0,9.88875 z"
       style="display:inline;fill:#ffffff;fill-opacity:1;fill-rule:nonzero;stroke:none"
       id="path3740"
       inkscape:connector-curvature="0" />
    <path
       d="m 151.27786,832.32443 8.99249,0 0,-9.88875 -8.99249,0 0,9.88875 z"
       style="display:inline;fill:#ffffff;fill-opacity:1;fill-rule:nonzero;stroke:none"
       id="path3742"
       inkscape:connector-curvature="0" />
    <path
       d="m 139.45785,832.32443 8.99251,0 0,-9.88875 -8.99251,0 0,9.88875 z"
       style="display:inline;fill:#ffffff;fill-opacity:1;fill-rule:nonzero;stroke:none"
       id="path3744"
       inkscape:connector-curvature="0" />
    <path
       d="m 127.6391,832.32443 8.9925,0 0,-9.88875 -8.9925,0 0,9.88875 z"
       style="display:inline;fill:#f9a825;fill-opacity:1;fill-rule:nonzero;stroke:none"
       id="path3746"
       inkscape:connector-curvature="0" />
    <path
       d="m 115.82035,832.32443 8.9925,0 0,-9.88875 -8.9925,0 0,9.88875 z"
       style="display:inline;fill:#ffffff;fill-opacity:1;fill-rule:nonzero;stroke:none"
       id="path3748"
       inkscape:connector-curvature="0" />
    <path
       d="m 104.00035,832.32443 8.9925,0 0,-9.88875 -8.9925,0 0,9.88875 z"
       style="display:inline;fill:#f9a825;fill-opacity:1;fill-rule:nonzero;stroke:none"
       id="path3750"
       inkscape:connector-curvature="0" />
    <g
       style="display:inline"
       transform="matrix(1.25,0,0,-1.25,57.260351,1128.0232)"
       id="g3752">
      <g
         id="g3754"
         clip-path="url(#clipPath3756)">
        <g
           id="g3760"
           transform="translate(66.6683,120.7282)">
          <path
             d="m 0,0 0,0 c -7.115,0 -12.883,-5.768 -12.883,-12.883 l 0,-14.116 25.766,0 0,14.116 C 12.883,-5.768 7.115,0 0,0"
             style="fill:#ffffff;fill-opacity:1;fill-rule:nonzero;stroke:none"
             id="path3762"
             inkscape:connector-curvature="0" />
        </g>
      </g>
    </g>
    <text
       y="799.21216"
       x="115.45248"
       style="font-variant:normal;font-weight:normal;font-stretch:normal;font-size:19.90600014px;font-family:Bebas;-inkscape-font-specification:Bebas;writing-mode:lr-tb;display:inline;fill:#ffffff;fill-opacity:1;fill-rule:nonzero;stroke:none"
       id="text3764">
      <tspan
         x="115.45248 126.38088 136.6922 147.18066 156.61612"
         y="799.21216"
         sodipodi:role="line"
         id="tspan3766">HOTEL</tspan>
    </text>
  </g>
  <g
     inkscape:groupmode="layer" data-dir="left"
     id="layer6"
     inkscape:label="road"
     transform="translate(0,-655.65218)"
     style="display:inline"
     sodipodi:insensitive="true">
    <path
       d="m 0.46950778,1031.7372 999.99999222,0"
       style="display:inline;fill:none;stroke:#546e7a;stroke-width:41.25;stroke-linecap:butt;stroke-linejoin:miter;stroke-miterlimit:10;stroke-dasharray:none;stroke-opacity:1"
       id="path5318"
       inkscape:connector-curvature="0" />
    <path
       d="m 0.46950778,1031.7372 999.99999222,0"
       style="display:inline;fill:none;stroke:#ffffff;stroke-width:6.25;stroke-linecap:round;stroke-linejoin:round;stroke-miterlimit:10;stroke-dasharray:20, 27.5;stroke-dashoffset:0;stroke-opacity:1"
       id="path5322"
       inkscape:connector-curvature="0" />
  </g>
  <g
     inkscape:groupmode="layer" data-dir="left"
     id="layer5"
     inkscape:label="car"
     style="display:inline"
     transform="translate(0,-655.65218)"
     sodipodi:insensitive="true">
    <path
       d="m 644.98612,990.68152 c 0,9.0725 -6.745,16.42748 -30.65,16.42748 -23.90375,0 -43.2825,-16.42748 -43.2825,-16.42748 0,0 19.37875,-16.4275 43.2825,-16.4275 23.905,0 30.65,7.355 30.65,16.4275"
       style="display:inline;fill:#00897b;fill-opacity:1;fill-rule:nonzero;stroke:none"
       id="path5420"
       inkscape:connector-curvature="0" />
    <path
       d="m 651.12187,1011.468 -101.34875,0 c -3.24375,0 -5.89875,-2.6537 -5.89875,-5.8975 l 0,0 c 0,-8.24498 6.74625,-14.99123 14.99125,-14.99123 l 92.25625,0 c 3.24375,0 5.8975,2.655 5.8975,5.89875 l 0,9.09248 c 0,3.2438 -2.65375,5.8975 -5.8975,5.8975"
       style="display:inline;fill:#26a69a;fill-opacity:1;fill-rule:nonzero;stroke:none"
       id="path5424"
       inkscape:connector-curvature="0" />
    <path
       d="m 582.23012,1009.6588 c 0,6.54 -5.30125,11.8412 -11.84125,11.8412 -6.54,0 -11.8425,-5.3012 -11.8425,-11.8412 0,-6.54 5.3025,-11.84128 11.8425,-11.84128 6.54,0 11.84125,5.30128 11.84125,11.84128"
       style="display:inline;fill:#ffffff;fill-opacity:1;fill-rule:nonzero;stroke:none"
       id="path5428"
       inkscape:connector-curvature="0" />
    <path
       d="m 576.60587,1009.6588 c 0,3.4337 -2.78375,6.2175 -6.2175,6.2175 -3.43375,0 -6.2175,-2.7838 -6.2175,-6.2175 0,-3.4338 2.78375,-6.2175 6.2175,-6.2175 3.43375,0 6.2175,2.7837 6.2175,6.2175"
       style="display:inline;fill:#546e7a;fill-opacity:1;fill-rule:nonzero;stroke:none"
       id="path5432"
       inkscape:connector-curvature="0" />
    <path
       d="m 650.64812,1009.6588 c 0,6.54 -5.30125,11.8412 -11.84125,11.8412 -6.54,0 -11.8425,-5.3012 -11.8425,-11.8412 0,-6.54 5.3025,-11.84128 11.8425,-11.84128 6.54,0 11.84125,5.30128 11.84125,11.84128"
       style="display:inline;fill:#ffffff;fill-opacity:1;fill-rule:nonzero;stroke:none"
       id="path5436"
       inkscape:connector-curvature="0" />
    <path
       d="m 645.02387,1009.6588 c 0,3.4337 -2.78375,6.2175 -6.2175,6.2175 -3.43375,0 -6.2175,-2.7838 -6.2175,-6.2175 0,-3.4338 2.78375,-6.2175 6.2175,-6.2175 3.43375,0 6.2175,2.7837 6.2175,6.2175"
       style="display:inline;fill:#546e7a;fill-opacity:1;fill-rule:nonzero;stroke:none"
       id="path5440"
       inkscape:connector-curvature="0" />
    <path
       d="m 584.93737,989.64902 c 0,4.1125 11.82125,2.7925 26.4025,2.7925 14.58125,0 26.4025,1.32 26.4025,-2.7925 0,-4.1125 -6.84375,-12.1 -21.425,-12.1 -14.58125,0 -31.38,7.9875 -31.38,12.1"
       style="display:inline;fill:#ffffff;fill-opacity:1;fill-rule:nonzero;stroke:none"
       id="path5444"
       inkscape:connector-curvature="0" />
  </g>
</svg>
