<?xml version="1.0" encoding="UTF-8" standalone="no"?>
<!-- 3. Created with Inkscape (http://www.inkscape.org/) -->

<svg
   xmlns:dc="http://purl.org/dc/elements/1.1/"
   xmlns:cc="http://creativecommons.org/ns#"
   xmlns:rdf="http://www.w3.org/1999/02/22-rdf-syntax-ns#"
   xmlns:svg="http://www.w3.org/2000/svg"
   xmlns="http://www.w3.org/2000/svg"
   xmlns:sodipodi="http://sodipodi.sourceforge.net/DTD/sodipodi-0.dtd"
   xmlns:inkscape="http://www.inkscape.org/namespaces/inkscape"
   viewBox="0 0 1000 396.71"
   id="svg5486"
   version="1.1"
   inkscape:version="0.91 r13725"
   sodipodi:docname="scene-3.svg"
   enable-background="new">
  <defs
     id="defs5488">
    <linearGradient
       x1="0"
       y1="0"
       x2="1"
       y2="0"
       gradientUnits="userSpaceOnUse"
       gradientTransform="matrix(0,317.36752,317.36752,0,400,0)"
       spreadMethod="pad"
       id="linearGradient3402">
      <stop
         style="stop-opacity:1;stop-color:#e0f2f1"
         offset="0"
         id="stop3404" />
      <stop
         style="stop-opacity:1;stop-color:#e0f2f1"
         offset="0.44137199"
         id="stop3406" />
      <stop
         style="stop-opacity:1;stop-color:#80cbc4"
         offset="1"
         id="stop3408" />
    </linearGradient>
    <clipPath
       clipPathUnits="userSpaceOnUse"
       id="clipPath3756">
      <path
         d="M 0,0 800,0 800,800 0,800 0,0 Z"
         id="path3758"
         inkscape:connector-curvature="0" />
    </clipPath>
    <linearGradient
       x1="0"
       y1="0"
       x2="1"
       y2="0"
       gradientUnits="userSpaceOnUse"
       gradientTransform="matrix(0,241.09839,241.09839,0,400,317.58536)"
       spreadMethod="pad"
       id="linearGradient6107">
      <stop
         style="stop-opacity:1;stop-color:#e0f2f1"
         offset="0"
         id="stop6109" />
      <stop
         style="stop-opacity:1;stop-color:#e0f2f1"
         offset="0.44137199"
         id="stop6111" />
      <stop
         style="stop-opacity:1;stop-color:#80cbc4"
         offset="1"
         id="stop6113" />
    </linearGradient>
    <linearGradient
       x1="0"
       y1="0"
       x2="1"
       y2="0"
       gradientUnits="userSpaceOnUse"
       gradientTransform="matrix(0,-398.34779,301.37299,0,501.03566,396.88416)"
       spreadMethod="pad"
       id="linearGradient6085">
      <stop
         style="stop-opacity:1;stop-color:#e0f2f1"
         offset="0"
         id="stop6087" />
      <stop
         style="stop-opacity:1;stop-color:#e0f2f1"
         offset="0.44137199"
         id="stop6089" />
      <stop
         style="stop-opacity:1;stop-color:#80cbc4"
         offset="1"
         id="stop6091" />
    </linearGradient>
  </defs>
  <sodipodi:namedview
     id="base"
     pagecolor="#ffffff"
     bordercolor="#666666"
     borderopacity="1.0"
     inkscape:pageopacity="0.0"
     inkscape:pageshadow="2"
     inkscape:zoom="0.98994949"
     inkscape:cx="429.13966"
     inkscape:cy="198.25746"
     inkscape:document-units="px"
     inkscape:current-layer="layer31"
     showgrid="false"
     inkscape:showpageshadow="false"
     units="px"
     inkscape:window-width="1095"
     inkscape:window-height="729"
     inkscape:window-x="0"
     inkscape:window-y="0"
     inkscape:window-maximized="0"
     showguides="true"
     inkscape:guide-bbox="true">
    <sodipodi:guide
       position="-33.335034,-8.0812205"
       orientation="0,1"
       id="guide6429" />
    <sodipodi:guide
       position="98.994949,446.48743"
       orientation="1,0"
       id="guide6259" />
    <sodipodi:guide
       position="896.00531,321.22852"
       orientation="1,0"
       id="guide6261" />
  </sodipodi:namedview>
  <metadata
     id="metadata5491">
    <rdf:RDF>
      <cc:Work
         rdf:about="">
        <dc:format>image/svg+xml</dc:format>
        <dc:type
           rdf:resource="http://purl.org/dc/dcmitype/StillImage" />
        <dc:title />
      </cc:Work>
    </rdf:RDF>
  </metadata>
  
  <g
     inkscape:groupmode="layer" data-dir="right"
     id="layer26"
     inkscape:label="cloud-odd"
     style="display:inline"
     sodipodi:insensitive="true">
    <path
       d="m 631.9401,76.709252 c 0,-11.85375 -9.60875,-21.4625 -21.4625,-21.4625 -1.4275,0 -2.82125,0.1425 -4.17,0.4075 -2.205,-5.95875 -7.9375,-10.20625 -14.6625,-10.20625 -6.55125,0 -12.1575,4.03375 -14.4825,9.75 -1.25875,-0.60125 -2.6675,-0.94 -4.15625,-0.94 -5.325,0 -9.6425,4.3175 -9.6425,9.6425 0,0.23625 0.0112,0.46875 0.0275,0.7 -7.115,0.60625 -12.70125,6.57 -12.70125,13.8425 l 81.17375,0 c 0.0462,-0.5725 0.0762,-1.15 0.0762,-1.73375"
       style="opacity:0.55999798;fill:#ffffff;fill-opacity:1;fill-rule:nonzero;stroke:none"
       id="path3974"
       inkscape:connector-curvature="0" />
    <path
       d="m 264.92075,106.81904 c 0,-15.303749 -12.40625,-27.711249 -27.71125,-27.711249 -1.84125,0 -3.64125,0.185 -5.3825,0.5275 -2.8475,-7.692498 -10.2475,-13.176248 -18.93,-13.176248 -8.45875,0 -15.6975,5.20625 -18.69875,12.587498 -1.625,-0.7775 -3.445,-1.21375 -5.36625,-1.21375 -6.87625,0 -12.45001,5.57375 -12.45001,12.44875 0,0.305 0.015,0.605 0.0362,0.90375 -9.185,0.78375 -16.39875,8.4825 -16.39875,17.871249 l 104.80376,0 c 0.0588,-0.73875 0.0975,-1.48375 0.0975,-2.2375"
       style="opacity:0.55999798;fill:#ffffff;fill-opacity:1;fill-rule:nonzero;stroke:none"
       id="path3990"
       inkscape:connector-curvature="0" />
  </g>
  <g
     inkscape:groupmode="layer" data-dir="left"
     id="layer27"
     inkscape:label="cloud-even"
     style="display:inline"
     sodipodi:insensitive="true">
    <path
       d="m 829.70111,116.58489 c 0,-21.158751 -17.1525,-38.310001 -38.31,-38.310001 -2.5475,0 -5.035,0.25375 -7.4425,0.72875 -3.9362,-10.63625 -14.1675,-18.2175 -26.1712,-18.2175 -11.69503,0 -21.70253,7.19875 -25.85003,17.40375 -2.2475,-1.07625 -4.7625,-1.67875 -7.42,-1.67875 -9.50625,0 -17.21125,7.705 -17.21125,17.21125 0,0.42 0.02,0.83625 0.05,1.24875 -12.7,1.0825 -22.6725,11.727501 -22.6725,24.707501 l 144.89248,0 c 0.081,-1.02125 0.135,-2.05125 0.135,-3.09375"
       style="opacity:0.55999798;fill:#ffffff;fill-opacity:1;fill-rule:nonzero;stroke:none"
       id="path3958"
       inkscape:connector-curvature="0" />
    <path
       d="m 518.90336,50.355023 c 0,-14.8925 -12.0725,-26.965 -26.965,-26.965 -1.7925,0 -3.5425,0.18 -5.2375,0.51375 -2.77125,-7.48625 -9.97125,-12.8225 -18.42125,-12.8225 -8.23,0 -15.275,5.06625 -18.19375,12.24875 -1.58125,-0.75625 -3.3525,-1.18125 -5.2225,-1.18125 -6.69,0 -12.11375,5.42375 -12.11375,12.115 0,0.295 0.0138,0.5875 0.035,0.87875 -8.93875,0.7625 -15.9575,8.25375 -15.9575,17.39 l 101.98125,0 c 0.0575,-0.71875 0.095,-1.44375 0.095,-2.1775"
       style="opacity:0.55999798;fill:#ffffff;fill-opacity:1;fill-rule:nonzero;stroke:none"
       id="path4006"
       inkscape:connector-curvature="0" />
  </g>
  <g
     inkscape:groupmode="layer" data-dir="left"
     id="layer31"
     inkscape:label="mountain-odd"
     style="display:inline"
     sodipodi:insensitive="true">
    <path
       d="m 196.34024,192.55376 -75.5225,163.78625 151.045,0 -75.5225,-163.78625 z"
       style="display:inline;fill:#90a4ae;fill-opacity:1;fill-rule:nonzero;stroke:none"
       id="path3802"
       inkscape:connector-curvature="0" />
    <path
       d="m 223.45524,251.35839 -27.115,-58.805 -27.115,58.805 15.435,-8.75 11.26125,8.75 12.02625,-8.75 15.5075,8.75 z"
       style="display:inline;fill:#ffffff;fill-opacity:1;fill-rule:nonzero;stroke:none"
       id="path3806"
       inkscape:connector-curvature="0" />
    <path
       d="m 196.34024,192.55376 -75.5225,163.78625 75.5225,0 0,-163.78625 z"
       style="display:inline;opacity:0.33999604;fill:#ffffff;fill-opacity:1;fill-rule:nonzero;stroke:none"
       id="path3822"
       inkscape:connector-curvature="0" />
    <path
       d="m 359.56566,226.13992 -60.66625,130.315 121.3325,0 -60.66625,-130.315 z"
       style="fill:#90a4ae;fill-opacity:1;fill-rule:nonzero;stroke:none"
       id="path3850"
       inkscape:connector-curvature="0" />
    <path
       d="m 381.34703,272.92717 -21.78125,-46.7875 -21.78125,46.7875 12.39875,-6.9625 9.04625,6.9625 9.66,-6.9625 12.4575,6.9625 z"
       style="fill:#ffffff;fill-opacity:1;fill-rule:nonzero;stroke:none"
       id="path3854"
       inkscape:connector-curvature="0" />
    <path
       d="m 359.56578,226.13992 -60.66625,130.315 60.66625,0 0,-130.315 z"
       style="opacity:0.33999604;fill:#ffffff;fill-opacity:1;fill-rule:nonzero;stroke:none"
       id="path3870"
       inkscape:connector-curvature="0" />
    <path
       d="m 685.72026,276.42878 -42.885,81.565 85.77,0 -42.885,-81.565 z"
       style="fill:#90a4ae;fill-opacity:1;fill-rule:nonzero;stroke:none"
       id="path3778"
       inkscape:connector-curvature="0" />
    <path
       d="m 701.11725,305.71328 -15.3975,-29.285 -15.39625,29.285 8.765,-4.3575 6.39375,4.3575 6.83,-4.3575 8.805,4.3575 z"
       style="fill:#ffffff;fill-opacity:1;fill-rule:nonzero;stroke:none"
       id="path3782"
       inkscape:connector-curvature="0" />
    <path
       d="m 685.72026,276.42878 -42.885,81.565 42.885,0 0,-81.565 z"
       style="opacity:0.33999604;fill:#ffffff;fill-opacity:1;fill-rule:nonzero;stroke:none"
       id="path3798"
       inkscape:connector-curvature="0" />
    <path
       d="m 730.94944,284.88205 -44.04125,83.04375 88.0825,0 -44.04125,-83.04375 z"
       style="fill:#90a4ae;fill-opacity:1;fill-rule:nonzero;stroke:none"
       id="path3898"
       inkscape:connector-curvature="0" />
    <path
       d="m 746.76157,314.69755 -15.8125,-29.815 -15.81125,29.815 9.00125,-4.43625 6.56625,4.43625 7.01375,-4.43625 9.0425,4.43625 z"
       style="fill:#ffffff;fill-opacity:1;fill-rule:nonzero;stroke:none"
       id="path3902"
       inkscape:connector-curvature="0" />
    <path
       d="m 730.94944,284.88205 -44.04125,83.04375 44.04125,0 0,-83.04375 z"
       style="opacity:0.33999604;fill:#ffffff;fill-opacity:1;fill-rule:nonzero;stroke:none"
       id="path3918"
       inkscape:connector-curvature="0" />
  </g>
  <g
     inkscape:groupmode="layer" data-dir="right"
     id="layer32"
     inkscape:label="mountain-even"
     style="display:inline"
     sodipodi:insensitive="true">
    <path
       d="m 807.90158,218.92423 -60.91125,141.35249 121.8225,0 -60.91125,-141.35249 z"
       style="display:inline;fill:#90a4ae;fill-opacity:1;fill-rule:nonzero;stroke:none"
       id="path3922"
       inkscape:connector-curvature="0" />
    <path
       d="m 829.77095,269.67423 -21.86875,-50.74999 -21.87,50.74999 12.45,-7.55125 9.08125,7.55125 9.7,-7.55125 12.5075,7.55125 z"
       style="display:inline;fill:#ffffff;fill-opacity:1;fill-rule:nonzero;stroke:none"
       id="path3926"
       inkscape:connector-curvature="0" />
    <path
       d="m 807.90158,218.92423 -60.91125,141.35249 60.91125,0 0,-141.35249 z"
       style="display:inline;opacity:0.33999604;fill:#ffffff;fill-opacity:1;fill-rule:nonzero;stroke:none"
       id="path3942"
       inkscape:connector-curvature="0" />
    <path
       d="m 870.06036,258.9151 -53.76,102.25 107.52,0 -53.76,-102.25 z"
       style="fill:#90a4ae;fill-opacity:1;fill-rule:nonzero;stroke:none"
       id="path3874"
       inkscape:connector-curvature="0" />
    <path
       d="m 889.36186,295.62598 -19.30125,-36.71125 -19.30125,36.71125 10.9875,-5.4625 8.015,5.4625 8.56125,-5.4625 11.03875,5.4625 z"
       style="fill:#ffffff;fill-opacity:1;fill-rule:nonzero;stroke:none"
       id="path3878"
       inkscape:connector-curvature="0" />
    <path
       d="m 870.06036,258.9151 -53.76,102.25 53.76,0 0,-102.25 z"
       style="opacity:0.33999604;fill:#ffffff;fill-opacity:1;fill-rule:nonzero;stroke:none"
       id="path3894"
       inkscape:connector-curvature="0" />
    <path
       d="m 626.65713,253.34354 -48.22125,104.57624 96.4425,0 -48.22125,-104.57624 z"
       style="display:inline;fill:#90a4ae;fill-opacity:1;fill-rule:nonzero;stroke:none"
       id="path3826"
       inkscape:connector-curvature="0" />
    <path
       d="m 643.97001,290.8899 -17.3125,-37.54624 -17.3125,37.54624 9.855,-5.58625 7.19,5.58625 7.67875,-5.58625 9.90125,5.58625 z"
       style="display:inline;fill:#ffffff;fill-opacity:1;fill-rule:nonzero;stroke:none"
       id="path3830"
       inkscape:connector-curvature="0" />
    <path
       d="m 626.65726,253.34354 -48.22125,104.57624 48.22125,0 0,-104.57624 z"
       style="display:inline;opacity:0.33999604;fill:#ffffff;fill-opacity:1;fill-rule:nonzero;stroke:none"
       id="path3846"
       inkscape:connector-curvature="0" />
  </g>
  <g
     inkscape:groupmode="layer" data-dir="left"
     id="layer33"
     inkscape:label="tree"
     style="display:inline"
     sodipodi:insensitive="true">
    <path
       d="m 747.24472,355.67161 -11.50625,0 0,-62.38375 11.50625,0 0,62.38375 z"
       style="fill:#8d6e63;fill-opacity:1;fill-rule:nonzero;stroke:none"
       id="path4410"
       inkscape:connector-curvature="0" />
    <path
       d="m 741.49097,293.28786 -5.7525,0 0,62.38375 5.7525,0 0,-62.38375 z"
       style="opacity:0.38999903;fill:#ffffff;fill-opacity:1;fill-rule:nonzero;stroke:none"
       id="path4424"
       inkscape:connector-curvature="0" />
    <path
       d="m 767.98335,243.94611 c 2.0625,-4.04625 3.2325,-8.6225 3.2325,-13.475 0,-16.41625 -13.30875,-29.725 -29.725,-29.725 -16.41625,0 -29.72375,13.30875 -29.72375,29.725 0,4.8525 1.17,9.42875 3.2325,13.475 -13.085,8.6225 -21.72125,23.44375 -21.72125,40.285 0,26.6275 21.585,48.21375 48.2125,48.21375 26.6275,0 48.21375,-21.58625 48.21375,-48.21375 0,-16.84125 -8.6375,-31.6625 -21.72125,-40.285"
       style="fill:#7cb342;fill-opacity:1;fill-rule:nonzero;stroke:none"
       id="path4428"
       inkscape:connector-curvature="0" />
    <path
       d="m 741.49122,200.74661 c -16.41625,0 -29.725,13.3075 -29.725,29.725 0,4.8525 1.17125,9.42875 3.2325,13.475 -13.08375,8.62125 -21.72125,23.44375 -21.72125,40.285 0,26.6275 21.58625,48.21375 48.21375,48.21375 l 0,-131.69875 z"
       style="opacity:0.24000501;fill:#ffffff;fill-opacity:1;fill-rule:nonzero;stroke:none"
       id="path4444"
       inkscape:connector-curvature="0" />
  </g>
  <g
     inkscape:groupmode="layer" data-dir="left"
     id="layer34"
     inkscape:label="street-lights-1"
     style="display:inline"
     sodipodi:insensitive="true">
    <path
       d="m 347.79783,251.2942 -1.92375,0 c 0,-1.945 -1.58125,-3.52625 -3.52625,-3.52625 -1.945,0 -3.52625,1.58125 -3.52625,3.52625 l -1.92375,0 c 0,-3.005 2.445,-5.45 5.45,-5.45 3.005,0 5.45,2.445 5.45,5.45"
       style="fill:#6d4c41;fill-opacity:1;fill-rule:nonzero;stroke:none"
       id="path7791"
       inkscape:connector-curvature="0" />
    <path
       d="m 344.63346,251.45758 c 0,-1.2625 -1.02375,-2.28625 -2.28625,-2.28625 -1.2625,0 -2.285,1.02375 -2.285,2.28625 l 4.57125,0 z"
       style="fill:#6d4c41;fill-opacity:1;fill-rule:nonzero;stroke:none"
       id="path7795"
       inkscape:connector-curvature="0" />
    <path
       d="m 347.77934,250.80433 -10.86375,0 -2.49625,4.04875 15.85625,0 -2.49625,-4.04875 z"
       style="fill:#6d4c41;fill-opacity:1;fill-rule:nonzero;stroke:none"
       id="path7799"
       inkscape:connector-curvature="0" />
    <path
       d="m 347.75346,281.9337 -5.40625,4.85875 -6.62875,-5.9575 0,1.8175 6.62875,5.9575 6.63,-5.9575 0,-0.17375 c 0,-0.63375 -0.75125,-0.96875 -1.22375,-0.545"
       style="fill:#6d4c41;fill-opacity:1;fill-rule:nonzero;stroke:none"
       id="path7803"
       inkscape:connector-curvature="0" />
    <path
       d="m 344.67821,327.04533 -4.66125,0 0,-51.86125 4.66125,0 0,51.86125 z"
       style="fill:#6d4c41;fill-opacity:1;fill-rule:nonzero;stroke:none"
       id="path7805"
       inkscape:connector-curvature="0" />
    <path
       d="m 346.02071,327.04533 -7.3475,0 0,-8.08 7.3475,0 0,8.08 z"
       style="fill:#6d4c41;fill-opacity:1;fill-rule:nonzero;stroke:none"
       id="path7807"
       inkscape:connector-curvature="0" />
    <path
       d="m 347.77934,275.98996 -10.86375,0 -2.49625,-21.1375 15.85625,0 -2.49625,21.1375 z"
       style="fill:#fdd835;fill-opacity:1;fill-rule:nonzero;stroke:none"
       id="path7811"
       inkscape:connector-curvature="0" />
    <path
       d="m 347.77934,275.98996 -10.86375,0 -2.49625,-15.28375 15.85625,0 -2.49625,15.28375 z"
       style="fill:#f9a825;fill-opacity:1;fill-rule:nonzero;stroke:none"
       id="path7815"
       inkscape:connector-curvature="0" />
    <path
       d="m 337.72333,275.08158 9.24875,0 2.28125,-19.32 -13.81125,0 2.28125,19.32 z m 10.05625,1.81625 -10.86375,0 c -0.46,0 -0.8475,-0.34375 -0.9025,-0.80125 l -2.49625,-21.1375 c -0.03,-0.2575 0.0513,-0.51625 0.22375,-0.71 0.1725,-0.19375 0.42,-0.305 0.67875,-0.305 l 15.855,0 c 0.26,0 0.5075,0.11125 0.68,0.305 0.17125,0.19375 0.2525,0.4525 0.2225,0.71 l -2.49625,21.1375 c -0.0538,0.4575 -0.44125,0.80125 -0.90125,0.80125"
       style="fill:#6d4c41;fill-opacity:1;fill-rule:nonzero;stroke:none"
       id="path7819"
       inkscape:connector-curvature="0" />
    <path
       d="m 348.97671,282.5832 -13.25875,0 0,-1.865 c 0,-0.405 0.32875,-0.73375 0.73375,-0.73375 l 11.7925,0 c 0.40375,0 0.7325,0.32875 0.7325,0.73375 l 0,1.865 z"
       style="fill:#6d4c41;fill-opacity:1;fill-rule:nonzero;stroke:none"
       id="path7823"
       inkscape:connector-curvature="0" />
    <path
       d="m 347.63446,358.44158 -10.57375,0 0,-34.225 10.57375,0 0,34.225 z"
       style="fill:#6d4c41;fill-opacity:1;fill-rule:nonzero;stroke:none"
       id="path7825"
       inkscape:connector-curvature="0" />
    <path
       d="m 150.18883,251.2942 -1.92375,0 c 0,-1.945 -1.58125,-3.52625 -3.52625,-3.52625 -1.945,0 -3.52625,1.58125 -3.52625,3.52625 l -1.92375,0 c 0,-3.005 2.445,-5.45 5.45,-5.45 3.005,0 5.45,2.445 5.45,5.45"
       style="fill:#6d4c41;fill-opacity:1;fill-rule:nonzero;stroke:none"
       id="path7829"
       inkscape:connector-curvature="0" />
    <path
       d="m 147.02445,251.45758 c 0,-1.2625 -1.02375,-2.28625 -2.28625,-2.28625 -1.2625,0 -2.285,1.02375 -2.285,2.28625 l 4.57125,0 z"
       style="fill:#6d4c41;fill-opacity:1;fill-rule:nonzero;stroke:none"
       id="path7833"
       inkscape:connector-curvature="0" />
    <path
       d="m 150.17032,250.80433 -10.86375,0 -2.49625,4.04875 15.85625,0 -2.49625,-4.04875 z"
       style="fill:#6d4c41;fill-opacity:1;fill-rule:nonzero;stroke:none"
       id="path7837"
       inkscape:connector-curvature="0" />
    <path
       d="m 150.14445,281.9337 -5.40625,4.85875 -6.62875,-5.9575 0,1.8175 6.62875,5.9575 6.63,-5.9575 0,-0.17375 c 0,-0.63375 -0.75125,-0.96875 -1.22375,-0.545"
       style="fill:#6d4c41;fill-opacity:1;fill-rule:nonzero;stroke:none"
       id="path7841"
       inkscape:connector-curvature="0" />
    <path
       d="m 147.06945,327.04533 -4.66125,0 0,-51.86125 4.66125,0 0,51.86125 z"
       style="fill:#6d4c41;fill-opacity:1;fill-rule:nonzero;stroke:none"
       id="path7843"
       inkscape:connector-curvature="0" />
    <path
       d="m 148.41195,327.04533 -7.3475,0 0,-8.08 7.3475,0 0,8.08 z"
       style="fill:#6d4c41;fill-opacity:1;fill-rule:nonzero;stroke:none"
       id="path7845"
       inkscape:connector-curvature="0" />
    <path
       d="m 150.17032,275.98996 -10.86375,0 -2.49625,-21.1375 15.85625,0 -2.49625,21.1375 z"
       style="fill:#fdd835;fill-opacity:1;fill-rule:nonzero;stroke:none"
       id="path7849"
       inkscape:connector-curvature="0" />
    <path
       d="m 150.17032,275.98996 -10.86375,0 -2.49625,-15.28375 15.85625,0 -2.49625,15.28375 z"
       style="fill:#f9a825;fill-opacity:1;fill-rule:nonzero;stroke:none"
       id="path7853"
       inkscape:connector-curvature="0" />
    <path
       d="m 140.11432,275.08158 9.24875,0 2.28125,-19.32 -13.81125,0 2.28125,19.32 z m 10.05625,1.81625 -10.86375,0 c -0.46,0 -0.8475,-0.34375 -0.9025,-0.80125 l -2.49625,-21.1375 c -0.03,-0.2575 0.0512,-0.51625 0.22375,-0.71 0.1725,-0.19375 0.42,-0.305 0.67875,-0.305 l 15.855,0 c 0.26,0 0.5075,0.11125 0.68,0.305 0.17125,0.19375 0.2525,0.4525 0.2225,0.71 l -2.49625,21.1375 c -0.0538,0.4575 -0.44125,0.80125 -0.90125,0.80125"
       style="fill:#6d4c41;fill-opacity:1;fill-rule:nonzero;stroke:none"
       id="path7857"
       inkscape:connector-curvature="0" />
    <path
       d="m 151.3677,282.5832 -13.25875,0 0,-1.865 c 0,-0.405 0.32875,-0.73375 0.73375,-0.73375 l 11.79125,0 c 0.405,0 0.73375,0.32875 0.73375,0.73375 l 0,1.865 z"
       style="fill:#6d4c41;fill-opacity:1;fill-rule:nonzero;stroke:none"
       id="path7861"
       inkscape:connector-curvature="0" />
    <path
       d="m 150.0257,358.44158 -10.57375,0 0,-34.225 10.57375,0 0,34.225 z"
       style="fill:#6d4c41;fill-opacity:1;fill-rule:nonzero;stroke:none"
       id="path7863"
       inkscape:connector-curvature="0" />
  </g>
  <g
     inkscape:groupmode="layer" data-dir="right"
     id="layer36"
     inkscape:label="bank"
     style="display:inline"
     sodipodi:insensitive="true">
    <path
       d="m 182.04898,295.31041 0,59.24 38.27625,0 c 0,-8.84875 10.8925,-21.0225 24.33,-21.0225 13.4375,0 24.33,12.17375 24.33,21.0225 l 38.27625,0 0,-59.24 -125.2125,0 z"
       style="fill:#ffa726;fill-opacity:1;fill-rule:nonzero;stroke:none"
       id="path5200"
       inkscape:connector-curvature="0" />
    <path
       d="m 208.68923,309.93378 -16.61625,0 0,7.8075 16.61625,0 0,-7.8075 z"
       style="fill:#ffffff;fill-opacity:1;fill-rule:nonzero;stroke:none"
       id="path5202"
       inkscape:connector-curvature="0" />
    <path
       d="m 297.83048,309.93378 -16.61625,0 0,7.8075 16.61625,0 0,-7.8075 z"
       style="fill:#ffffff;fill-opacity:1;fill-rule:nonzero;stroke:none"
       id="path5204"
       inkscape:connector-curvature="0" />
    <path
       d="m 208.68923,321.86003 -16.61625,0 0,-4.11875 16.61625,0 0,4.11875 z"
       style="fill:#6d4c41;fill-opacity:1;fill-rule:nonzero;stroke:none"
       id="path5206"
       inkscape:connector-curvature="0" />
    <path
       d="m 297.83048,321.86003 -16.61625,0 0,-4.11875 16.61625,0 0,4.11875 z"
       style="fill:#6d4c41;fill-opacity:1;fill-rule:nonzero;stroke:none"
       id="path5208"
       inkscape:connector-curvature="0" />
    <path
       d="m 294.61423,194.49878 -99.91875,0 0,-11.1825 99.91875,0 0,11.1825 z"
       style="fill:#6d4c41;fill-opacity:1;fill-rule:nonzero;stroke:none"
       id="path5210"
       inkscape:connector-curvature="0" />
    <path
       d="m 314.97673,299.21878 -140.6425,0 0,-7.81625 140.6425,0 0,7.81625 z"
       style="fill:#6d4c41;fill-opacity:1;fill-rule:nonzero;stroke:none"
       id="path5212"
       inkscape:connector-curvature="0" />
    <path
       d="m 294.61423,190.35128 -99.91875,0 0,101.05125 99.91875,0 0,-101.05125 z"
       style="fill:#ffa726;fill-opacity:1;fill-rule:nonzero;stroke:none"
       id="path5214"
       inkscape:connector-curvature="0" />
    <path
       d="m 217.97548,212.12753 -12.68375,0 0,-13.07625 12.68375,0 0,13.07625 z"
       style="fill:#ffffff;fill-opacity:1;fill-rule:nonzero;stroke:none"
       id="path5216"
       inkscape:connector-curvature="0" />
    <path
       d="m 219.63298,215.70503 -15.9975,0 0,-3.5775 15.9975,0 0,3.5775 z"
       style="fill:#6d4c41;fill-opacity:1;fill-rule:nonzero;stroke:none"
       id="path5218"
       inkscape:connector-curvature="0" />
    <path
       d="m 239.99048,212.12753 -12.68375,0 0,-13.07625 12.68375,0 0,13.07625 z"
       style="fill:#ffffff;fill-opacity:1;fill-rule:nonzero;stroke:none"
       id="path5220"
       inkscape:connector-curvature="0" />
    <path
       d="m 241.64673,215.70503 -15.9975,0 0,-3.5775 15.9975,0 0,3.5775 z"
       style="fill:#6d4c41;fill-opacity:1;fill-rule:nonzero;stroke:none"
       id="path5222"
       inkscape:connector-curvature="0" />
    <path
       d="m 262.00423,212.12753 -12.68375,0 0,-13.07625 12.68375,0 0,13.07625 z"
       style="fill:#ffffff;fill-opacity:1;fill-rule:nonzero;stroke:none"
       id="path5224"
       inkscape:connector-curvature="0" />
    <path
       d="m 263.66173,215.70503 -15.9975,0 0,-3.5775 15.9975,0 0,3.5775 z"
       style="fill:#6d4c41;fill-opacity:1;fill-rule:nonzero;stroke:none"
       id="path5226"
       inkscape:connector-curvature="0" />
    <path
       d="m 284.01798,212.12753 -12.68375,0 0,-13.07625 12.68375,0 0,13.07625 z"
       style="fill:#ffffff;fill-opacity:1;fill-rule:nonzero;stroke:none"
       id="path5228"
       inkscape:connector-curvature="0" />
    <path
       d="m 285.67548,215.70503 -15.9975,0 0,-3.5775 15.9975,0 0,3.5775 z"
       style="fill:#6d4c41;fill-opacity:1;fill-rule:nonzero;stroke:none"
       id="path5230"
       inkscape:connector-curvature="0" />
    <path
       d="m 217.97548,235.21628 -12.68375,0 0,-13.07625 12.68375,0 0,13.07625 z"
       style="fill:#ffffff;fill-opacity:1;fill-rule:nonzero;stroke:none"
       id="path5232"
       inkscape:connector-curvature="0" />
    <path
       d="m 219.63298,238.79378 -15.9975,0 0,-3.5775 15.9975,0 0,3.5775 z"
       style="fill:#6d4c41;fill-opacity:1;fill-rule:nonzero;stroke:none"
       id="path5234"
       inkscape:connector-curvature="0" />
    <path
       d="m 239.99048,235.21628 -12.68375,0 0,-13.07625 12.68375,0 0,13.07625 z"
       style="fill:#ffffff;fill-opacity:1;fill-rule:nonzero;stroke:none"
       id="path5236"
       inkscape:connector-curvature="0" />
    <path
       d="m 241.64673,238.79378 -15.9975,0 0,-3.5775 15.9975,0 0,3.5775 z"
       style="fill:#6d4c41;fill-opacity:1;fill-rule:nonzero;stroke:none"
       id="path5238"
       inkscape:connector-curvature="0" />
    <path
       d="m 262.00423,235.21628 -12.68375,0 0,-13.07625 12.68375,0 0,13.07625 z"
       style="fill:#ffffff;fill-opacity:1;fill-rule:nonzero;stroke:none"
       id="path5240"
       inkscape:connector-curvature="0" />
    <path
       d="m 263.66173,238.79378 -15.9975,0 0,-3.5775 15.9975,0 0,3.5775 z"
       style="fill:#6d4c41;fill-opacity:1;fill-rule:nonzero;stroke:none"
       id="path5242"
       inkscape:connector-curvature="0" />
    <path
       d="m 284.01798,235.21628 -12.68375,0 0,-13.07625 12.68375,0 0,13.07625 z"
       style="fill:#ffffff;fill-opacity:1;fill-rule:nonzero;stroke:none"
       id="path5244"
       inkscape:connector-curvature="0" />
    <path
       d="m 285.67548,238.79378 -15.9975,0 0,-3.5775 15.9975,0 0,3.5775 z"
       style="fill:#6d4c41;fill-opacity:1;fill-rule:nonzero;stroke:none"
       id="path5246"
       inkscape:connector-curvature="0" />
    <path
       d="m 217.97548,258.30503 -12.68375,0 0,-13.07625 12.68375,0 0,13.07625 z"
       style="fill:#ffffff;fill-opacity:1;fill-rule:nonzero;stroke:none"
       id="path5248"
       inkscape:connector-curvature="0" />
    <path
       d="m 219.63298,261.88253 -15.9975,0 0,-3.5775 15.9975,0 0,3.5775 z"
       style="fill:#6d4c41;fill-opacity:1;fill-rule:nonzero;stroke:none"
       id="path5250"
       inkscape:connector-curvature="0" />
    <path
       d="m 239.99048,258.30503 -12.68375,0 0,-13.07625 12.68375,0 0,13.07625 z"
       style="fill:#ffffff;fill-opacity:1;fill-rule:nonzero;stroke:none"
       id="path5252"
       inkscape:connector-curvature="0" />
    <path
       d="m 241.64673,261.88253 -15.9975,0 0,-3.5775 15.9975,0 0,3.5775 z"
       style="fill:#6d4c41;fill-opacity:1;fill-rule:nonzero;stroke:none"
       id="path5254"
       inkscape:connector-curvature="0" />
    <path
       d="m 262.00423,258.30503 -12.68375,0 0,-13.07625 12.68375,0 0,13.07625 z"
       style="fill:#ffffff;fill-opacity:1;fill-rule:nonzero;stroke:none"
       id="path5256"
       inkscape:connector-curvature="0" />
    <path
       d="m 263.66173,261.88253 -15.9975,0 0,-3.5775 15.9975,0 0,3.5775 z"
       style="fill:#6d4c41;fill-opacity:1;fill-rule:nonzero;stroke:none"
       id="path5258"
       inkscape:connector-curvature="0" />
    <path
       d="m 284.01798,258.30503 -12.68375,0 0,-13.07625 12.68375,0 0,13.07625 z"
       style="fill:#ffffff;fill-opacity:1;fill-rule:nonzero;stroke:none"
       id="path5260"
       inkscape:connector-curvature="0" />
    <path
       d="m 285.67548,261.88253 -15.9975,0 0,-3.5775 15.9975,0 0,3.5775 z"
       style="fill:#6d4c41;fill-opacity:1;fill-rule:nonzero;stroke:none"
       id="path5262"
       inkscape:connector-curvature="0" />
    <path
       d="m 217.97548,281.39378 -12.68375,0 0,-13.07625 12.68375,0 0,13.07625 z"
       style="fill:#ffffff;fill-opacity:1;fill-rule:nonzero;stroke:none"
       id="path5264"
       inkscape:connector-curvature="0" />
    <path
       d="m 219.63298,284.97128 -15.9975,0 0,-3.5775 15.9975,0 0,3.5775 z"
       style="fill:#6d4c41;fill-opacity:1;fill-rule:nonzero;stroke:none"
       id="path5266"
       inkscape:connector-curvature="0" />
    <path
       d="m 239.99048,281.39378 -12.68375,0 0,-13.07625 12.68375,0 0,13.07625 z"
       style="fill:#ffffff;fill-opacity:1;fill-rule:nonzero;stroke:none"
       id="path5268"
       inkscape:connector-curvature="0" />
    <path
       d="m 241.64673,284.97128 -15.9975,0 0,-3.5775 15.9975,0 0,3.5775 z"
       style="fill:#6d4c41;fill-opacity:1;fill-rule:nonzero;stroke:none"
       id="path5270"
       inkscape:connector-curvature="0" />
    <path
       d="m 262.00423,281.39378 -12.68375,0 0,-13.07625 12.68375,0 0,13.07625 z"
       style="fill:#ffffff;fill-opacity:1;fill-rule:nonzero;stroke:none"
       id="path5272"
       inkscape:connector-curvature="0" />
    <path
       d="m 263.66173,284.97128 -15.9975,0 0,-3.5775 15.9975,0 0,3.5775 z"
       style="fill:#6d4c41;fill-opacity:1;fill-rule:nonzero;stroke:none"
       id="path5274"
       inkscape:connector-curvature="0" />
    <path
       d="m 284.01798,281.39378 -12.68375,0 0,-13.07625 12.68375,0 0,13.07625 z"
       style="fill:#ffffff;fill-opacity:1;fill-rule:nonzero;stroke:none"
       id="path5276"
       inkscape:connector-curvature="0" />
    <path
       d="m 285.67548,284.97128 -15.9975,0 0,-3.5775 15.9975,0 0,3.5775 z"
       style="fill:#6d4c41;fill-opacity:1;fill-rule:nonzero;stroke:none"
       id="path5278"
       inkscape:connector-curvature="0" />
    <text
       y="320.36203"
       x="220.57999"
       style="font-variant:normal;font-weight:bold;font-stretch:normal;font-size:17.5px;font-family:'Charis SIL';-inkscape-font-specification:CharisSIL-Bold;writing-mode:lr-tb;fill:#ffffff;fill-opacity:1;fill-rule:nonzero;stroke:none"
       id="text5280">
      <tspan
         x="220.57999 231.76248 243.76749 256.78751"
         y="320.36203"
         sodipodi:role="line"
         id="tspan5282">BANK</tspan>
    </text>
  </g>
  <g
     inkscape:groupmode="layer" data-dir="left"
     id="layer37"
     inkscape:label="apartment"
     style="display:inline"
     sodipodi:insensitive="true">
    <path
       d="m 530.02326,355.09722 -92.0825,0 0,-123.04125 92.0825,0 0,123.04125 z"
       style="fill:#8d6e63;fill-opacity:1;fill-rule:nonzero;stroke:none"
       id="path4880"
       inkscape:connector-curvature="0" />
    <path
       d="m 471.04051,253.92547 -8.51875,0 0,-13.4575 c 0,-1.465 1.1875,-2.6525 2.6525,-2.6525 l 3.21375,0 c 1.465,0 2.6525,1.1875 2.6525,2.6525 l 0,13.4575 z"
       style="fill:#ffffff;fill-opacity:1;fill-rule:nonzero;stroke:none"
       id="path4884"
       inkscape:connector-curvature="0" />
    <path
       d="m 482.50788,253.92547 -8.51875,0 0,-13.4575 c 0,-1.465 1.1875,-2.6525 2.6525,-2.6525 l 3.21375,0 c 1.465,0 2.6525,1.1875 2.6525,2.6525 l 0,13.4575 z"
       style="fill:#ffffff;fill-opacity:1;fill-rule:nonzero;stroke:none"
       id="path4888"
       inkscape:connector-curvature="0" />
    <path
       d="m 493.97539,253.92547 -8.51875,0 0,-13.4575 c 0,-1.465 1.1875,-2.6525 2.6525,-2.6525 l 3.21375,0 c 1.465,0 2.6525,1.1875 2.6525,2.6525 l 0,13.4575 z"
       style="fill:#ffffff;fill-opacity:1;fill-rule:nonzero;stroke:none"
       id="path4892"
       inkscape:connector-curvature="0" />
    <path
       d="m 505.44276,253.92547 -8.51875,0 0,-13.4575 c 0,-1.465 1.1875,-2.6525 2.6525,-2.6525 l 3.21375,0 c 1.465,0 2.6525,1.1875 2.6525,2.6525 l 0,13.4575 z"
       style="fill:#ffffff;fill-opacity:1;fill-rule:nonzero;stroke:none"
       id="path4896"
       inkscape:connector-curvature="0" />
    <path
       d="m 516.91076,263.21972 -65.85625,0 0,-3.5875 65.85625,0 0,3.5875 z"
       style="fill:#ffffff;fill-opacity:1;fill-rule:nonzero;stroke:none"
       id="path4898"
       inkscape:connector-curvature="0" />
    <path
       d="m 516.91076,280.34097 -65.85625,0 0,-3.5875 65.85625,0 0,3.5875 z"
       style="fill:#ffffff;fill-opacity:1;fill-rule:nonzero;stroke:none"
       id="path4900"
       inkscape:connector-curvature="0" />
    <path
       d="m 463.81826,305.11597 -12.76375,0 0,-17.95875 12.76375,0 0,17.95875 z"
       style="fill:#ffffff;fill-opacity:1;fill-rule:nonzero;stroke:none"
       id="path4902"
       inkscape:connector-curvature="0" />
    <path
       d="m 481.51576,305.11597 -12.76375,0 0,-17.95875 12.76375,0 0,17.95875 z"
       style="fill:#ffffff;fill-opacity:1;fill-rule:nonzero;stroke:none"
       id="path4904"
       inkscape:connector-curvature="0" />
    <path
       d="m 499.21326,305.11597 -12.76375,0 0,-17.95875 12.76375,0 0,17.95875 z"
       style="fill:#ffffff;fill-opacity:1;fill-rule:nonzero;stroke:none"
       id="path4906"
       inkscape:connector-curvature="0" />
    <path
       d="m 516.91076,305.11597 -12.76375,0 0,-17.95875 12.76375,0 0,17.95875 z"
       style="fill:#ffffff;fill-opacity:1;fill-rule:nonzero;stroke:none"
       id="path4908"
       inkscape:connector-curvature="0" />
    <path
       d="m 463.81826,328.90472 -12.76375,0 0,-17.95875 12.76375,0 0,17.95875 z"
       style="fill:#ffffff;fill-opacity:1;fill-rule:nonzero;stroke:none"
       id="path4910"
       inkscape:connector-curvature="0" />
    <path
       d="m 481.51576,328.90472 -12.76375,0 0,-17.95875 12.76375,0 0,17.95875 z"
       style="fill:#ffffff;fill-opacity:1;fill-rule:nonzero;stroke:none"
       id="path4912"
       inkscape:connector-curvature="0" />
    <path
       d="m 499.21326,328.90472 -12.76375,0 0,-17.95875 12.76375,0 0,17.95875 z"
       style="fill:#ffffff;fill-opacity:1;fill-rule:nonzero;stroke:none"
       id="path4914"
       inkscape:connector-curvature="0" />
    <path
       d="m 516.91076,328.90472 -12.76375,0 0,-17.95875 12.76375,0 0,17.95875 z"
       style="fill:#ffffff;fill-opacity:1;fill-rule:nonzero;stroke:none"
       id="path4916"
       inkscape:connector-curvature="0" />
    <path
       d="m 463.81826,305.11597 -12.76375,0 0,-2.40375 12.76375,0 0,2.40375 z"
       style="fill:#6d4c41;fill-opacity:1;fill-rule:nonzero;stroke:none"
       id="path4918"
       inkscape:connector-curvature="0" />
    <path
       d="m 481.51576,305.11597 -12.76375,0 0,-2.40375 12.76375,0 0,2.40375 z"
       style="fill:#6d4c41;fill-opacity:1;fill-rule:nonzero;stroke:none"
       id="path4920"
       inkscape:connector-curvature="0" />
    <path
       d="m 499.21326,305.11597 -12.76375,0 0,-2.40375 12.76375,0 0,2.40375 z"
       style="fill:#6d4c41;fill-opacity:1;fill-rule:nonzero;stroke:none"
       id="path4922"
       inkscape:connector-curvature="0" />
    <path
       d="m 516.90951,305.11597 -12.76375,0 0,-2.40375 12.76375,0 0,2.40375 z"
       style="fill:#6d4c41;fill-opacity:1;fill-rule:nonzero;stroke:none"
       id="path4924"
       inkscape:connector-curvature="0" />
    <path
       d="m 463.81826,328.90472 -12.76375,0 0,-2.40375 12.76375,0 0,2.40375 z"
       style="fill:#6d4c41;fill-opacity:1;fill-rule:nonzero;stroke:none"
       id="path4926"
       inkscape:connector-curvature="0" />
    <path
       d="m 481.51576,328.90472 -12.76375,0 0,-2.40375 12.76375,0 0,2.40375 z"
       style="fill:#6d4c41;fill-opacity:1;fill-rule:nonzero;stroke:none"
       id="path4928"
       inkscape:connector-curvature="0" />
    <path
       d="m 499.21326,328.90472 -12.76375,0 0,-2.40375 12.76375,0 0,2.40375 z"
       style="fill:#6d4c41;fill-opacity:1;fill-rule:nonzero;stroke:none"
       id="path4930"
       inkscape:connector-curvature="0" />
    <path
       d="m 516.90951,328.90472 -12.76375,0 0,-2.40375 12.76375,0 0,2.40375 z"
       style="fill:#6d4c41;fill-opacity:1;fill-rule:nonzero;stroke:none"
       id="path4932"
       inkscape:connector-curvature="0" />
    <path
       d="m 466.20764,352.84397 -14.94625,0 0,-11.165 c 0,-4.1275 3.34625,-7.47375 7.4725,-7.47375 4.1275,0 7.47375,3.34625 7.47375,7.47375 l 0,11.165 z"
       style="fill:#6d4c41;fill-opacity:1;fill-rule:nonzero;stroke:none"
       id="path4936"
       inkscape:connector-curvature="0" />
    <path
       d="m 530.02326,232.05597 -92.0825,0 0,-10.19375 92.0825,0 0,10.19375 z"
       style="fill:#f9a825;fill-opacity:1;fill-rule:nonzero;stroke:none"
       id="path4938"
       inkscape:connector-curvature="0" />
    <path
       d="m 513.71951,212.12972 -59.47375,0 0,13.375 59.47375,0 0,-13.375 z"
       style="fill:#f9a825;fill-opacity:1;fill-rule:nonzero;stroke:none"
       id="path4940"
       inkscape:connector-curvature="0" />
    <path
       d="m 465.63451,273.72847 -13.79875,0 0,-7.48375 13.79875,0 0,7.48375 z"
       style="fill:#6d4c41;fill-opacity:1;fill-rule:nonzero;stroke:none"
       id="path4942"
       inkscape:connector-curvature="0" />
    <path
       d="m 482.55076,273.72847 -13.79875,0 0,-7.48375 13.79875,0 0,7.48375 z"
       style="fill:#6d4c41;fill-opacity:1;fill-rule:nonzero;stroke:none"
       id="path4944"
       inkscape:connector-curvature="0" />
    <path
       d="m 499.46826,273.72847 -13.79875,0 0,-7.48375 13.79875,0 0,7.48375 z"
       style="fill:#6d4c41;fill-opacity:1;fill-rule:nonzero;stroke:none"
       id="path4946"
       inkscape:connector-curvature="0" />
    <path
       d="m 516.38451,273.72847 -13.79875,0 0,-7.48375 13.79875,0 0,7.48375 z"
       style="fill:#6d4c41;fill-opacity:1;fill-rule:nonzero;stroke:none"
       id="path4948"
       inkscape:connector-curvature="0" />
  </g>
  <g
     inkscape:groupmode="layer" data-dir="left"
     id="layer38"
     inkscape:label="traffic-sign"
     style="display:inline"
     sodipodi:insensitive="true">
    <path
       d="m 565.36351,355.15447 -2.375,0 0,-87.97375 2.375,0 0,87.97375 z"
       style="fill:#a08c53;fill-opacity:1;fill-rule:nonzero;stroke:none"
       id="path5292"
       inkscape:connector-curvature="0" />
    <path
       d="m 568.28476,355.15447 -8.21625,0 0,-4.93 8.21625,0 0,4.93 z"
       style="fill:#a08c53;fill-opacity:1;fill-rule:nonzero;stroke:none"
       id="path5294"
       inkscape:connector-curvature="0" />
    <path
       d="m 584.60276,275.56059 -20.295,0 0,-8.38 20.295,0 3.17,4.19 -3.17,4.19 z"
       style="fill:#a08c53;fill-opacity:1;fill-rule:nonzero;stroke:none"
       id="path5298"
       inkscape:connector-curvature="0" />
    <path
       d="m 543.88064,288.76747 20.295,0 0,-8.38 -20.295,0 -3.17,4.19 3.17,4.19 z"
       style="fill:#a08c53;fill-opacity:1;fill-rule:nonzero;stroke:none"
       id="path5302"
       inkscape:connector-curvature="0" />
    <path
       d="m 543.88064,303.5591 20.295,0 0,-8.38 -20.295,0 -3.17,4.19 3.17,4.19 z"
       style="fill:#a08c53;fill-opacity:1;fill-rule:nonzero;stroke:none"
       id="path5306"
       inkscape:connector-curvature="0" />
  </g>
  <g
     inkscape:groupmode="layer" data-dir="left"
     id="layer25"
     inkscape:label="road"
     style="display:inline"
     sodipodi:insensitive="true">
    <path
       d="m 1.1695078,376.08499 999.9999922,0"
       style="fill:none;stroke:#546e7a;stroke-width:41.25;stroke-linecap:butt;stroke-linejoin:miter;stroke-miterlimit:10;stroke-dasharray:none;stroke-opacity:1"
       id="path8037"
       inkscape:connector-curvature="0" />
    <path
       d="m 1.1695078,376.08499 999.9999922,0"
       style="fill:none;stroke:#ffffff;stroke-width:6.25;stroke-linecap:round;stroke-linejoin:round;stroke-miterlimit:10;stroke-dasharray:20, 27.5;stroke-dashoffset:0;stroke-opacity:1"
       id="path8041"
       inkscape:connector-curvature="0" />
  </g>
  <g
     inkscape:groupmode="layer" data-dir="right"
     id="layer30"
     inkscape:label="car"
     style="display:inline">
    <path
       d="m 656.95151,311.34805 0,30.5475 c 0,10.02 -8.1225,18.1425 -18.1425,18.1425 l -78.31,0 c -3.92625,0 -7.10875,-3.1825 -7.10875,-7.10875 l 0,-11.9675 c 0,-2.1825 1.0025,-4.245 2.72,-5.5925 l 34.65,-27.18625 c 3.2575,-2.555 7.2775,-3.94375 11.41625,-3.94375 l 47.66625,0 c 3.92625,0 7.10875,3.1825 7.10875,7.10875"
       style="display:inline;fill:#e53935;fill-opacity:1;fill-rule:nonzero;stroke:none"
       id="path5326"
       inkscape:connector-curvature="0" />
    <path
       d="m 609.95451,314.3953 -14.5825,0 c -0.715,0 -1.40875,0.24 -1.97125,0.68125 l -9.53875,7.48375 c -2.3875,1.87375 -1.06375,5.70875 1.97125,5.70875 l 24.12125,0 0,-13.87375 z"
       style="display:inline;fill:#ffffff;fill-opacity:1;fill-rule:nonzero;stroke:none"
       id="path5330"
       inkscape:connector-curvature="0" />
    <path
       d="m 637.97851,314.3953 -21.65375,0 0,13.87375 21.65375,0 c 1.76375,0 3.195,-1.43125 3.195,-3.195 l 0,-7.48375 c 0,-1.765 -1.43125,-3.195 -3.195,-3.195"
       style="display:inline;fill:#ffffff;fill-opacity:1;fill-rule:nonzero;stroke:none"
       id="path5334"
       inkscape:connector-curvature="0" />
    <path
       d="m 613.57313,307.40155 0,0 c -1.8125,0 -3.28125,-1.46875 -3.28125,-3.28125 l 0,-3.80375 c 0,-1.81125 1.46875,-3.28125 3.28125,-3.28125 l 0,0 c 1.8125,0 3.28125,1.47 3.28125,3.28125 l 0,3.80375 c 0,1.8125 -1.46875,3.28125 -3.28125,3.28125"
       style="display:inline;fill:#e53935;fill-opacity:1;fill-rule:nonzero;stroke:none"
       id="path5338"
       inkscape:connector-curvature="0" />
    <path
       d="m 553.38976,349.45692 0,3.4725 c 0,3.92625 3.1825,7.10875 7.10875,7.10875 l 78.31125,0 c 7.3175,0 13.60625,-4.34125 16.47625,-10.58125 l -101.89625,0 z"
       style="display:inline;fill:#e57373;fill-opacity:1;fill-rule:nonzero;stroke:none"
       id="path5342"
       inkscape:connector-curvature="0" />
    <path
       d="m 589.67238,356.0673 c 0,6.95375 -5.6375,12.59 -12.59,12.59 -6.95375,0 -12.59125,-5.63625 -12.59125,-12.59 0,-6.95375 5.6375,-12.59 12.59125,-12.59 6.9525,0 12.59,5.63625 12.59,12.59"
       style="display:inline;fill:#ffffff;fill-opacity:1;fill-rule:nonzero;stroke:none"
       id="path5346"
       inkscape:connector-curvature="0" />
    <path
       d="m 583.69238,356.0673 c 0,3.65125 -2.96,6.61 -6.61,6.61 -3.65125,0 -6.61125,-2.95875 -6.61125,-6.61 0,-3.65125 2.96,-6.61 6.61125,-6.61 3.65,0 6.61,2.95875 6.61,6.61"
       style="display:inline;fill:#546e7a;fill-opacity:1;fill-rule:nonzero;stroke:none"
       id="path5350"
       inkscape:connector-curvature="0" />
    <path
       d="m 649.76726,356.0673 c 0,6.95375 -5.6375,12.59 -12.59,12.59 -6.95375,0 -12.59125,-5.63625 -12.59125,-12.59 0,-6.95375 5.6375,-12.59 12.59125,-12.59 6.9525,0 12.59,5.63625 12.59,12.59"
       style="display:inline;fill:#ffffff;fill-opacity:1;fill-rule:nonzero;stroke:none"
       id="path5354"
       inkscape:connector-curvature="0" />
    <path
       d="m 643.78738,356.0673 c 0,3.65125 -2.96,6.61 -6.61,6.61 -3.65125,0 -6.61125,-2.95875 -6.61125,-6.61 0,-3.65125 2.96,-6.61 6.61125,-6.61 3.65,0 6.61,2.95875 6.61,6.61"
       style="display:inline;fill:#546e7a;fill-opacity:1;fill-rule:nonzero;stroke:none"
       id="path5358"
       inkscape:connector-curvature="0" />
  </g>
</svg>
