<?xml version="1.0" encoding="UTF-8" standalone="no"?>
<!-- Created with Inkscape (http://www.inkscape.org/) -->

<svg
   xmlns:dc="http://purl.org/dc/elements/1.1/"
   xmlns:cc="http://creativecommons.org/ns#"
   xmlns:rdf="http://www.w3.org/1999/02/22-rdf-syntax-ns#"
   xmlns:svg="http://www.w3.org/2000/svg"
   xmlns="http://www.w3.org/2000/svg"
   xmlns:sodipodi="http://sodipodi.sourceforge.net/DTD/sodipodi-0.dtd"
   xmlns:inkscape="http://www.inkscape.org/namespaces/inkscape"
   id="svg2"
   version="1.1"
   inkscape:version="0.91 r13725"
   xml:space="preserve"
   width="1000"
   height="1000"
   viewBox="0 0 1000 1000"
   sodipodi:docname="settings-bg.svg"><metadata
     id="metadata8"><rdf:RDF><cc:Work
         rdf:about=""><dc:format>image/svg+xml</dc:format><dc:type
           rdf:resource="http://purl.org/dc/dcmitype/StillImage" /><dc:title></dc:title></cc:Work></rdf:RDF></metadata><defs
     id="defs6"><clipPath
       clipPathUnits="userSpaceOnUse"
       id="clipPath50"><path
         d="M 0,800 800,800 800,0 0,0 0,800 Z"
         id="path52"
         inkscape:connector-curvature="0" /></clipPath><clipPath
       clipPathUnits="userSpaceOnUse"
       id="clipPath136"><path
         d="M 0,800 800,800 800,0 0,0 0,800 Z"
         id="path138"
         inkscape:connector-curvature="0" /></clipPath><clipPath
       clipPathUnits="userSpaceOnUse"
       id="clipPath446"><path
         d="m 242.168,378.494 16.518,0 0,-28.536 -16.518,0 0,28.536 z"
         id="path448"
         inkscape:connector-curvature="0" /></clipPath></defs><sodipodi:namedview
     pagecolor="#ffffff"
     bordercolor="#666666"
     borderopacity="1"
     objecttolerance="10"
     gridtolerance="10"
     guidetolerance="10"
     inkscape:pageopacity="0"
     inkscape:pageshadow="2"
     inkscape:window-width="1366"
     inkscape:window-height="745"
     id="namedview4"
     showgrid="false"
     inkscape:zoom="0.472"
     inkscape:cx="796.56186"
     inkscape:cy="511.24478"
     inkscape:window-x="-8"
     inkscape:window-y="-8"
     inkscape:window-maximized="1"
     inkscape:current-layer="g10" /><g
     id="g10"
     inkscape:groupmode="layer"
     inkscape:label="19383-NSBW7R"
     transform="matrix(1.25,0,0,-1.25,0,1000)"><path
       d="M 0,0 800,0 800,800 0,800 0,0 Z"
       style="fill:#d4fbff;fill-opacity:1;fill-rule:nonzero;stroke:none"
       id="path12"
       inkscape:connector-curvature="0" /><g
       id="g14"
       transform="translate(626.2794,407.8419)"><path
         d="m 0,0 0,78.667 -21.333,25 -22,-25.667 0,-86.667 L 0,-8.667 0,0 Z"
         style="fill:#c3dcdd;fill-opacity:1;fill-rule:nonzero;stroke:none"
         id="path16"
         inkscape:connector-curvature="0" /></g><g
       id="g18"
       transform="translate(669,403.1126)"><path
         d="m 0,0 0,67.007 26.667,14.881 0,10.999 38.486,0 L 65.153,0 0,0 Z"
         style="fill:#c3dcdd;fill-opacity:1;fill-rule:nonzero;stroke:none"
         id="path20"
         inkscape:connector-curvature="0" /></g><g
       id="g22"
       transform="translate(388.3333,394.8433)"><path
         d="m 0,0 0,110.157 -41.18,0 0,-119.475 41.18,0 L 0,0 Z"
         style="fill:#c3dcdd;fill-opacity:1;fill-rule:nonzero;stroke:none"
         id="path24"
         inkscape:connector-curvature="0" /></g><g
       id="g26"
       transform="translate(278.1028,384.6961)"><path
         d="m 0,0 0,70.646 -29.769,0 0,-12.599 -12,0 0,36.035 -29.334,0 0,-36.035 -15.055,-4.531 0,-43.369 L 0,0 Z"
         style="fill:#c3dcdd;fill-opacity:1;fill-rule:nonzero;stroke:none"
         id="path28"
         inkscape:connector-curvature="0" /></g><g
       id="g30"
       transform="translate(160.0993,394.8433)"><path
         d="m 0,0 0,83.935 -44.406,0 0,-37.798 L -87.099,16.021 0,0 Z"
         style="fill:#c3dcdd;fill-opacity:1;fill-rule:nonzero;stroke:none"
         id="path32"
         inkscape:connector-curvature="0" /></g><g
       id="g34"
       transform="translate(61.4613,505)"><path
         d="m 0,0 0,-85.431 -60.461,0 0,59.209 L -40.461,0 0,0 Z"
         style="fill:#c3dcdd;fill-opacity:1;fill-rule:nonzero;stroke:none"
         id="path36"
         inkscape:connector-curvature="0" /></g><g
       id="g38"
       transform="translate(498.9536,391.4236)"><path
         d="m 0,0 0,93.577 -33.968,0 0,-54.206 L -81.297,28.145 -81.297,0 0,0 Z"
         style="fill:#c3dcdd;fill-opacity:1;fill-rule:nonzero;stroke:none"
         id="path40"
         inkscape:connector-curvature="0" /></g><g
       id="g42"
       transform="translate(658.5,440.5)"><path
         d="m 0,0 23.75,-15.75 -7.75,0 0,-20.06 -16,0 -16,0 0,20.06 -7.75,0 L 0,0 Z"
         style="fill:#b3c9c9;fill-opacity:1;fill-rule:nonzero;stroke:none"
         id="path44"
         inkscape:connector-curvature="0" /></g><g
       id="g46"><g
         id="g48"
         clip-path="url(#clipPath50)"><g
           id="g54"
           transform="translate(589.9469,406.7733)"><path
             d="m 0,0 0,52.333 c 0,0 -10.667,0.667 -20.667,-3.333 -10,-4 -13.666,-4 -13.666,-4 l 0,-49.333 L 0,-4.333 0,0 Z"
             style="fill:#b3c9c9;fill-opacity:1;fill-rule:nonzero;stroke:none"
             id="path56"
             inkscape:connector-curvature="0" /></g><path
           d="m 518.962,383.516 -30.089,0 0,54.696 30.089,0 0,-54.696 z"
           style="fill:#b3c9c9;fill-opacity:1;fill-rule:nonzero;stroke:none"
           id="path58"
           inkscape:connector-curvature="0" /><g
           id="g60"
           transform="translate(446.989,394.8433)"><path
             d="m 0,0 0,50.419 -11.322,10.08 -80.595,0 0,-63.919 L 0,0 Z"
             style="fill:#b3c9c9;fill-opacity:1;fill-rule:nonzero;stroke:none"
             id="path62"
             inkscape:connector-curvature="0" /></g><g
           id="g64"
           transform="translate(71.7457,402.3093)"><path
             d="m 0,0 0,16.757 11.333,0 -19.153,25.686 -36.99,0 0,14.944 -28.857,0 0,-57.804 L 0,0 Z"
             style="fill:#b3c9c9;fill-opacity:1;fill-rule:nonzero;stroke:none"
             id="path66"
             inkscape:connector-curvature="0" /></g><g
           id="g68"
           transform="translate(135,399.0599)"><path
             d="m 0,0 0,20.509 126.9,0 0,-12.456 38.433,0 0,-19.109 L 0,-11.056 0,0 Z"
             style="fill:#b3c9c9;fill-opacity:1;fill-rule:nonzero;stroke:none"
             id="path70"
             inkscape:connector-curvature="0" /></g><g
           id="g72"
           transform="translate(726.3333,407.1132)"><path
             d="m 0,0 0,16.757 -11.333,0 19.153,25.686 36.99,0 0,14.944 28.857,0 0,-57.804 L 0,0 Z"
             style="fill:#b3c9c9;fill-opacity:1;fill-rule:nonzero;stroke:none"
             id="path74"
             inkscape:connector-curvature="0" /></g><g
           id="g76"
           transform="translate(260.8735,389.5999)"><path
             d="m 0,0 c 0,0 290.26,20.679 539.127,17.096 l 0,-59.92 L 371.269,-73.261 0,-26.459 0,0 Z"
             style="fill:#e1efaf;fill-opacity:1;fill-rule:nonzero;stroke:none"
             id="path78"
             inkscape:connector-curvature="0" /></g><g
           id="g80"
           transform="translate(0,428.5917)"><path
             d="m 0,0 c 0,0 64,13.541 212,-26.526 148,-40.066 441,-114.153 588,-38.609 l 0,-191.457 -800,0 L 0,0 Z"
             style="fill:#c8dd8e;fill-opacity:1;fill-rule:nonzero;stroke:none"
             id="path82"
             inkscape:connector-curvature="0" /></g><g
           id="g84"
           transform="translate(106.3333,277)"><path
             d="m 0,0 c -0.625,2.856 -3.57,9.042 -5.985,10.677 -4.794,3.248 -6.94,-0.197 -11.346,-1.192 -7.542,-1.702 -9.246,4.433 -16.669,3.864 -7.014,-0.539 -18.257,-6.381 -16.148,7.185 1.346,8.658 16.566,8.27 12.995,17.429 -1.727,4.43 -6.688,3.658 -8.746,7.304 -2.154,3.814 1.07,8.153 -3.4,11.648 -7.884,6.165 -10.578,-2.842 -16.058,-5.616 -8.608,-4.359 -14.752,4.214 -22.466,0.05 -4.639,-2.504 -8.081,-7.378 -10.087,-12.308 -5.286,-12.988 13.835,-25.144 22.398,-32.489 4.596,-3.944 5.368,-8.928 9.304,-12.614 1.353,-1.266 6.161,-2.529 8.068,-3.607 1.411,-0.797 1.974,-2.788 3.587,-3.713 8.273,-4.747 21.7,-5.84 30.869,-4.433 8.057,1.237 26.287,6.326 23.017,15.815"
             style="fill:#81b54b;fill-opacity:1;fill-rule:nonzero;stroke:none"
             id="path86"
             inkscape:connector-curvature="0" /></g><g
           id="g88"
           transform="translate(183.6667,265)"><path
             d="m 0,0 c -3.585,5.993 -7.462,11.508 -15.297,12.699 -8.156,1.239 -15.707,-4.804 -23.938,-3.984 0.217,9.338 -8.502,7.993 -14.911,8.47 -4.531,0.337 -4.481,0.483 -8.521,2.948 -3.187,1.944 -5.334,4.97 -9.997,4.566 -8.121,-0.704 -9.928,-10.005 -15.95,-14.181 -3.594,-2.491 -11.836,-5.717 -14.751,-0.55 -1.275,2.258 1.624,6.11 0.73,8.733 -1.225,3.599 -4.493,4.229 -7.315,5.432 -2.757,1.175 -8.844,2.062 -10.648,4.682 -2.048,2.974 0.725,7.093 0.763,9.836 0.072,5.204 0.044,6.309 -5.283,9.347 -5.11,2.913 -13.003,3.969 -18.698,2.669 -5.45,-1.244 -13.729,-7.564 -17.031,1.187 -2.905,7.699 3.26,14.049 -5.304,20.63 -3.217,2.472 -14.541,8.205 -16.516,6.183 l 0,-118.683 L 0,0 Z"
             style="fill:#87c447;fill-opacity:1;fill-rule:nonzero;stroke:none"
             id="path90"
             inkscape:connector-curvature="0" /></g><g
           id="g92"
           transform="translate(669,262.3333)"><path
             d="m 0,0 c 6.518,0.272 8.626,10.727 14.963,10.677 6.533,-0.051 1.098,-7.038 7.833,-8.69 5.092,-1.25 10.355,2.41 8.548,6.531 -1.69,3.855 -11.091,7.187 -3.516,12.31 3.325,2.249 14.21,0.518 17.649,-1.445 5.269,-3.007 6.839,-9.094 13.837,-10.063 2.574,-0.356 8.949,-0.047 9.458,3.297 0.476,3.12 -5.258,5.602 -5.436,9.368 -0.472,9.937 9.827,6.491 14.643,2.557 4.774,4.108 4.637,12.447 9.327,16.508 1.742,1.509 7.223,3.299 9.389,2.294 4.069,-1.887 0.897,-3.341 3.307,-6.727 3.618,-5.083 11.105,-3.186 15.159,-10.656 3.811,-7.021 2.21,-17.907 -3.348,-23.508 C 99.465,-9.989 81.265,-4.626 65.157,-4.669 54.571,-4.697 44.174,-5.332 33.599,-5.333 24.045,-5.334 7.505,-3.586 0.667,0.667"
             style="fill:#81b54b;fill-opacity:1;fill-rule:nonzero;stroke:none"
             id="path94"
             inkscape:connector-curvature="0" /></g><g
           id="g96"
           transform="translate(652.6667,261.6667)"><path
             d="m 0,0 c 3.758,4.013 11.189,9.886 17.151,8.568 2.971,-0.657 4.294,-4.513 6.701,-5.285 3.381,-1.083 5.954,1.1 9.461,1.248 5.786,0.245 11.823,-6.215 14.7,0.938 1.545,3.84 -2.276,7.604 -1.228,11.198 1.204,4.127 6.335,8.122 10.402,9.217 9.512,2.559 5.998,-8.765 14.895,-10.583 4.128,-0.843 7.719,1.978 11.633,1.796 6.268,-0.29 8.134,-5.803 12.886,-7.112 11.198,-3.087 6.48,7.186 7.319,11.983 1.625,9.288 13.44,9.464 20.611,9.416 3.498,6.97 4.944,12.136 12.85,14.648 2.73,0.868 8.474,1.495 9.952,1.301 l 0,-85.965 L 0,0 Z"
             style="fill:#87c447;fill-opacity:1;fill-rule:nonzero;stroke:none"
             id="path98"
             inkscape:connector-curvature="0" /></g><g
           id="g100"
           transform="translate(-1.921,232.5266)"><path
             d="m 0,0 c 0,0 392.901,115.527 801.921,0 l 0,-232.527 L 0,-232.527 0,0 Z"
             style="fill:#9dc34a;fill-opacity:1;fill-rule:nonzero;stroke:none"
             id="path102"
             inkscape:connector-curvature="0" /></g><g
           id="g104"
           transform="translate(90.0087,715.8146)"><path
             d="M 0,0 11,-13.498 20.667,0.415 10.333,-6.004 0,0 Z"
             style="fill:#c3dcdd;fill-opacity:1;fill-rule:nonzero;stroke:none"
             id="path106"
             inkscape:connector-curvature="0" /></g><g
           id="g108"
           transform="translate(145.8202,701.7432)"><path
             d="M 0,0 15.217,-18.672 28.589,0.573 14.295,-8.305 0,0 Z"
             style="fill:#b3c9c9;fill-opacity:1;fill-rule:nonzero;stroke:none"
             id="path110"
             inkscape:connector-curvature="0" /></g><g
           id="g112"
           transform="translate(669,741.313)"><path
             d="M 0,0 11,-13.498 20.667,0.415 10.333,-6.004 0,0 Z"
             style="fill:#c3dcdd;fill-opacity:1;fill-rule:nonzero;stroke:none"
             id="path114"
             inkscape:connector-curvature="0" /></g><g
           id="g116"
           transform="translate(371.2096,692.2791)"><path
             d="M 0,0 11,-13.498 20.667,0.414 10.333,-6.004 0,0 Z"
             style="fill:#c3dcdd;fill-opacity:1;fill-rule:nonzero;stroke:none"
             id="path118"
             inkscape:connector-curvature="0" /></g><g
           id="g120"
           transform="translate(433.8323,668.5847)"><path
             d="M 0,0 15.217,-18.672 28.589,0.573 14.295,-8.305 0,0 Z"
             style="fill:#b3c9c9;fill-opacity:1;fill-rule:nonzero;stroke:none"
             id="path122"
             inkscape:connector-curvature="0" /></g><g
           id="g124"
           transform="translate(465.3403,748.2693)"><path
             d="M 0,0 11,-13.498 20.667,0.414 10.333,-6.004 0,0 Z"
             style="fill:#b3c9c9;fill-opacity:1;fill-rule:nonzero;stroke:none"
             id="path126"
             inkscape:connector-curvature="0" /></g><g
           id="g128"
           transform="translate(394.26,165.9986)"><path
             d="m 0,0 167.922,0 -34.7,38.851 -133.222,0 2.028,0 -133.222,0 L -165.893,0 2.028,0"
             style="fill:#8da842;fill-opacity:1;fill-rule:nonzero;stroke:none"
             id="path130"
             inkscape:connector-curvature="0" /></g></g></g><g
       id="g132"><g
         id="g134"
         clip-path="url(#clipPath136)"><g
           id="g140"
           transform="translate(28.3333,0)"><path
             d="M 0,0 C 0,0 2.605,102.333 54.636,115 54.636,115 8.667,105.667 16,0 L 0,0 Z"
             style="fill:#87aa39;fill-opacity:1;fill-rule:nonzero;stroke:none"
             id="path142"
             inkscape:connector-curvature="0" /></g><g
           id="g144"
           transform="translate(150.3733,0)"><path
             d="m 0,0 c 0,0 -2.707,53.667 -25.373,57.667 0,0 35.333,-18.667 -16,-57.667 L 0,0 Z"
             style="fill:#87aa39;fill-opacity:1;fill-rule:nonzero;stroke:none"
             id="path146"
             inkscape:connector-curvature="0" /></g><g
           id="g148"
           transform="translate(83,0)"><path
             d="M 0,0 C 0,0 -3.333,87 59.333,125 59.333,125 14,87 26,0 L 0,0 Z"
             style="fill:#6b9620;fill-opacity:1;fill-rule:nonzero;stroke:none"
             id="path150"
             inkscape:connector-curvature="0" /></g><g
           id="g152"
           transform="translate(89.6667,0)"><path
             d="m 0,0 c 0,0 16.667,110.872 -45.333,141.936 0,0 62.037,-38.269 23.685,-141.936 L 0,0 Z"
             style="fill:#6b9620;fill-opacity:1;fill-rule:nonzero;stroke:none"
             id="path154"
             inkscape:connector-curvature="0" /></g><g
           id="g156"
           transform="translate(0.0263,0)"><path
             d="m 0,0 c 0,0 -2.845,74.244 50.634,106.672 0,0 -38.687,-32.428 -28.446,-106.672 L 0,0 Z"
             style="fill:#6b9620;fill-opacity:1;fill-rule:nonzero;stroke:none"
             id="path158"
             inkscape:connector-curvature="0" /></g><g
           id="g160"
           transform="translate(60.3333,0)"><path
             d="m 0,0 c 0,0 5.438,34.929 -16,57.667 0,0 17.333,-46 -8,-57.667 L 0,0 Z"
             style="fill:#6b9620;fill-opacity:1;fill-rule:nonzero;stroke:none"
             id="path162"
             inkscape:connector-curvature="0" /></g><g
           id="g164"
           transform="translate(135,0)"><path
             d="m 0,0 c 0,0 32,23.667 13.333,87 0,0 26.667,-47.333 14,-87 L 0,0 Z"
             style="fill:#6b9620;fill-opacity:1;fill-rule:nonzero;stroke:none"
             id="path166"
             inkscape:connector-curvature="0" /></g><g
           id="g168"
           transform="translate(185,0)"><path
             d="M 0,0 C 0,0 12.5,71.5 -6,102 -6,102 19.5,71.5 16.5,0 L 0,0 Z"
             style="fill:#6b9620;fill-opacity:1;fill-rule:nonzero;stroke:none"
             id="path170"
             inkscape:connector-curvature="0" /></g><g
           id="g172"
           transform="translate(197.5,0)"><path
             d="M 0,0 C 0,0 10.8,81 64.4,82 64.4,82 18,82.5 9.5,0 L 0,0 Z"
             style="fill:#6b9620;fill-opacity:1;fill-rule:nonzero;stroke:none"
             id="path174"
             inkscape:connector-curvature="0" /></g><g
           id="g176"
           transform="translate(267,0)"><path
             d="m 0,0 c 0,0 4.5,28 -16.5,39 0,0 21.5,-11.5 6,-39 L 0,0 Z"
             style="fill:#6b9620;fill-opacity:1;fill-rule:nonzero;stroke:none"
             id="path178"
             inkscape:connector-curvature="0" /></g><g
           id="g180"
           transform="translate(574.1755,0)"><path
             d="m 0,0 c 0,0 8.89,75 -30.143,82 0,0 38.904,1.667 49.269,-82 L 0,0 Z"
             style="fill:#87aa39;fill-opacity:1;fill-rule:nonzero;stroke:none"
             id="path182"
             inkscape:connector-curvature="0" /></g><g
           id="g184"
           transform="translate(665,0)"><path
             d="m 0,0 c 0,0 -37.347,55 -15.674,96.333 0,0 -20.326,-54 36.341,-96.333 L 0,0 Z"
             style="fill:#87aa39;fill-opacity:1;fill-rule:nonzero;stroke:none"
             id="path186"
             inkscape:connector-curvature="0" /></g><g
           id="g188"
           transform="translate(800,0)"><path
             d="m 0,0 c 0,0 -4.333,83 -59,99.667 0,0 42.667,-12 42,-88 0,0 -40,7.333 -48.667,46 0,0 -2,-42.667 7.334,-57.667 L 0,0 Z"
             style="fill:#6b9620;fill-opacity:1;fill-rule:nonzero;stroke:none"
             id="path190"
             inkscape:connector-curvature="0" /></g><g
           id="g192"
           transform="translate(644.3333,0)"><path
             d="M 0,0 C 0,0 37.333,33 31.333,82 31.333,82 38,35 -22,0 L 0,0 Z"
             style="fill:#6b9620;fill-opacity:1;fill-rule:nonzero;stroke:none"
             id="path194"
             inkscape:connector-curvature="0" /></g><g
           id="g196"
           transform="translate(613,0)"><path
             d="M 0,0 C 0,0 -24.667,61.667 0,96.333 0,96.333 -19.703,81 -26.851,0 L 0,0 Z"
             style="fill:#6b9620;fill-opacity:1;fill-rule:nonzero;stroke:none"
             id="path198"
             inkscape:connector-curvature="0" /></g><g
           id="g200"
           transform="translate(539,0)"><path
             d="m 0,0 c 0,0 -9.333,24.667 15.333,48.167 0,0 -16.666,-20.5 0,-48.167 L 0,0 Z"
             style="fill:#6b9620;fill-opacity:1;fill-rule:nonzero;stroke:none"
             id="path202"
             inkscape:connector-curvature="0" /></g><g
           id="g204"
           transform="translate(720.3333,0)"><path
             d="m 0,0 c 0,0 10,83.667 -17.333,108.333 0,0 29.333,-32 -7.334,-108.333 L 0,0 Z"
             style="fill:#6b9620;fill-opacity:1;fill-rule:nonzero;stroke:none"
             id="path206"
             inkscape:connector-curvature="0" /></g><g
           id="g208"
           transform="translate(175.9299,149.818)"><path
             d="m 0,0 c 1.052,-3.694 -0.554,-10.281 4.42,-11.76 4.459,-1.325 5.696,3.441 8.293,6.058 2.004,-11.244 18.823,-3.016 9.019,6.309 2.458,-1.459 7.386,-5.453 10.864,-3.381 4.411,2.629 0.022,7.763 -3.159,10.005 4.582,-1.441 10.785,0.373 7.174,6.175 -2.329,3.742 -10.549,4.107 -14.354,3.703 8.17,1.564 -4.856,19.366 -10.658,3.796 1.709,9.972 -18.532,10.198 -9.598,-0.524 -4.225,0.744 -9.347,4.505 -13.584,2.275 -7.141,-3.758 0.767,-7.731 5.26,-8.297 C -18.431,14.753 -19.4,1.748 -6.766,3.314 c -4.972,0.22 -6.198,-6.863 -2.499,-8.968 4.256,-2.424 9.87,1.53 10.37,5.654"
             style="fill:#f9fcf0;fill-opacity:1;fill-rule:nonzero;stroke:none"
             id="path210"
             inkscape:connector-curvature="0" /></g><g
           id="g212"
           transform="translate(195.528,158.333)"><path
             d="m 0,0 c -0.624,-3.141 -5.01,-4.917 -9.797,-3.966 -4.786,0.951 -8.16,4.268 -7.537,7.409 0.624,3.141 5.011,4.917 9.797,3.966 C -2.75,6.458 0.624,3.141 0,0"
             style="fill:#eaea44;fill-opacity:1;fill-rule:nonzero;stroke:none"
             id="path214"
             inkscape:connector-curvature="0" /></g><g
           id="g216"
           transform="translate(92.6478,181.8299)"><path
             d="m 0,0 c 0.643,-2.259 -0.339,-6.286 2.702,-7.19 2.726,-0.81 3.483,2.104 5.07,3.704 1.226,-6.875 11.509,-1.844 5.514,3.857 1.503,-0.892 4.516,-3.334 6.643,-2.067 2.697,1.607 0.013,4.746 -1.932,6.117 2.802,-0.881 6.594,0.228 4.387,3.775 -1.424,2.288 -6.45,2.511 -8.776,2.264 4.994,0.957 -2.969,11.84 -6.516,2.321 1.045,6.097 -11.331,6.235 -5.869,-0.32 -2.583,0.455 -5.715,2.754 -8.305,1.391 -4.366,-2.298 0.469,-4.727 3.216,-5.073 -7.403,0.241 -7.995,-7.71 -0.27,-6.753 -3.04,0.135 -3.79,-4.196 -1.529,-5.483 2.603,-1.482 6.035,0.935 6.34,3.457"
             style="fill:#f9fcf0;fill-opacity:1;fill-rule:nonzero;stroke:none"
             id="path218"
             inkscape:connector-curvature="0" /></g><g
           id="g220"
           transform="translate(104.6299,187.0359)"><path
             d="m 0,0 c -0.381,-1.92 -3.063,-3.006 -5.99,-2.425 -2.926,0.582 -4.989,2.61 -4.608,4.53 0.382,1.921 3.064,3.006 5.99,2.425 C -1.682,3.949 0.382,1.92 0,0"
             style="fill:#eaea44;fill-opacity:1;fill-rule:nonzero;stroke:none"
             id="path222"
             inkscape:connector-curvature="0" /></g><g
           id="g224"
           transform="translate(479.4352,136.9176)"><path
             d="m 0,0 c -0.643,-2.259 0.339,-6.286 -2.702,-7.19 -2.726,-0.81 -3.483,2.104 -5.07,3.704 -1.226,-6.875 -11.509,-1.844 -5.514,3.857 -1.503,-0.892 -4.516,-3.334 -6.643,-2.067 -2.697,1.607 -0.013,4.746 1.932,6.117 -2.802,-0.881 -6.594,0.228 -4.387,3.775 1.424,2.288 6.45,2.511 8.776,2.264 -4.994,0.957 2.969,11.84 6.516,2.321 -1.045,6.097 11.331,6.235 5.869,-0.32 2.583,0.455 5.715,2.754 8.305,1.391 C 11.448,11.554 6.613,9.125 3.866,8.779 11.269,9.02 11.861,1.069 4.136,2.026 7.176,2.161 7.926,-2.17 5.665,-3.457 3.062,-4.939 -0.37,-2.522 -0.675,0"
             style="fill:#f9fcf0;fill-opacity:1;fill-rule:nonzero;stroke:none"
             id="path226"
             inkscape:connector-curvature="0" /></g><g
           id="g228"
           transform="translate(467.4531,142.1236)"><path
             d="m 0,0 c 0.382,-1.92 3.063,-3.006 5.99,-2.425 2.926,0.582 4.989,2.61 4.608,4.53 C 10.216,4.026 7.534,5.111 4.608,4.53 1.682,3.949 -0.382,1.92 0,0"
             style="fill:#eaea44;fill-opacity:1;fill-rule:nonzero;stroke:none"
             id="path230"
             inkscape:connector-curvature="0" /></g><g
           id="g232"
           transform="translate(770.7354,209.8494)"><path
             d="m 0,0 c -0.95,-1.612 -1.004,-4.914 -3.53,-4.998 -2.265,-0.076 -2.261,2.322 -3.163,3.875 -2.328,-5.053 -9.243,0.895 -3.474,4.084 -1.338,-0.386 -4.152,-1.662 -5.537,-0.257 -1.755,1.782 0.945,3.661 2.721,4.327 -2.337,-0.116 -5.037,1.503 -2.622,3.793 1.559,1.477 5.477,0.637 7.221,-0.021 -3.658,1.742 4.672,8.529 5.49,0.477 0.422,4.91 9.989,2.526 4.459,-1.428 2.083,-0.169 4.96,0.973 6.682,-0.6 C 11.15,6.602 6.934,5.703 4.747,5.989 10.502,4.685 9.359,-1.564 3.596,0.729 5.967,0.221 5.673,-3.268 3.671,-3.805 1.367,-4.424 -0.792,-1.869 -0.521,0.136"
             style="fill:#f9fcf0;fill-opacity:1;fill-rule:nonzero;stroke:none"
             id="path234"
             inkscape:connector-curvature="0" /></g><g
           id="g236"
           transform="translate(762.5468,216.2744)"><path
             d="M 0,0 C -0.093,-1.557 1.756,-2.934 4.129,-3.075 6.502,-3.216 8.5,-2.068 8.593,-0.51 8.685,1.047 6.837,2.423 4.464,2.564 2.091,2.705 0.092,1.557 0,0"
             style="fill:#eaea44;fill-opacity:1;fill-rule:nonzero;stroke:none"
             id="path238"
             inkscape:connector-curvature="0" /></g><g
           id="g240"
           transform="translate(61.4613,356.5889)"><path
             d="m 0,0 c 0,0 59.5,2.5 73.5,0 14,-2.5 74.5,-13 61,-16 -13.5,-3 -17.5,-1 -22,-3.5 -4.5,-2.5 -12,2 -21.5,4 -9.5,2 -11.5,-7.474 -17,-4.737 C 68.5,-17.5 50,-10.626 40.5,-9.813 31,-9 0,0 0,0"
             style="fill:#adbc6f;fill-opacity:1;fill-rule:nonzero;stroke:none"
             id="path242"
             inkscape:connector-curvature="0" /></g><g
           id="g244"
           transform="translate(86.1795,547.6669)"><path
             d="m 0,0 c -5.68,-0.506 -21.323,2.927 -17.617,-8.581 -9.109,-6.099 -20.323,-4.669 -16.2,-19.086 1.705,-5.963 5.939,-10.404 6.518,-16.452 0.393,-4.098 -1.011,-9.523 -1.535,-13.579 -0.739,-5.721 0.19,-9.752 0.163,-15.39 -0.053,-10.742 -4.563,-24.346 11.975,-23.611 12.355,0.55 13.526,13.85 24.545,15.945 7.251,-7.069 7.739,-3.27 16.151,0.772 7.586,3.645 11.456,2.517 16.684,-4.018 14.162,-17.701 42.877,3.435 53.181,18 6.482,9.163 4.565,12.391 2.267,21.264 -1.695,6.542 2.705,13.511 0.048,19.551 -3.357,7.634 -15.319,8.568 -22.722,11.024 -16.105,5.341 -32.152,12.678 -49.425,12.828 -6.285,0.054 -18.347,-2.721 -22.7,2"
             style="fill:#81b54b;fill-opacity:1;fill-rule:nonzero;stroke:none"
             id="path246"
             inkscape:connector-curvature="0" /></g><g
           id="g248"
           transform="translate(114.8462,347.667)"><path
             d="m 0,0 23.333,0 -8,137.333 -9.333,0 0.667,-38 L -50,126.667 -24,110 c 0,0 -32.667,-6.667 -44,4 0,0 12.477,-13.189 48.667,-8 L 6.667,93.333 0,0 Z"
             style="fill:#9d8779;fill-opacity:1;fill-rule:nonzero;stroke:none"
             id="path250"
             inkscape:connector-curvature="0" /></g><g
           id="g252"
           transform="translate(139.5128,479.667)"><path
             d="m 0,0 c -4.93,-11.274 -22.231,3.598 -28,4.015 -3.951,0.286 -9.025,-3.511 -12.665,-5.166 -5.552,-2.522 -8.86,-2.628 -15.234,-2.95 0.758,-4.628 -5.808,-11.641 -9.533,-14.047 -3.84,-2.481 -7.483,-1.796 -11.817,-2.532 -4.287,-0.727 -3.135,-0.02 -7.45,-2.688 -6.502,-4.02 -12.23,-7.064 -19.264,-1.978 -9.652,6.977 -6.042,14 -1.922,22.529 2.301,4.763 2.869,0.336 1.75,5.954 -1.012,5.076 -5.127,8.414 -3.913,14.75 1.961,10.234 10.528,11.046 17.4,15.965 5.927,4.242 3.378,10.171 10.48,14.499 8.79,5.357 13.779,0.947 22.732,1.754 0.415,9.826 -5.8,19.639 2.087,28.559 3.075,3.478 6.902,4.967 8.714,9.338 2.42,5.833 0.031,7.909 5.691,12.679 3.772,3.179 8.487,6.066 13.593,5.983 4.977,-0.081 5.436,-2.992 9.168,-4.159 8.817,-2.755 17.823,6.455 28.216,1.674 10.247,-4.713 14.509,-19.462 11.832,-30.213 -1.132,-4.545 -3.975,-3.252 -1.928,-8.503 1.918,-4.923 9.8,-10.313 12.695,-15.764 3.814,-7.18 5.627,-13.539 4.733,-21.767 -0.538,-4.96 -2.056,-6.308 0.723,-10.586 3.535,-5.443 10.787,-7.151 13.11,-14.335 1.981,-6.125 1.905,-16.204 -2.667,-21.074 -3.396,-3.618 -9.457,-4.774 -13.777,-6.723 C 39.798,-35.189 24.098,-38.37 16.453,-38.664 8.028,-38.989 1.592,-35.805 -2.499,-28.518 -4.831,-24.366 -7.974,-16.598 -6.032,-12 -3.81,-6.736 2.735,-6.017 1.233,1.23 0.043,1.7 -0.358,1.122 -1.333,0.667"
             style="fill:#8cc658;fill-opacity:1;fill-rule:nonzero;stroke:none"
             id="path254"
             inkscape:connector-curvature="0" /></g><g
           id="g256"
           transform="translate(284.4312,32.4344)"><path
             d="m 0,0 c 0,-0.703 0.109,-1.301 0.328,-1.795 0.218,-0.494 0.517,-0.866 0.897,-1.115 0.38,-0.251 0.795,-0.377 1.244,-0.377 0.456,0 0.872,0.119 1.25,0.357 0.376,0.237 0.677,0.602 0.902,1.091 C 4.846,-1.348 4.957,-0.733 4.957,0 4.957,0.691 4.846,1.284 4.621,1.782 4.396,2.278 4.092,2.658 3.709,2.922 3.326,3.184 2.906,3.315 2.451,3.315 1.976,3.315 1.552,3.18 1.178,2.911 0.804,2.643 0.515,2.257 0.309,1.753 0.102,1.249 0,0.665 0,0 m 5.101,-3.809 0,0.257 C 4.752,-3.95 4.409,-4.275 4.07,-4.524 3.731,-4.775 3.364,-4.966 2.968,-5.095 2.572,-5.227 2.141,-5.29 1.672,-5.29 c -0.621,0 -1.196,0.131 -1.725,0.394 -0.528,0.262 -0.986,0.638 -1.371,1.126 -0.388,0.487 -0.68,1.059 -0.879,1.718 -0.2,0.659 -0.3,1.371 -0.3,2.137 0,1.621 0.396,2.886 1.188,3.791 C -0.624,4.78 0.418,5.233 1.71,5.233 2.456,5.233 3.087,5.105 3.6,4.85 4.113,4.593 4.613,4.197 5.101,3.667 l 0,3.827 C 5.101,8.026 5.206,8.428 5.419,8.7 5.63,8.973 5.933,9.108 6.326,9.108 6.718,9.108 7.02,8.983 7.232,8.733 7.445,8.482 7.551,8.115 7.551,7.627 l 0,-11.436 c 0,-0.494 -0.114,-0.864 -0.342,-1.111 -0.228,-0.246 -0.522,-0.37 -0.883,-0.37 -0.355,0 -0.648,0.128 -0.879,0.384 -0.231,0.258 -0.346,0.623 -0.346,1.097"
             style="fill:#eff9f8;fill-opacity:1;fill-rule:nonzero;stroke:none"
             id="path258"
             inkscape:connector-curvature="0" /></g><g
           id="g260"
           transform="translate(295.8941,33.2508)"><path
             d="M 0,0 4.702,0 C 4.639,0.887 4.398,1.551 3.984,1.99 3.569,2.431 3.024,2.65 2.346,2.65 1.7,2.65 1.169,2.428 0.755,1.982 0.34,1.535 0.089,0.874 0,0 m 5.071,-1.473 -5.071,0 c 0.006,-0.588 0.125,-1.107 0.356,-1.556 0.231,-0.451 0.539,-0.789 0.921,-1.017 0.384,-0.228 0.806,-0.341 1.268,-0.341 0.31,0 0.594,0.035 0.851,0.108 0.256,0.074 0.504,0.186 0.746,0.343 0.24,0.154 0.462,0.321 0.664,0.498 0.202,0.178 0.465,0.42 0.788,0.723 0.133,0.113 0.323,0.171 0.571,0.171 0.266,0 0.481,-0.074 0.645,-0.22 0.164,-0.146 0.248,-0.35 0.248,-0.617 0,-0.234 -0.093,-0.507 -0.276,-0.821 C 6.597,-4.516 6.32,-4.816 5.951,-5.105 5.579,-5.393 5.115,-5.631 4.554,-5.821 3.994,-6.012 3.35,-6.106 2.621,-6.106 c -1.664,0 -2.96,0.475 -3.884,1.424 -0.925,0.95 -1.387,2.239 -1.387,3.866 0,0.766 0.114,1.477 0.342,2.132 0.228,0.656 0.561,1.217 0.997,1.686 0.437,0.469 0.975,0.827 1.615,1.078 0.639,0.25 1.349,0.374 2.128,0.374 1.012,0 1.881,-0.212 2.606,-0.64 0.726,-0.427 1.269,-0.98 1.629,-1.657 0.36,-0.677 0.542,-1.369 0.542,-2.07 0,-0.653 -0.187,-1.075 -0.56,-1.27 -0.373,-0.192 -0.899,-0.29 -1.578,-0.29"
             style="fill:#eff9f8;fill-opacity:1;fill-rule:nonzero;stroke:none"
             id="path262"
             inkscape:connector-curvature="0" /></g><g
           id="g264"
           transform="translate(312.7803,30.536)"><path
             d="m 0,0 c 0,-0.716 -0.173,-1.329 -0.522,-1.839 -0.348,-0.51 -0.863,-0.896 -1.544,-1.159 -0.68,-0.263 -1.508,-0.394 -2.483,-0.394 -0.931,0 -1.729,0.143 -2.394,0.428 -0.664,0.284 -1.156,0.642 -1.472,1.068 -0.317,0.428 -0.475,0.856 -0.475,1.288 0,0.285 0.101,0.528 0.304,0.73 0.203,0.202 0.46,0.304 0.77,0.304 0.272,0 0.48,-0.067 0.626,-0.199 0.146,-0.133 0.286,-0.321 0.418,-0.56 0.266,-0.464 0.585,-0.807 0.955,-1.036 0.37,-0.228 0.875,-0.342 1.515,-0.342 0.519,0 0.945,0.116 1.278,0.347 0.332,0.232 0.498,0.496 0.498,0.794 0,0.456 -0.172,0.787 -0.518,0.996 -0.345,0.209 -0.913,0.409 -1.705,0.599 -0.893,0.221 -1.619,0.454 -2.18,0.699 -0.56,0.242 -1.008,0.564 -1.343,0.962 -0.336,0.4 -0.504,0.891 -0.504,1.473 0,0.519 0.155,1.01 0.465,1.473 0.311,0.461 0.768,0.83 1.374,1.105 0.604,0.277 1.333,0.414 2.188,0.414 0.671,0 1.275,-0.069 1.809,-0.21 0.536,-0.137 0.983,-0.326 1.34,-0.56 0.358,-0.234 0.63,-0.493 0.816,-0.777 0.187,-0.286 0.28,-0.564 0.28,-0.837 0,-0.297 -0.099,-0.541 -0.298,-0.732 C -1.001,3.847 -1.285,3.75 -1.653,3.75 c -0.266,0 -0.492,0.076 -0.679,0.229 -0.186,0.152 -0.4,0.379 -0.641,0.683 -0.196,0.253 -0.426,0.456 -0.692,0.608 -0.267,0.153 -0.628,0.228 -1.084,0.228 -0.469,0 -0.858,-0.099 -1.168,-0.3 C -6.227,5 -6.382,4.752 -6.382,4.454 c 0,-0.273 0.113,-0.496 0.341,-0.67 C -5.812,3.609 -5.506,3.465 -5.119,3.352 -4.732,3.238 -4.202,3.1 -3.523,2.935 -2.72,2.737 -2.063,2.503 -1.553,2.231 -1.043,1.96 -0.657,1.638 -0.393,1.267 -0.131,0.896 0,0.475 0,0"
             style="fill:#eff9f8;fill-opacity:1;fill-rule:nonzero;stroke:none"
             id="path266"
             inkscape:connector-curvature="0" /></g><g
           id="g268"
           transform="translate(316.7119,36.2147)"><path
             d="m 0,0 0,-7.493 c 0,-0.52 -0.124,-0.913 -0.371,-1.179 -0.247,-0.266 -0.56,-0.398 -0.94,-0.398 -0.38,0 -0.689,0.135 -0.926,0.408 -0.238,0.272 -0.356,0.662 -0.356,1.169 l 0,7.418 c 0,0.512 0.118,0.898 0.356,1.158 0.237,0.26 0.546,0.39 0.926,0.39 0.38,0 0.693,-0.13 0.94,-0.39 C -0.124,0.823 0,0.462 0,0 m -1.283,2.678 c -0.36,0 -0.669,0.111 -0.925,0.333 -0.257,0.22 -0.385,0.534 -0.385,0.94 0,0.368 0.131,0.669 0.394,0.907 0.262,0.239 0.569,0.357 0.916,0.357 0.336,0 0.634,-0.108 0.893,-0.323 C -0.13,4.676 0,4.363 0,3.951 0,3.552 -0.127,3.24 -0.381,3.016 -0.634,2.791 -0.935,2.678 -1.283,2.678"
             style="fill:#eff9f8;fill-opacity:1;fill-rule:nonzero;stroke:none"
             id="path270"
             inkscape:connector-curvature="0" /></g><g
           id="g272"
           transform="translate(320.5576,32.5008)"><path
             d="m 0,0 c 0,-1.051 0.229,-1.846 0.688,-2.384 0.459,-0.539 1.053,-0.807 1.781,-0.807 0.43,0 0.837,0.116 1.22,0.346 0.384,0.232 0.695,0.58 0.936,1.045 0.24,0.466 0.361,1.03 0.361,1.696 0,1.056 -0.232,1.88 -0.698,2.468 C 3.822,2.953 3.21,3.248 2.45,3.248 1.708,3.248 1.115,2.966 0.669,2.402 0.223,1.84 0,1.038 0,0 m 7.513,3.286 0,-7.531 C 7.513,-5.106 7.42,-5.848 7.236,-6.469 7.054,-7.088 6.759,-7.602 6.353,-8.007 5.948,-8.411 5.418,-8.713 4.763,-8.908 4.108,-9.105 3.292,-9.203 2.317,-9.203 c -0.893,0 -1.691,0.125 -2.394,0.375 -0.702,0.251 -1.243,0.573 -1.624,0.969 -0.379,0.395 -0.57,0.802 -0.57,1.22 0,0.317 0.108,0.576 0.324,0.774 0.215,0.2 0.475,0.3 0.778,0.3 0.38,0 0.712,-0.168 0.998,-0.503 0.138,-0.171 0.282,-0.345 0.431,-0.519 0.149,-0.175 0.315,-0.323 0.494,-0.447 0.181,-0.122 0.398,-0.214 0.651,-0.275 0.253,-0.058 0.545,-0.089 0.874,-0.089 0.671,0 1.192,0.092 1.563,0.28 0.37,0.186 0.63,0.448 0.779,0.784 0.149,0.334 0.235,0.693 0.261,1.077 0.025,0.384 0.044,0.999 0.056,1.849 C 4.539,-3.967 4.08,-4.392 3.556,-4.683 3.034,-4.974 2.412,-5.119 1.69,-5.119 c -0.867,0 -1.625,0.222 -2.275,0.665 -0.648,0.443 -1.147,1.063 -1.495,1.861 -0.349,0.799 -0.522,1.719 -0.522,2.764 0,0.778 0.105,1.482 0.317,2.108 0.213,0.628 0.515,1.157 0.908,1.587 0.392,0.431 0.845,0.755 1.357,0.974 0.513,0.218 1.077,0.327 1.691,0.327 0.734,0 1.371,-0.142 1.91,-0.422 0.537,-0.283 1.038,-0.724 1.5,-1.326 l 0,0.352 c 0,0.45 0.11,0.797 0.332,1.045 0.222,0.246 0.507,0.371 0.856,0.371 0.5,0 0.832,-0.164 0.996,-0.49 C 7.43,4.371 7.513,3.9 7.513,3.286"
             style="fill:#eff9f8;fill-opacity:1;fill-rule:nonzero;stroke:none"
             id="path274"
             inkscape:connector-curvature="0" /></g><g
           id="g276"
           transform="translate(332.1914,36.2528)"><path
             d="m 0,0 0,-0.313 c 0.455,0.601 0.954,1.043 1.496,1.325 0.541,0.281 1.163,0.423 1.866,0.423 0.684,0 1.295,-0.15 1.833,-0.448 0.538,-0.298 0.941,-0.718 1.206,-1.261 0.172,-0.318 0.282,-0.661 0.332,-1.027 0.051,-0.368 0.078,-0.836 0.078,-1.406 l 0,-4.824 c 0,-0.52 -0.12,-0.913 -0.357,-1.179 -0.238,-0.266 -0.546,-0.398 -0.926,-0.398 -0.387,0 -0.7,0.135 -0.941,0.408 -0.241,0.272 -0.36,0.662 -0.36,1.169 l 0,4.321 c 0,0.855 -0.12,1.509 -0.357,1.961 -0.238,0.452 -0.71,0.68 -1.42,0.68 -0.462,0 -0.883,-0.138 -1.263,-0.413 C 0.807,-1.259 0.528,-1.638 0.351,-2.118 0.225,-2.505 0.161,-3.226 0.161,-4.283 l 0,-3.248 c 0,-0.526 -0.122,-0.921 -0.365,-1.184 -0.244,-0.263 -0.559,-0.393 -0.945,-0.393 -0.374,0 -0.681,0.135 -0.922,0.408 -0.24,0.272 -0.361,0.662 -0.361,1.169 l 0,7.493 c 0,0.494 0.108,0.863 0.323,1.107 0.216,0.243 0.51,0.366 0.883,0.366 0.229,0 0.434,-0.054 0.619,-0.163 0.182,-0.108 0.33,-0.269 0.441,-0.483 C -0.055,0.573 0,0.31 0,0"
             style="fill:#eff9f8;fill-opacity:1;fill-rule:nonzero;stroke:none"
             id="path278"
             inkscape:connector-curvature="0" /></g><g
           id="g280"
           transform="translate(342.8945,33.2508)"><path
             d="M 0,0 4.701,0 C 4.638,0.887 4.399,1.551 3.984,1.99 3.569,2.431 3.023,2.65 2.346,2.65 1.7,2.65 1.169,2.428 0.754,1.982 0.339,1.535 0.089,0.874 0,0 m 5.071,-1.473 -5.071,0 c 0.007,-0.588 0.125,-1.107 0.357,-1.556 0.23,-0.451 0.537,-0.789 0.921,-1.017 0.382,-0.228 0.805,-0.341 1.267,-0.341 0.31,0 0.594,0.035 0.851,0.108 0.255,0.074 0.504,0.186 0.746,0.343 0.239,0.154 0.461,0.321 0.665,0.498 0.201,0.178 0.464,0.42 0.787,0.723 0.133,0.113 0.323,0.171 0.57,0.171 0.266,0 0.482,-0.074 0.646,-0.22 0.165,-0.146 0.247,-0.35 0.247,-0.617 0,-0.234 -0.092,-0.507 -0.276,-0.821 C 6.597,-4.516 6.32,-4.816 5.95,-5.105 5.579,-5.393 5.115,-5.631 4.554,-5.821 3.994,-6.012 3.349,-6.106 2.621,-6.106 c -1.665,0 -2.96,0.475 -3.885,1.424 -0.924,0.95 -1.386,2.239 -1.386,3.866 0,0.766 0.114,1.477 0.341,2.132 0.228,0.656 0.562,1.217 0.999,1.686 0.436,0.469 0.975,0.827 1.614,1.078 0.639,0.25 1.349,0.374 2.128,0.374 1.012,0 1.88,-0.212 2.606,-0.64 0.725,-0.427 1.268,-0.98 1.63,-1.657 0.36,-0.677 0.541,-1.369 0.541,-2.07 0,-0.653 -0.187,-1.075 -0.561,-1.27 -0.373,-0.192 -0.898,-0.29 -1.577,-0.29"
             style="fill:#eff9f8;fill-opacity:1;fill-rule:nonzero;stroke:none"
             id="path282"
             inkscape:connector-curvature="0" /></g><g
           id="g284"
           transform="translate(353.436,32.4344)"><path
             d="m 0,0 c 0,-0.703 0.108,-1.301 0.327,-1.795 0.219,-0.494 0.518,-0.866 0.899,-1.115 0.379,-0.251 0.794,-0.377 1.243,-0.377 0.456,0 0.873,0.119 1.249,0.357 0.377,0.237 0.678,0.602 0.902,1.091 C 4.845,-1.348 4.958,-0.733 4.958,0 4.958,0.691 4.845,1.284 4.62,1.782 4.396,2.278 4.092,2.658 3.708,2.922 3.325,3.184 2.906,3.315 2.45,3.315 1.976,3.315 1.551,3.18 1.177,2.911 0.804,2.643 0.514,2.257 0.308,1.753 0.102,1.249 0,0.665 0,0 m 5.1,-3.809 0,0.257 C 4.751,-3.95 4.408,-4.275 4.069,-4.524 3.73,-4.775 3.364,-4.966 2.968,-5.095 2.573,-5.227 2.14,-5.29 1.672,-5.29 c -0.622,0 -1.196,0.131 -1.724,0.394 -0.529,0.262 -0.987,0.638 -1.373,1.126 -0.386,0.487 -0.679,1.059 -0.878,1.718 -0.2,0.659 -0.3,1.371 -0.3,2.137 0,1.621 0.396,2.886 1.188,3.791 C -0.624,4.78 0.418,5.233 1.71,5.233 2.457,5.233 3.087,5.105 3.6,4.85 4.112,4.593 4.613,4.197 5.1,3.667 l 0,3.827 C 5.1,8.026 5.206,8.428 5.418,8.7 5.63,8.973 5.933,9.108 6.326,9.108 6.718,9.108 7.02,8.983 7.233,8.733 7.444,8.482 7.551,8.115 7.551,7.627 l 0,-11.436 C 7.551,-4.303 7.437,-4.673 7.209,-4.92 6.981,-5.166 6.687,-5.29 6.326,-5.29 5.971,-5.29 5.678,-5.162 5.447,-4.906 5.215,-4.648 5.1,-4.283 5.1,-3.809"
             style="fill:#eff9f8;fill-opacity:1;fill-rule:nonzero;stroke:none"
             id="path286"
             inkscape:connector-curvature="0" /></g><g
           id="g288"
           transform="translate(369.2573,32.3583)"><path
             d="m 0,0 c 0,-1.032 0.236,-1.824 0.708,-2.378 0.471,-0.555 1.09,-0.833 1.857,-0.833 0.651,0 1.214,0.283 1.685,0.851 0.472,0.567 0.708,1.379 0.708,2.436 C 4.958,0.76 4.86,1.35 4.664,1.843 4.467,2.337 4.189,2.719 3.828,2.987 3.467,3.256 3.045,3.391 2.565,3.391 2.071,3.391 1.63,3.256 1.244,2.987 0.858,2.719 0.554,2.329 0.332,1.819 0.111,1.311 0,0.703 0,0 m -0.124,7.703 0,-3.96 C 0.364,4.249 0.861,4.638 1.368,4.906 1.874,5.175 2.501,5.31 3.249,5.31 4.11,5.31 4.864,5.105 5.514,4.698 6.162,4.288 6.666,3.696 7.024,2.921 7.381,2.146 7.561,1.226 7.561,0.161 c 0,-0.785 -0.1,-1.504 -0.299,-2.16 C 7.062,-2.654 6.772,-3.223 6.393,-3.703 6.012,-4.185 5.552,-4.558 5.011,-4.82 4.469,-5.083 3.872,-5.214 3.22,-5.214 c -0.399,0 -0.775,0.047 -1.125,0.143 -0.352,0.094 -0.652,0.218 -0.898,0.375 -0.246,0.154 -0.457,0.314 -0.631,0.479 -0.175,0.164 -0.405,0.412 -0.69,0.741 l 0,-0.256 c 0,-0.488 -0.117,-0.857 -0.351,-1.108 -0.233,-0.25 -0.531,-0.374 -0.893,-0.374 -0.367,0 -0.66,0.124 -0.878,0.374 -0.219,0.251 -0.328,0.62 -0.328,1.108 l 0,11.322 c 0,0.525 0.106,0.923 0.318,1.191 0.212,0.269 0.509,0.404 0.888,0.404 0.4,0 0.706,-0.128 0.922,-0.384 0.215,-0.258 0.322,-0.622 0.322,-1.098"
             style="fill:#eff9f8;fill-opacity:1;fill-rule:nonzero;stroke:none"
             id="path290"
             inkscape:connector-curvature="0" /></g><g
           id="g292"
           transform="translate(380.1797,26.8211)"><path
             d="m 0,0 0.237,0.58 -3.191,8.035 c -0.196,0.461 -0.295,0.798 -0.295,1.007 0,0.222 0.058,0.427 0.171,0.616 0.115,0.191 0.271,0.343 0.47,0.456 0.2,0.116 0.407,0.172 0.623,0.172 0.373,0 0.654,-0.119 0.845,-0.356 0.191,-0.237 0.358,-0.577 0.503,-1.021 l 2.195,-6.382 2.08,5.936 c 0.164,0.48 0.313,0.857 0.446,1.13 0.133,0.272 0.273,0.456 0.422,0.55 0.149,0.095 0.36,0.143 0.632,0.143 0.197,0 0.385,-0.052 0.566,-0.157 0.18,-0.104 0.319,-0.245 0.417,-0.423 C 6.219,10.109 6.269,9.923 6.269,9.727 6.243,9.607 6.203,9.436 6.145,9.213 6.087,8.992 6.019,8.766 5.937,8.539 L 2.555,-0.313 C 2.263,-1.092 1.979,-1.702 1.7,-2.145 1.421,-2.589 1.053,-2.931 0.593,-3.167 0.134,-3.405 -0.485,-3.523 -1.264,-3.523 c -0.759,0 -1.329,0.082 -1.708,0.246 -0.381,0.166 -0.57,0.466 -0.57,0.903 0,0.297 0.089,0.527 0.271,0.688 0.179,0.162 0.447,0.244 0.801,0.244 0.139,0 0.276,-0.02 0.409,-0.059 0.165,-0.037 0.307,-0.057 0.427,-0.057 0.297,0 0.532,0.044 0.703,0.134 0.171,0.088 0.324,0.241 0.461,0.461 C -0.334,-0.746 -0.177,-0.424 0,0"
             style="fill:#eff9f8;fill-opacity:1;fill-rule:nonzero;stroke:none"
             id="path294"
             inkscape:connector-curvature="0" /></g><g
           id="g296"
           transform="translate(417.7425,37.4627)"><path
             d="m 0,0 0.618,0 0,0.778 c 0,0.815 0.1,1.457 0.307,1.938 0.204,0.478 0.555,0.826 1.047,1.045 0.49,0.217 1.163,0.326 2.016,0.326 1.52,0 2.273,-0.367 2.273,-1.114 C 6.261,2.734 6.182,2.528 6.021,2.357 5.866,2.189 5.678,2.102 5.463,2.102 5.363,2.102 5.185,2.12 4.936,2.161 4.698,2.194 4.483,2.217 4.312,2.217 3.845,2.217 3.546,2.076 3.407,1.802 3.28,1.526 3.212,1.133 3.212,0.617 L 3.212,0 3.845,0 C 4.836,0 5.326,-0.297 5.326,-0.895 5.326,-1.314 5.199,-1.586 4.934,-1.7 4.672,-1.814 4.31,-1.871 3.845,-1.871 l -0.633,0 0,-6.871 c 0,-0.511 -0.12,-0.901 -0.369,-1.168 -0.241,-0.273 -0.554,-0.406 -0.943,-0.406 -0.367,0 -0.67,0.133 -0.917,0.406 -0.245,0.267 -0.365,0.657 -0.365,1.168 l 0,6.871 -0.714,0 c -0.388,0 -0.682,0.084 -0.893,0.262 -0.209,0.171 -0.315,0.399 -0.315,0.677 C -1.304,-0.308 -0.869,0 0,0"
             style="fill:#eff9f8;fill-opacity:1;fill-rule:nonzero;stroke:none"
             id="path298"
             inkscape:connector-curvature="0" /></g><g
           id="g300"
           transform="translate(426.2318,30.8885)"><path
             d="m 0,0 0,-2.168 c 0,-0.523 -0.133,-0.919 -0.374,-1.18 -0.247,-0.265 -0.559,-0.394 -0.937,-0.394 -0.382,0 -0.688,0.131 -0.927,0.4 -0.237,0.264 -0.361,0.656 -0.361,1.174 l 0,7.223 c 0,1.166 0.42,1.749 1.261,1.749 0.434,0 0.743,-0.135 0.934,-0.408 0.189,-0.274 0.295,-0.674 0.317,-1.209 0.308,0.535 0.624,0.935 0.948,1.209 0.332,0.273 0.763,0.408 1.31,0.408 0.549,0 1.072,-0.135 1.585,-0.408 C 4.271,6.122 4.527,5.759 4.527,5.311 4.527,4.996 4.417,4.73 4.201,4.529 3.981,4.32 3.747,4.218 3.495,4.218 3.396,4.218 3.164,4.28 2.803,4.398 2.438,4.511 2.114,4.57 1.84,4.57 1.46,4.57 1.147,4.468 0.908,4.273 0.666,4.067 0.478,3.775 0.344,3.386 0.215,2.991 0.125,2.521 0.071,1.982 0.022,1.439 0,0.778 0,0"
             style="fill:#eff9f8;fill-opacity:1;fill-rule:nonzero;stroke:none"
             id="path302"
             inkscape:connector-curvature="0" /></g><g
           id="g304"
           transform="translate(433.0785,33.2557)"><path
             d="M 0,0 4.701,0 C 4.639,0.885 4.403,1.55 3.987,1.986 3.569,2.429 3.028,2.646 2.347,2.646 1.701,2.646 1.17,2.427 0.755,1.978 0.341,1.531 0.087,0.873 0,0 m 5.074,-1.475 -5.074,0 c 0.009,-0.588 0.124,-1.11 0.355,-1.558 0.235,-0.446 0.54,-0.786 0.924,-1.017 0.385,-0.227 0.804,-0.34 1.269,-0.34 0.31,0 0.593,0.034 0.849,0.112 0.254,0.069 0.505,0.185 0.746,0.34 0.242,0.153 0.46,0.319 0.664,0.5 0.202,0.175 0.466,0.417 0.79,0.719 0.134,0.114 0.324,0.174 0.568,0.174 0.269,0 0.482,-0.074 0.649,-0.222 0.166,-0.147 0.244,-0.35 0.244,-0.617 0,-0.235 -0.089,-0.508 -0.268,-0.819 C 6.603,-4.52 6.327,-4.819 5.954,-5.109 5.58,-5.395 5.115,-5.637 4.557,-5.823 3.997,-6.014 3.351,-6.109 2.625,-6.109 c -1.671,0 -2.964,0.472 -3.887,1.422 -0.924,0.952 -1.391,2.242 -1.391,3.868 0,0.766 0.117,1.478 0.347,2.134 0.225,0.659 0.558,1.216 0.999,1.688 0.436,0.471 0.97,0.828 1.613,1.078 0.637,0.249 1.346,0.374 2.128,0.374 1.01,0 1.88,-0.214 2.606,-0.645 C 5.764,3.387 6.314,2.833 6.669,2.155 7.03,1.475 7.211,0.787 7.211,0.081 c 0,-0.648 -0.189,-1.07 -0.562,-1.266 -0.373,-0.193 -0.897,-0.29 -1.575,-0.29"
             style="fill:#eff9f8;fill-opacity:1;fill-rule:nonzero;stroke:none"
             id="path306"
             inkscape:connector-curvature="0" /></g><g
           id="g308"
           transform="translate(443.8666,33.2557)"><path
             d="M 0,0 4.701,0 C 4.638,0.885 4.397,1.55 3.986,1.986 3.565,2.429 3.024,2.646 2.344,2.646 1.698,2.646 1.168,2.427 0.751,1.978 0.338,1.531 0.084,0.873 0,0 m 5.073,-1.475 -5.073,0 c 0.006,-0.588 0.125,-1.11 0.354,-1.558 0.232,-0.446 0.539,-0.786 0.921,-1.017 0.383,-0.227 0.806,-0.34 1.272,-0.34 0.307,0 0.593,0.034 0.845,0.112 0.258,0.069 0.505,0.185 0.75,0.34 0.242,0.153 0.46,0.319 0.664,0.5 0.199,0.175 0.464,0.417 0.788,0.719 0.134,0.114 0.326,0.174 0.568,0.174 0.269,0 0.484,-0.074 0.65,-0.222 0.165,-0.147 0.241,-0.35 0.241,-0.617 0,-0.235 -0.087,-0.508 -0.274,-0.819 C 6.602,-4.52 6.324,-4.819 5.949,-5.109 5.579,-5.395 5.109,-5.637 4.554,-5.823 3.996,-6.014 3.346,-6.109 2.619,-6.109 c -1.667,0 -2.959,0.472 -3.887,1.422 -0.923,0.952 -1.388,2.242 -1.388,3.868 0,0.766 0.116,1.478 0.347,2.134 0.227,0.659 0.559,1.216 0.997,1.688 0.435,0.471 0.972,0.828 1.614,1.078 0.637,0.249 1.35,0.374 2.129,0.374 1.008,0 1.878,-0.214 2.613,-0.645 C 5.764,3.387 6.309,2.833 6.665,2.155 7.024,1.475 7.21,0.787 7.21,0.081 7.21,-0.567 7.018,-0.989 6.648,-1.185 6.273,-1.378 5.749,-1.475 5.073,-1.475"
             style="fill:#eff9f8;fill-opacity:1;fill-rule:nonzero;stroke:none"
             id="path310"
             inkscape:connector-curvature="0" /></g><g
           id="g312"
           transform="translate(459.7035,32.4657)"><path
             d="m 0,0 c 0,0.684 -0.106,1.273 -0.314,1.763 -0.209,0.492 -0.499,0.867 -0.867,1.128 -0.367,0.262 -0.782,0.396 -1.232,0.396 -0.714,0 -1.318,-0.284 -1.809,-0.844 -0.492,-0.566 -0.739,-1.395 -0.739,-2.493 0,-1.026 0.244,-1.833 0.735,-2.406 0.488,-0.573 1.086,-0.858 1.813,-0.858 0.429,0 0.83,0.125 1.197,0.372 0.371,0.253 0.665,0.626 0.884,1.126 C -0.111,-1.314 0,-0.708 0,0 m -5.084,3.768 0,-0.311 c 0.486,0.601 0.994,1.042 1.524,1.324 0.519,0.284 1.119,0.427 1.783,0.427 C -0.982,5.208 -0.242,5 0.43,4.591 1.101,4.177 1.628,3.575 2.019,2.784 2.408,1.989 2.605,1.055 2.605,-0.029 2.605,-0.825 2.492,-1.561 2.269,-2.23 2.045,-2.898 1.731,-3.457 1.34,-3.91 0.946,-4.36 0.484,-4.712 -0.05,-4.956 c -0.542,-0.241 -1.111,-0.363 -1.727,-0.363 -0.739,0 -1.365,0.148 -1.866,0.447 -0.502,0.292 -0.982,0.733 -1.441,1.306 l 0,-3.893 c 0,-1.136 -0.416,-1.71 -1.244,-1.71 -0.49,0 -0.809,0.146 -0.972,0.439 -0.151,0.299 -0.233,0.724 -0.233,1.291 l 0,11.194 c 0,0.495 0.106,0.859 0.32,1.107 0.215,0.24 0.512,0.365 0.885,0.365 0.369,0 0.666,-0.125 0.895,-0.375 0.236,-0.253 0.349,-0.61 0.349,-1.084"
             style="fill:#eff9f8;fill-opacity:1;fill-rule:nonzero;stroke:none"
             id="path314"
             inkscape:connector-curvature="0" /></g><g
           id="g316"
           transform="translate(466.2035,36.2206)"><path
             d="m 0,0 0,-7.502 c 0,-0.516 -0.124,-0.908 -0.37,-1.172 -0.25,-0.269 -0.561,-0.4 -0.941,-0.4 -0.381,0 -0.685,0.133 -0.928,0.406 -0.234,0.276 -0.356,0.665 -0.356,1.166 l 0,7.428 c 0,0.51 0.122,0.894 0.356,1.154 0.243,0.265 0.547,0.392 0.928,0.392 0.38,0 0.691,-0.127 0.941,-0.392 C -0.124,0.82 0,0.458 0,0 m -1.284,2.679 c -0.362,0 -0.669,0.114 -0.923,0.335 -0.26,0.222 -0.388,0.532 -0.388,0.936 0,0.368 0.131,0.67 0.397,0.91 0.262,0.235 0.566,0.356 0.914,0.356 0.34,0 0.636,-0.107 0.893,-0.32 C -0.131,4.678 0,4.362 0,3.95 0,3.551 -0.127,3.239 -0.378,3.015 -0.632,2.793 -0.933,2.679 -1.284,2.679"
             style="fill:#eff9f8;fill-opacity:1;fill-rule:nonzero;stroke:none"
             id="path318"
             inkscape:connector-curvature="0" /></g><g
           id="g320"
           transform="translate(474.5629,28.3299)"><path
             d="m 0,0 -2.284,3.766 -1.408,-1.328 0,-2.066 c 0,-0.499 -0.133,-0.882 -0.397,-1.149 -0.257,-0.273 -0.566,-0.407 -0.906,-0.407 -0.399,0 -0.715,0.131 -0.941,0.401 -0.226,0.263 -0.343,0.656 -0.343,1.174 l 0,11.063 c 0,0.573 0.114,1.011 0.331,1.314 0.222,0.304 0.545,0.452 0.953,0.452 0.399,0 0.713,-0.137 0.949,-0.411 0.234,-0.271 0.354,-0.674 0.354,-1.202 l 0,-6.294 2.916,3.063 C -0.414,8.752 -0.144,9.017 0.051,9.154 0.24,9.293 0.47,9.362 0.74,9.362 1.066,9.362 1.334,9.259 1.556,9.054 1.767,8.848 1.876,8.588 1.876,8.28 1.876,7.901 1.522,7.392 0.821,6.759 L -0.556,5.496 2.104,1.313 C 2.297,1 2.442,0.77 2.527,0.607 2.611,0.448 2.657,0.288 2.657,0.145 2.657,-0.268 2.543,-0.589 2.316,-0.83 2.092,-1.066 1.793,-1.184 1.431,-1.184 1.114,-1.184 0.867,-1.103 0.697,-0.928 0.527,-0.755 0.29,-0.444 0,0"
             style="fill:#eff9f8;fill-opacity:1;fill-rule:nonzero;stroke:none"
             id="path322"
             inkscape:connector-curvature="0" /></g><g
           id="g324"
           transform="translate(480.1986,27.1463)"><path
             d="m 0,0 c -0.392,0 -0.728,0.126 -1.014,0.381 -0.284,0.249 -0.428,0.605 -0.428,1.064 0,0.386 0.137,0.719 0.41,0.996 0.274,0.279 0.607,0.418 1.008,0.418 0.397,0 0.735,-0.139 1.022,-0.412 C 1.277,2.172 1.42,1.835 1.42,1.445 1.42,0.993 1.277,0.638 0.998,0.386 0.711,0.126 0.379,0 0,0"
             style="fill:#eff9f8;fill-opacity:1;fill-rule:nonzero;stroke:none"
             id="path326"
             inkscape:connector-curvature="0" /></g><g
           id="g328"
           transform="translate(493.097,30.3563)"><path
             d="m 0,0 c 0,-0.32 -0.097,-0.668 -0.291,-1.034 -0.191,-0.37 -0.488,-0.718 -0.886,-1.05 -0.394,-0.332 -0.891,-0.602 -1.495,-0.804 -0.6,-0.202 -1.28,-0.306 -2.03,-0.306 -1.607,0 -2.858,0.469 -3.758,1.401 -0.895,0.936 -1.346,2.189 -1.346,3.76 0,1.067 0.205,2.006 0.62,2.824 0.407,0.814 1.003,1.447 1.781,1.894 0.779,0.448 1.716,0.67 2.794,0.67 0.673,0 1.288,-0.098 1.852,-0.295 0.561,-0.196 1.033,-0.452 1.425,-0.759 0.387,-0.315 0.686,-0.644 0.89,-0.992 C -0.237,4.957 -0.137,4.628 -0.137,4.321 -0.137,4.014 -0.25,3.75 -0.479,3.534 -0.715,3.319 -0.995,3.21 -1.318,3.21 c -0.219,0 -0.398,0.057 -0.541,0.166 -0.144,0.112 -0.305,0.29 -0.479,0.542 -0.317,0.478 -0.646,0.842 -0.996,1.079 -0.343,0.243 -0.78,0.362 -1.313,0.362 -0.762,0 -1.384,-0.297 -1.854,-0.897 -0.468,-0.596 -0.703,-1.42 -0.703,-2.454 0,-0.488 0.062,-0.94 0.183,-1.348 0.117,-0.407 0.291,-0.756 0.52,-1.044 0.231,-0.287 0.504,-0.505 0.826,-0.654 0.324,-0.153 0.681,-0.226 1.064,-0.226 0.521,0 0.967,0.12 1.337,0.361 0.376,0.241 0.702,0.607 0.986,1.102 0.158,0.291 0.327,0.518 0.509,0.684 0.182,0.163 0.409,0.249 0.676,0.249 0.316,0 0.58,-0.123 0.786,-0.362 C -0.106,0.529 0,0.271 0,0"
             style="fill:#eff9f8;fill-opacity:1;fill-rule:nonzero;stroke:none"
             id="path330"
             inkscape:connector-curvature="0" /></g><g
           id="g332"
           transform="translate(501.6839,32.4168)"><path
             d="M 0,0 C 0,1.059 -0.234,1.881 -0.698,2.469 -1.161,3.064 -1.788,3.357 -2.572,3.357 -3.08,3.357 -3.527,3.225 -3.915,2.963 -4.302,2.701 -4.596,2.314 -4.805,1.799 -5.014,1.285 -5.12,0.686 -5.12,0 c 0,-0.679 0.103,-1.268 0.31,-1.773 0.207,-0.511 0.501,-0.898 0.885,-1.166 0.386,-0.267 0.835,-0.405 1.353,-0.405 0.784,0 1.411,0.296 1.874,0.892 C -0.234,-1.861 0,-1.041 0,0 m 2.604,0 c 0,-0.77 -0.122,-1.484 -0.356,-2.139 -0.247,-0.652 -0.592,-1.213 -1.05,-1.678 -0.455,-0.469 -1.002,-0.829 -1.632,-1.08 -0.639,-0.248 -1.349,-0.375 -2.138,-0.375 -0.785,0 -1.493,0.127 -2.121,0.382 -0.623,0.249 -1.171,0.615 -1.626,1.082 -0.461,0.477 -0.809,1.035 -1.052,1.677 -0.229,0.644 -0.351,1.355 -0.351,2.131 0,0.786 0.124,1.506 0.359,2.158 0.242,0.655 0.589,1.212 1.039,1.673 0.451,0.462 0.993,0.817 1.631,1.07 0.643,0.249 1.349,0.374 2.121,0.374 0.784,0 1.498,-0.125 2.138,-0.381 C 0.204,4.643 0.749,4.279 1.21,3.814 1.668,3.34 2.013,2.785 2.25,2.143 2.483,1.491 2.604,0.782 2.604,0"
             style="fill:#eff9f8;fill-opacity:1;fill-rule:nonzero;stroke:none"
             id="path334"
             inkscape:connector-curvature="0" /></g><g
           id="g336"
           transform="translate(514.1791,32.2264)"><path
             d="m 0,0 0,-3.446 c 0,-0.547 -0.12,-0.951 -0.369,-1.228 -0.25,-0.272 -0.571,-0.408 -0.978,-0.408 -0.392,0 -0.714,0.136 -0.951,0.408 -0.247,0.277 -0.372,0.681 -0.372,1.228 l 0,4.131 c 0,0.653 -0.02,1.162 -0.063,1.524 -0.046,0.354 -0.168,0.655 -0.363,0.883 -0.196,0.235 -0.508,0.351 -0.93,0.351 -0.851,0 -1.408,-0.29 -1.677,-0.88 C -5.971,1.986 -6.109,1.149 -6.109,0.056 l 0,-3.502 c 0,-0.538 -0.122,-0.947 -0.362,-1.224 -0.249,-0.273 -0.567,-0.412 -0.965,-0.412 -0.395,0 -0.716,0.139 -0.966,0.412 -0.252,0.277 -0.376,0.686 -0.376,1.224 l 0,7.419 c 0,0.489 0.111,0.86 0.335,1.111 0.229,0.257 0.526,0.382 0.889,0.382 0.357,0 0.652,-0.123 0.892,-0.356 0.236,-0.238 0.354,-0.566 0.354,-0.984 l 0,-0.245 c 0.454,0.535 0.935,0.931 1.445,1.18 0.516,0.26 1.082,0.386 1.713,0.386 0.651,0 1.211,-0.131 1.677,-0.389 0.47,-0.261 0.854,-0.656 1.161,-1.177 0.439,0.528 0.909,0.923 1.41,1.18 0.5,0.257 1.052,0.386 1.662,0.386 0.706,0 1.321,-0.142 1.834,-0.419 C 5.104,4.75 5.486,4.349 5.741,3.833 5.962,3.36 6.071,2.623 6.071,1.616 l 0,-5.062 c 0,-0.547 -0.122,-0.951 -0.367,-1.228 -0.246,-0.272 -0.575,-0.408 -0.979,-0.408 -0.395,0 -0.714,0.139 -0.965,0.412 -0.25,0.277 -0.376,0.686 -0.376,1.224 l 0,4.361 C 3.384,1.474 3.36,1.918 3.314,2.253 3.268,2.59 3.138,2.873 2.932,3.1 2.72,3.327 2.401,3.443 1.979,3.443 1.637,3.443 1.312,3.337 1.005,3.136 0.698,2.938 0.458,2.659 0.284,2.323 0.099,1.885 0,1.11 0,0"
             style="fill:#eff9f8;fill-opacity:1;fill-rule:nonzero;stroke:none"
             id="path338"
             inkscape:connector-curvature="0" /></g><g
           id="g340"
           transform="translate(393.4745,33.0448)"><path
             d="M 0,0 C -0.002,0.005 -0.002,0.01 -0.002,0.018 -0.002,0.01 -0.002,0.005 0,0"
             style="fill:#eff9f8;fill-opacity:1;fill-rule:nonzero;stroke:none"
             id="path342"
             inkscape:connector-curvature="0" /></g><g
           id="g344"
           transform="translate(393.6053,32.2157)"><path
             d="M 0,0 0.003,0 C -0.047,0.236 -0.085,0.471 -0.116,0.702 -0.085,0.469 -0.047,0.233 0,0"
             style="fill:#eff9f8;fill-opacity:1;fill-rule:nonzero;stroke:none"
             id="path346"
             inkscape:connector-curvature="0" /></g><g
           id="g348"
           transform="translate(394.4637,29.8094)"><path
             d="M 0,0 C -0.006,0.01 -0.011,0.021 -0.017,0.033 -0.011,0.021 -0.006,0.01 0,0"
             style="fill:#eff9f8;fill-opacity:1;fill-rule:nonzero;stroke:none"
             id="path350"
             inkscape:connector-curvature="0" /></g><g
           id="g352"
           transform="translate(394.3817,29.9696)"><path
             d="M 0,0 C -0.023,0.044 -0.044,0.09 -0.065,0.134 -0.044,0.087 -0.023,0.044 0,0"
             style="fill:#eff9f8;fill-opacity:1;fill-rule:nonzero;stroke:none"
             id="path354"
             inkscape:connector-curvature="0" /></g><g
           id="g356"
           transform="translate(393.8465,31.2889)"><path
             d="M 0,0 C 0.127,-0.4 0.28,-0.788 0.457,-1.158 0.277,-0.78 0.127,-0.392 0.004,0 L 0,0 Z"
             style="fill:#eff9f8;fill-opacity:1;fill-rule:nonzero;stroke:none"
             id="path358"
             inkscape:connector-curvature="0" /></g><g
           id="g360"
           transform="translate(403.5121,42.9813)"><path
             d="m 0,0 c 0.501,0 0.871,-0.04 1.295,-0.111 l 0.12,0.762 c 0,0 -1.171,0.361 -2.71,0.235 l -0.122,0.415 c 0.479,0.1 0.838,0.526 0.838,1.034 0,0.582 -0.474,1.054 -1.057,1.054 -0.583,0 -1.055,-0.472 -1.055,-1.054 0,-0.508 0.358,-0.934 0.836,-1.034 L -1.722,0.838 C -3.356,0.613 -4.657,-0.024 -4.657,-0.024 l 0.231,-0.705 C -3.438,-0.4 -2.58,-0.2 -1.802,-0.116 -1.041,-0.035 -0.467,0 0,0"
             style="fill:#eff9f8;fill-opacity:1;fill-rule:nonzero;stroke:none"
             id="path362"
             inkscape:connector-curvature="0" /></g><g
           id="g364"
           transform="translate(394.4442,39.1229)"><path
             d="m 0,0 0.006,0.008 c 0.038,0.05 0.075,0.096 0.113,0.142 l -0.313,0.226 -0.488,0.356 c -0.027,-0.038 -0.795,-0.744 -1.401,-2.047 -0.025,0.041 -0.056,0.081 -0.09,0.119 -0.182,0.198 -0.435,0.3 -0.758,0.294 l -0.015,0 c -0.2,0 -0.337,0.066 -0.427,0.147 0.09,0.113 0.143,0.256 0.143,0.413 0,0.368 -0.299,0.669 -0.669,0.669 -0.369,0 -0.668,-0.301 -0.668,-0.669 0,-0.37 0.299,-0.669 0.668,-0.669 0.058,0 0.113,0.01 0.167,0.021 0.165,-0.183 0.425,-0.342 0.808,-0.334 0.196,0.002 0.34,-0.049 0.437,-0.156 0.111,-0.121 0.149,-0.295 0.16,-0.427 -10e-4,-0.002 -10e-4,-0.005 -0.003,-0.005 -0.436,-1.19 -0.311,-2.67 -0.311,-2.67 l 1.057,-0.042 c 0.022,0.539 0.099,1.482 0.372,2.23 C -0.686,-0.944 -0.027,-0.038 0,0"
             style="fill:#eff9f8;fill-opacity:1;fill-rule:nonzero;stroke:none"
             id="path366"
             inkscape:connector-curvature="0" /></g><g
           id="g368"
           transform="translate(412.7113,42.0975)"><path
             d="m 0,0 c -0.368,0 -0.669,-0.299 -0.669,-0.669 0,-0.058 0.009,-0.112 0.023,-0.165 C -0.829,-1 -0.988,-1.262 -0.982,-1.645 -0.979,-1.842 -1.03,-1.984 -1.137,-2.081 -1.222,-2.156 -1.328,-2.196 -1.433,-2.222 -2.22,-1.119 -3.189,-0.446 -3.189,-0.446 L -3.947,-1.26 c 0.573,-0.521 1.159,-1.175 1.728,-1.99 0.394,-0.563 0.799,-1.29 1.136,-2.015 l 1.024,0.487 c 0,0 -0.467,1.155 -1.126,2.191 0.115,0.04 0.23,0.103 0.331,0.192 0.201,0.181 0.299,0.437 0.293,0.758 -0.001,0.208 0.067,0.349 0.149,0.442 0.114,-0.087 0.257,-0.143 0.412,-0.143 0.371,0 0.67,0.3 0.67,0.669 C 0.67,-0.299 0.371,0 0,0"
             style="fill:#eff9f8;fill-opacity:1;fill-rule:nonzero;stroke:none"
             id="path370"
             inkscape:connector-curvature="0" /></g><g
           id="g372"
           transform="translate(410.0541,32.8954)"><path
             d="m 0,0 c -1.409,-0.687 -3.729,-1.594 -6.781,-2.02 -1.198,-0.166 -2.36,-0.227 -3.429,-0.227 -1.39,0 -2.619,0.103 -3.562,0.223 -1.076,0.135 -1.918,0.301 -2.432,0.417 0.123,-0.391 0.273,-0.78 0.453,-1.158 0.004,-0.009 0.008,-0.02 0.013,-0.027 0.022,-0.044 0.043,-0.09 0.066,-0.134 0.021,-0.044 0.043,-0.087 0.064,-0.127 0.007,-0.012 0.012,-0.023 0.018,-0.033 0.302,-0.57 0.666,-1.095 1.08,-1.549 1.44,-1.575 2.907,-1.824 2.921,-1.826 l 0.023,-0.003 0.022,-0.008 c 0.013,-0.005 1.314,-0.425 3.291,-0.425 1.945,0 3.855,0.393 5.674,1.167 1.347,0.69 2.622,1.737 3.254,2.67 0.488,0.723 0.841,1.494 1.05,2.294 C 1.836,-0.34 1.924,0.342 1.872,1.059 1.476,0.793 0.849,0.413 0,0"
             style="fill:#eff9f8;fill-opacity:1;fill-rule:nonzero;stroke:none"
             id="path374"
             inkscape:connector-curvature="0" /></g><g
           id="g376"
           transform="translate(398.9247,39.5252)"><path
             d="m 0,0 c 1.557,0 2.817,-1.262 2.817,-2.817 0,-1.556 -1.26,-2.815 -2.817,-2.815 -1.555,0 -2.816,1.259 -2.816,2.815 C -2.816,-1.262 -1.555,0 0,0 m 8.242,-0.069 c 0.961,0 1.743,-0.781 1.743,-1.743 0,-0.962 -0.782,-1.745 -1.743,-1.745 -0.962,0 -1.743,0.783 -1.743,1.745 0,0.962 0.781,1.743 1.743,1.743 m -12.27,-0.667 c -0.041,-0.06 -0.652,-0.925 -1.135,-2.253 -0.362,-0.995 -0.346,-2.444 -0.346,-2.46 l 0,-0.003 c 0,-0.34 0.019,-0.677 0.057,-1.011 0,-0.008 0,-0.012 0.002,-0.017 0.004,-0.043 0.011,-0.084 0.015,-0.127 0.03,-0.232 0.069,-0.466 0.119,-0.702 0.7,-0.178 4.878,-1.153 9.548,-0.502 2.927,0.407 5.149,1.272 6.499,1.926 1.121,0.544 1.842,1.036 2.12,1.239 C 12.574,-3.618 11.809,-2.006 11.108,-1 9.103,1.865 6.941,2.601 5.83,2.783 5.407,2.853 5.068,2.893 4.587,2.893 4.14,2.893 3.585,2.857 2.844,2.778 2.101,2.701 1.272,2.506 0.312,2.183 -1.036,1.732 -2.255,1.023 -3.215,0.135 l -0.033,-0.03 c -0.142,-0.131 -0.439,-0.407 -0.78,-0.841"
             style="fill:#eff9f8;fill-opacity:1;fill-rule:nonzero;stroke:none"
             id="path378"
             inkscape:connector-curvature="0" /></g><g
           id="g380"
           transform="translate(315.2251,88.721)"><path
             d="m 0,0 c 1.606,-1.713 2.578,-5.743 5.696,-5.153 2.794,0.528 2.131,3.465 2.81,5.614 4.238,-5.549 11.074,3.633 3.134,5.955 1.745,-0.105 5.542,-0.895 6.852,1.205 1.661,2.664 -2.162,4.225 -4.519,4.553 2.894,0.5 5.757,3.223 2.17,5.365 -2.314,1.381 -6.883,-0.723 -8.838,-2.007 4.001,3.138 -8.063,9.164 -6.856,-0.922 -1.864,5.898 -12.928,0.352 -5.07,-2.973 -2.504,-0.779 -6.341,-0.17 -8.019,-2.568 -2.828,-4.042 2.582,-3.987 5.182,-3.036 -6.691,-3.177 -3.575,-10.516 2.853,-6.127 -2.764,-1.273 -1.447,-5.465 1.153,-5.574 2.992,-0.125 4.936,3.596 4.052,5.977"
             style="fill:#f9fcf0;fill-opacity:1;fill-rule:nonzero;stroke:none"
             id="path382"
             inkscape:connector-curvature="0" /></g><g
           id="g384"
           transform="translate(323.4915,98.8373)"><path
             d="m 0,0 c 0.541,-1.882 -1.346,-4.075 -4.214,-4.899 -2.867,-0.824 -5.63,0.034 -6.171,1.916 -0.54,1.882 1.346,4.075 4.214,4.899 C -3.303,2.74 -0.541,1.882 0,0"
             style="fill:#eaea44;fill-opacity:1;fill-rule:nonzero;stroke:none"
             id="path386"
             inkscape:connector-curvature="0" /></g><g
           id="g388"
           transform="translate(627.2851,372.2509)"><path
             d="m 0,0 c 0,0 35.847,1.506 44.282,0 8.435,-1.506 44.885,-7.832 36.751,-9.64 -8.133,-1.807 -10.543,-0.602 -13.254,-2.108 -2.711,-1.507 -7.23,1.205 -12.953,2.41 -5.724,1.205 -6.929,-4.503 -10.243,-2.854 -3.313,1.649 -14.459,5.79 -20.183,6.28 C 18.677,-5.422 0,0 0,0"
             style="fill:#cad182;fill-opacity:1;fill-rule:nonzero;stroke:none"
             id="path390"
             inkscape:connector-curvature="0" /></g><g
           id="g392"
           transform="translate(642.1773,487.3713)"><path
             d="m 0,0 c -3.422,-0.305 -12.847,1.763 -10.614,-5.17 -5.488,-3.674 -12.244,-2.813 -9.76,-11.499 1.027,-3.592 3.578,-6.268 3.927,-9.911 0.236,-2.47 -0.609,-5.738 -0.925,-8.182 -0.445,-3.446 0.115,-5.875 0.098,-9.272 -0.031,-6.472 -2.749,-14.668 7.215,-14.225 7.443,0.331 8.149,8.344 14.788,9.606 4.368,-4.259 4.663,-1.97 9.73,0.465 4.571,2.197 6.903,1.517 10.052,-2.42 8.533,-10.665 25.833,2.069 32.04,10.844 3.906,5.521 2.751,7.466 1.366,12.812 -1.021,3.941 1.63,8.14 0.03,11.779 -2.023,4.599 -9.23,5.162 -13.69,6.641 -9.703,3.218 -19.371,7.639 -29.778,7.729 C 10.693,-0.771 3.426,-2.442 0.803,0.402"
             style="fill:#96cc58;fill-opacity:1;fill-rule:nonzero;stroke:none"
             id="path394"
             inkscape:connector-curvature="0" /></g><g
           id="g396"
           transform="translate(659.4483,366.8756)"><path
             d="m 0,0 14.058,0 -4.82,82.74 -5.623,0 0.402,-22.894 -34.141,16.468 15.665,-10.041 c 0,0 -19.681,-4.017 -26.51,2.41 0,0 7.518,-7.947 29.321,-4.82 L 4.017,56.231 0,0 Z"
             style="fill:#b29b8e;fill-opacity:1;fill-rule:nonzero;stroke:none"
             id="path398"
             inkscape:connector-curvature="0" /></g><g
           id="g400"
           transform="translate(674.3094,446.4028)"><path
             d="m 0,0 c -2.97,-6.792 -13.394,2.168 -16.869,2.419 -2.381,0.172 -5.438,-2.115 -7.631,-3.112 -3.345,-1.52 -5.338,-1.584 -9.178,-1.778 0.457,-2.788 -3.499,-7.013 -5.743,-8.463 -2.314,-1.495 -4.509,-1.082 -7.12,-1.525 -2.582,-0.438 -1.889,-0.012 -4.488,-1.62 -3.917,-2.422 -7.368,-4.256 -11.607,-1.192 -5.814,4.204 -3.639,8.435 -1.157,13.574 1.386,2.869 1.728,0.202 1.054,3.587 -0.61,3.058 -3.089,5.069 -2.357,8.887 1.181,6.165 6.342,6.654 10.483,9.618 3.571,2.556 2.035,6.128 6.313,8.735 5.296,3.228 8.302,0.571 13.696,1.057 0.25,5.92 -3.494,11.832 1.258,17.207 1.852,2.095 4.157,2.992 5.25,5.626 1.457,3.513 0.018,4.764 3.428,7.638 2.273,1.916 5.113,3.655 8.19,3.605 2.998,-0.049 3.275,-1.803 5.523,-2.506 5.312,-1.66 10.738,3.889 17,1.009 6.173,-2.84 8.741,-11.726 7.128,-18.203 -0.682,-2.738 -2.395,-1.959 -1.161,-5.123 1.155,-2.966 5.904,-6.213 7.648,-9.498 2.298,-4.325 3.39,-8.156 2.852,-13.113 -0.325,-2.989 -1.239,-3.801 0.435,-6.378 2.13,-3.279 6.499,-4.309 7.899,-8.637 1.193,-3.69 1.148,-9.763 -1.607,-12.697 -2.046,-2.179 -5.698,-2.876 -8.3,-4.05 3.039,-6.267 -6.42,-8.184 -11.026,-8.361 -5.077,-0.196 -8.954,1.722 -11.419,6.112 -1.404,2.502 -3.298,7.182 -2.128,9.952 1.339,3.171 5.282,3.605 4.377,7.971 C 0.026,1.024 -0.215,0.676 -0.803,0.402"
             style="fill:#9ed663;fill-opacity:1;fill-rule:nonzero;stroke:none"
             id="path402"
             inkscape:connector-curvature="0" /></g><g
           id="g404"
           transform="translate(539.5683,193.5836)"><path
             d="m 0,0 -7.665,9.824 0,40.656 L 0,50.48 0,0 Z m -277.267,9.884 -7.877,-10.096 0,50.692 7.877,0 0,-40.596 z m 277.661,61.538 -8.059,0 0,77.637 -6.301,0 0,-74.289 -0.214,0 0,-3.348 -256.787,0 0,3.348 0,74.289 -6.3,0 0,-74.289 0,-3.348 -7.877,0 -15.754,-13.391 0,-7.551 9.452,0 0,-71.876 6.302,0 0,10.94 7.877,10.093 0,-5.507 6.3,0 0,56.35 256.787,0 0,-56.138 0.214,0 0,-0.212 6.301,0 0,5.449 7.665,-9.823 0,-10.941 6.3,0 0,71.665 9.847,0 0,7.551 -15.753,13.391 z"
             style="fill:#2d2d2d;fill-opacity:1;fill-rule:nonzero;stroke:none"
             id="path406"
             inkscape:connector-curvature="0" /></g><g
           id="g408"
           transform="translate(542.1183,330.3096)"><path
             d="m 0,0 c 0,-3.698 -2.998,-6.696 -6.696,-6.696 l -272.146,0 c -3.698,0 -6.696,2.998 -6.696,6.696 0,3.698 2.998,6.696 6.696,6.696 l 272.146,0 C -2.998,6.696 0,3.698 0,0"
             style="fill:#eff0f0;fill-opacity:1;fill-rule:evenodd;stroke:none"
             id="path410"
             inkscape:connector-curvature="0" /></g><g
           id="g412"
           transform="translate(542.1183,312.6429)"><path
             d="m 0,0 c 0,-3.698 -2.998,-6.696 -6.696,-6.696 l -272.146,0 c -3.698,0 -6.696,2.998 -6.696,6.696 0,3.698 2.998,6.696 6.696,6.696 l 272.146,0 C -2.998,6.696 0,3.698 0,0"
             style="fill:#eff0f0;fill-opacity:1;fill-rule:evenodd;stroke:none"
             id="path414"
             inkscape:connector-curvature="0" /></g><g
           id="g416"
           transform="translate(542.1183,294.9763)"><path
             d="m 0,0 c 0,-3.698 -2.998,-6.696 -6.696,-6.696 l -272.146,0 c -3.698,0 -6.696,2.998 -6.696,6.696 0,3.698 2.998,6.696 6.696,6.696 l 272.146,0 C -2.998,6.696 0,3.698 0,0"
             style="fill:#eff0f0;fill-opacity:1;fill-rule:evenodd;stroke:none"
             id="path418"
             inkscape:connector-curvature="0" /></g><g
           id="g420"
           transform="translate(542.1183,276.9763)"><path
             d="m 0,0 c 0,-3.698 -2.998,-6.696 -6.696,-6.696 l -272.146,0 c -3.698,0 -6.696,2.998 -6.696,6.696 0,3.698 2.998,6.696 6.696,6.696 l 272.146,0 C -2.998,6.696 0,3.698 0,0"
             style="fill:#eff0f0;fill-opacity:1;fill-rule:evenodd;stroke:none"
             id="path422"
             inkscape:connector-curvature="0" /></g><path
           d="m 555.815,239.602 -317.244,0 0,12.861 317.244,0 0,-12.861 z"
           style="fill:#eff0f0;fill-opacity:1;fill-rule:evenodd;stroke:none"
           id="path424"
           inkscape:connector-curvature="0" /><g
           id="g426"
           transform="translate(238.5709,252.4635)"><path
             d="m 0,0 15.278,12.861 286.745,0 L 319.3,0 0,0 Z"
             style="fill:#c9c9c9;fill-opacity:1;fill-rule:evenodd;stroke:none"
             id="path428"
             inkscape:connector-curvature="0" /></g><g
           id="g430"
           transform="translate(542.1183,347.6429)"><path
             d="m 0,0 c 0,-3.698 -2.998,-6.696 -6.696,-6.696 l -272.146,0 c -3.698,0 -6.696,2.998 -6.696,6.696 0,3.698 2.998,6.696 6.696,6.696 l 272.146,0 C -2.998,6.696 0,3.698 0,0"
             style="fill:#eff0f0;fill-opacity:1;fill-rule:evenodd;stroke:none"
             id="path432"
             inkscape:connector-curvature="0" /></g><g
           id="g434"
           transform="translate(254.3437,352.9543)"><path
             d="M 0,0 C 0,0 0.7,-1.608 1.965,-0.645 3.23,0.318 4.661,2.502 5.103,2.576 5.546,2.651 7.324,3.814 6.456,4.58 5.587,5.346 3.605,3.94 3.605,3.94 L 0,0 Z"
             style="fill:#332c2c;fill-opacity:1;fill-rule:nonzero;stroke:none"
             id="path436"
             inkscape:connector-curvature="0" /></g><g
           id="g438"
           transform="translate(256.9286,356.4766)"><path
             d="m 0,0 c 0,0 -5.759,9.711 -10.013,11.801 -4.254,2.09 -11.336,4.834 -9.428,-0.611 1.908,-5.445 3.489,-8.523 2.437,-10.703 -1.052,-2.18 -2.009,-10.423 13,-4.519 0,0 3.403,1.99 4.004,4.032"
             style="fill:#b54896;fill-opacity:1;fill-rule:nonzero;stroke:none"
             id="path440"
             inkscape:connector-curvature="0" /></g><g
           id="g442"><g
             id="g444" /><g
             id="g450"><g
               clip-path="url(#clipPath446)"
               id="g452"
               style="opacity:0.80000299"><g
                 transform="translate(258.6372,357.1254)"
                 id="g454"><path
                   d="m 0,0 c 0,0 0.649,9.96 -2.778,16.151 -3.427,6.191 -7.49,6.905 -7.728,1.967 -0.238,-4.937 0.104,-5.2 -0.396,-6.104 -0.501,-0.905 -1.204,-3.24 -1.146,-5.031 0,0 -6.521,-9.271 -3.724,-14.134 0,0 5.825,-0.466 11.83,3.58 0,0 3.328,2.628 3.913,3.359"
                   style="fill:#ce67ac;fill-opacity:1;fill-rule:nonzero;stroke:none"
                   id="path456"
                   inkscape:connector-curvature="0" /></g></g></g></g><g
           id="g458"
           transform="translate(259.6895,357.7161)"><path
             d="M 0,0 C 0,0 -0.083,0.564 -0.149,1.414 -0.165,1.626 -0.182,1.856 -0.194,2.1 -0.207,2.344 -0.217,2.601 -0.223,2.867 -0.23,3.133 -0.23,3.408 -0.228,3.688 c 0.005,0.28 0.014,0.564 0.031,0.847 0.018,0.283 0.04,0.567 0.075,0.844 0.015,0.139 0.035,0.277 0.056,0.412 0.019,0.136 0.046,0.269 0.07,0.4 0.023,0.131 0.057,0.258 0.084,0.383 0.03,0.125 0.066,0.245 0.098,0.363 0.038,0.115 0.076,0.228 0.112,0.337 0.044,0.106 0.083,0.21 0.126,0.308 0.047,0.096 0.09,0.188 0.135,0.274 0.049,0.084 0.096,0.163 0.14,0.238 0.051,0.07 0.098,0.135 0.142,0.196 0.021,0.031 0.045,0.058 0.068,0.083 0.023,0.025 0.045,0.05 0.066,0.073 0.08,0.096 0.159,0.154 0.208,0.199 0.05,0.043 0.077,0.066 0.077,0.066 0,0 -0.026,-0.023 -0.076,-0.068 C 1.136,8.598 1.058,8.538 0.98,8.441 0.96,8.418 0.939,8.393 0.916,8.367 0.893,8.342 0.87,8.315 0.85,8.284 0.807,8.222 0.761,8.156 0.712,8.086 0.669,8.011 0.624,7.931 0.576,7.847 0.533,7.761 0.492,7.668 0.447,7.572 0.406,7.474 0.369,7.37 0.327,7.264 0.293,7.155 0.258,7.042 0.222,6.926 0.192,6.808 0.158,6.688 0.131,6.564 0.106,6.439 0.074,6.312 0.054,6.181 0.033,6.051 0.008,5.918 -0.008,5.783 -0.027,5.648 -0.044,5.511 -0.057,5.372 -0.087,5.096 -0.104,4.813 -0.116,4.531 -0.129,4.249 -0.133,3.966 -0.133,3.688 -0.13,3.409 -0.125,3.135 -0.114,2.871 -0.103,2.606 -0.089,2.35 -0.071,2.108 -0.054,1.865 -0.034,1.636 -0.014,1.425 0.026,1.003 0.07,0.653 0.103,0.408 0.136,0.163 0.159,0.024 0.159,0.024 L 0,0 Z"
             style="fill:#332c2c;fill-opacity:1;fill-rule:nonzero;stroke:none"
             id="path460"
             inkscape:connector-curvature="0" /></g><g
           id="g462"
           transform="translate(260.124,356.9964)"><path
             d="m 0,0 c 0,0 -0.017,0.114 -0.039,0.31 -0.022,0.197 -0.05,0.478 -0.073,0.816 -0.011,0.169 -0.022,0.352 -0.029,0.546 -0.007,0.194 -0.013,0.398 -0.013,0.61 -0.001,0.212 0.004,0.43 0.012,0.653 0.01,0.222 0.024,0.447 0.046,0.672 0.023,0.225 0.05,0.449 0.089,0.668 0.035,0.22 0.084,0.434 0.137,0.639 0.026,0.102 0.06,0.201 0.089,0.299 0.033,0.096 0.068,0.19 0.103,0.281 0.04,0.088 0.075,0.176 0.116,0.258 0.045,0.08 0.081,0.16 0.128,0.231 0.047,0.07 0.086,0.142 0.135,0.202 0.049,0.06 0.091,0.12 0.138,0.17 0.048,0.05 0.093,0.096 0.135,0.138 0.044,0.04 0.088,0.072 0.126,0.103 0.038,0.032 0.073,0.059 0.107,0.077 0.032,0.02 0.06,0.037 0.083,0.051 0.045,0.027 0.069,0.042 0.069,0.042 0,0 -0.024,-0.016 -0.068,-0.045 C 1.269,6.707 1.242,6.689 1.21,6.668 1.177,6.649 1.143,6.621 1.107,6.588 1.07,6.556 1.027,6.522 0.985,6.482 0.945,6.438 0.902,6.391 0.856,6.341 0.811,6.29 0.771,6.229 0.725,6.168 0.679,6.107 0.643,6.035 0.598,5.964 0.555,5.893 0.521,5.812 0.48,5.732 0.442,5.65 0.411,5.562 0.374,5.473 0.343,5.383 0.312,5.289 0.282,5.193 0.257,5.096 0.226,4.997 0.204,4.895 0.158,4.691 0.117,4.478 0.09,4.26 0.058,4.043 0.039,3.82 0.024,3.597 0.01,3.374 0.003,3.151 0.001,2.931 0,2.711 0.003,2.495 0.011,2.285 0.018,2.076 0.03,1.874 0.044,1.682 0.057,1.491 0.074,1.31 0.09,1.143 0.124,0.81 0.161,0.533 0.19,0.34 0.218,0.146 0.238,0.038 0.238,0.038 L 0,0 Z"
             style="fill:#332c2c;fill-opacity:1;fill-rule:nonzero;stroke:none"
             id="path464"
             inkscape:connector-curvature="0" /></g><g
           id="g466"
           transform="translate(257.485,354.2941)"><path
             d="m 0,0 c 0,0 -0.04,-0.311 -0.031,-0.804 0.012,-0.487 0.082,-1.141 0.285,-1.764 0.109,-0.306 0.239,-0.609 0.405,-0.867 0.087,-0.126 0.159,-0.259 0.258,-0.359 0.097,-0.103 0.172,-0.218 0.272,-0.292 0.36,-0.346 0.686,-0.468 0.674,-0.485 0.011,0.018 -0.325,0.107 -0.724,0.426 -0.11,0.067 -0.198,0.175 -0.307,0.273 -0.113,0.095 -0.2,0.224 -0.303,0.347 -0.198,0.253 -0.364,0.555 -0.508,0.867 -0.559,1.274 -0.52,2.692 -0.52,2.692 L 0,0 Z"
             style="fill:#332c2c;fill-opacity:1;fill-rule:nonzero;stroke:none"
             id="path468"
             inkscape:connector-curvature="0" /></g><g
           id="g470"
           transform="translate(258.6327,355.6779)"><path
             d="m 0,0 c 0,0 0.077,-0.013 0.234,-0.062 0.16,-0.04 0.363,-0.122 0.607,-0.22 0.236,-0.113 0.514,-0.241 0.786,-0.417 0.135,-0.091 0.274,-0.184 0.415,-0.279 0.146,-0.086 0.264,-0.217 0.396,-0.325 L 2.822,-1.641 C 2.932,-1.768 3.041,-1.893 3.146,-2.014 3.25,-2.135 3.35,-2.252 3.445,-2.363 3.544,-2.47 3.602,-2.6 3.674,-2.704 3.943,-3.133 4.122,-3.42 4.122,-3.42 c 0,0 -0.204,0.268 -0.51,0.67 -0.081,0.095 -0.148,0.216 -0.256,0.312 -0.104,0.1 -0.212,0.206 -0.325,0.315 -0.112,0.107 -0.228,0.219 -0.346,0.332 L 2.285,-1.5 C 2.147,-1.408 2.026,-1.294 1.878,-1.225 1.736,-1.148 1.596,-1.071 1.461,-0.998 1.189,-0.855 0.917,-0.76 0.691,-0.676 0.457,-0.607 0.264,-0.549 0.133,-0.53 0.006,-0.5 -0.084,-0.493 -0.084,-0.493 L 0,0 Z"
             style="fill:#332c2c;fill-opacity:1;fill-rule:nonzero;stroke:none"
             id="path472"
             inkscape:connector-curvature="0" /></g><g
           id="g474"
           transform="translate(629.0465,206.4433)"><path
             d="m 0,0 c -1.552,-2.819 -1.478,-8.498 -5.816,-8.771 -3.889,-0.245 -4.004,3.878 -5.633,6.502 -3.747,-8.804 -15.934,1.071 -6.179,6.844 -2.281,-0.73 -7.054,-3.066 -9.505,-0.722 -3.108,2.975 1.44,6.342 4.458,7.576 -4.012,-0.316 -8.735,2.329 -4.699,6.387 2.604,2.619 9.384,1.373 12.414,0.33 -6.376,2.81 7.599,14.899 9.414,1.098 0.476,8.463 17.044,4.848 7.738,-2.229 3.589,-0.185 8.477,1.923 11.517,-0.692 5.125,-4.409 -2.077,-6.168 -5.851,-5.787 9.959,-1.951 8.309,-12.75 -1.713,-9.101 4.101,-0.753 3.773,-6.765 0.358,-7.79 -3.93,-1.18 -7.771,3.101 -7.405,6.562"
             style="fill:#f9fcf0;fill-opacity:1;fill-rule:nonzero;stroke:none"
             id="path476"
             inkscape:connector-curvature="0" /></g><g
           id="g478"
           transform="translate(614.6445,217.0737)"><path
             d="m 0,0 c -0.08,-2.682 3.167,-4.955 7.254,-5.077 4.086,-0.122 7.464,1.953 7.544,4.635 C 14.878,2.239 11.63,4.512 7.544,4.634 3.458,4.756 0.08,2.682 0,0"
             style="fill:#eaea44;fill-opacity:1;fill-rule:nonzero;stroke:none"
             id="path480"
             inkscape:connector-curvature="0" /></g></g></g></g></svg>